%TF.GenerationSoftware,KiCad,Pcbnew,(6.0.1)*%
%TF.CreationDate,2023-03-04T22:59:05-07:00*%
%TF.ProjectId,DevBoard2.0,44657642-6f61-4726-9432-2e302e6b6963,rev?*%
%TF.SameCoordinates,Original*%
%TF.FileFunction,Soldermask,Top*%
%TF.FilePolarity,Negative*%
%FSLAX46Y46*%
G04 Gerber Fmt 4.6, Leading zero omitted, Abs format (unit mm)*
G04 Created by KiCad (PCBNEW (6.0.1)) date 2023-03-04 22:59:05*
%MOMM*%
%LPD*%
G01*
G04 APERTURE LIST*
G04 Aperture macros list*
%AMRoundRect*
0 Rectangle with rounded corners*
0 $1 Rounding radius*
0 $2 $3 $4 $5 $6 $7 $8 $9 X,Y pos of 4 corners*
0 Add a 4 corners polygon primitive as box body*
4,1,4,$2,$3,$4,$5,$6,$7,$8,$9,$2,$3,0*
0 Add four circle primitives for the rounded corners*
1,1,$1+$1,$2,$3*
1,1,$1+$1,$4,$5*
1,1,$1+$1,$6,$7*
1,1,$1+$1,$8,$9*
0 Add four rect primitives between the rounded corners*
20,1,$1+$1,$2,$3,$4,$5,0*
20,1,$1+$1,$4,$5,$6,$7,0*
20,1,$1+$1,$6,$7,$8,$9,0*
20,1,$1+$1,$8,$9,$2,$3,0*%
G04 Aperture macros list end*
%ADD10C,1.650000*%
%ADD11R,1.650000X1.650000*%
%ADD12C,2.400000*%
%ADD13C,1.950000*%
%ADD14R,1.700000X1.700000*%
%ADD15O,1.700000X1.700000*%
%ADD16C,3.200000*%
%ADD17O,1.143000X1.397000*%
%ADD18R,1.800000X1.800000*%
%ADD19C,1.800000*%
%ADD20C,1.701800*%
%ADD21C,3.048000*%
%ADD22R,1.549400X0.609600*%
%ADD23R,1.803400X1.193800*%
%ADD24R,1.100000X1.100000*%
%ADD25C,1.100000*%
%ADD26O,1.100000X2.400000*%
%ADD27C,1.500000*%
%ADD28R,1.500000X1.500000*%
%ADD29RoundRect,0.875000X0.875000X0.875000X-0.875000X0.875000X-0.875000X-0.875000X0.875000X-0.875000X0*%
%ADD30RoundRect,0.750000X0.750000X1.000000X-0.750000X1.000000X-0.750000X-1.000000X0.750000X-1.000000X0*%
%ADD31R,3.500000X3.500000*%
G04 APERTURE END LIST*
D10*
%TO.C,U1*%
X263812000Y-73192000D03*
X263812000Y-75692000D03*
X263812000Y-78192000D03*
D11*
X275042000Y-66962000D03*
D10*
X272542000Y-66962000D03*
X270042000Y-66962000D03*
D12*
X267542000Y-69367000D03*
X267542000Y-82017000D03*
X277542000Y-82017000D03*
X277542000Y-69367000D03*
D13*
X278292000Y-78942000D03*
X282792000Y-78942000D03*
X278292000Y-72442000D03*
X282792000Y-72442000D03*
%TD*%
D14*
%TO.C,J26*%
X176657000Y-58039000D03*
D15*
X176657000Y-60579000D03*
X176657000Y-63119000D03*
X176657000Y-65659000D03*
%TD*%
D16*
%TO.C,REF\u002A\u002A*%
X278000000Y-16000000D03*
%TD*%
%TO.C,REF\u002A\u002A*%
X278000000Y-61000000D03*
%TD*%
%TO.C,REF\u002A\u002A*%
X170000000Y-61000000D03*
%TD*%
%TO.C,REF\u002A\u002A*%
X170000000Y-16000000D03*
%TD*%
D17*
%TO.C,LED2*%
X189863100Y-60706000D03*
X192403100Y-60706000D03*
X191133100Y-60706000D03*
X193673100Y-60706000D03*
%TD*%
D14*
%TO.C,J19*%
X164416000Y-38618000D03*
D15*
X164416000Y-41158000D03*
X164416000Y-43698000D03*
X164416000Y-46238000D03*
%TD*%
D14*
%TO.C,J16*%
X159766000Y-38618000D03*
D15*
X159766000Y-41158000D03*
X159766000Y-43698000D03*
X159766000Y-46238000D03*
%TD*%
D14*
%TO.C,J12*%
X201676000Y-37338000D03*
D15*
X199136000Y-37338000D03*
X196596000Y-37338000D03*
X194056000Y-37338000D03*
X191516000Y-37338000D03*
X188976000Y-37338000D03*
X186436000Y-37338000D03*
X183896000Y-37338000D03*
%TD*%
D14*
%TO.C,J18*%
X230872900Y-54864000D03*
D15*
X228332900Y-54864000D03*
X225792900Y-54864000D03*
X223252900Y-54864000D03*
X220712900Y-54864000D03*
X218172900Y-54864000D03*
X215632900Y-54864000D03*
X213092900Y-54864000D03*
%TD*%
%TO.C,J17*%
X215392000Y-72888000D03*
X217932000Y-72888000D03*
X215392000Y-75428000D03*
X217932000Y-75428000D03*
X215392000Y-77968000D03*
X217932000Y-77968000D03*
X215392000Y-80508000D03*
D14*
X217932000Y-80508000D03*
%TD*%
%TO.C,J25*%
X221488000Y-37846000D03*
D15*
X224028000Y-37846000D03*
X226568000Y-37846000D03*
X229108000Y-37846000D03*
X231648000Y-37846000D03*
X234188000Y-37846000D03*
%TD*%
D14*
%TO.C,J14*%
X181610000Y-69860000D03*
D15*
X181610000Y-72400000D03*
X181610000Y-74940000D03*
X181610000Y-77480000D03*
%TD*%
D14*
%TO.C,J13*%
X257556000Y-72400000D03*
D15*
X257556000Y-74940000D03*
X257556000Y-77480000D03*
X257556000Y-80020000D03*
%TD*%
D14*
%TO.C,J11*%
X196851900Y-54610000D03*
D15*
X194311900Y-54610000D03*
X191771900Y-54610000D03*
X189231900Y-54610000D03*
%TD*%
D14*
%TO.C,J6*%
X255778000Y-47244000D03*
D15*
X258318000Y-47244000D03*
X260858000Y-47244000D03*
X263398000Y-47244000D03*
%TD*%
D18*
%TO.C,D2*%
X251709000Y-38354000D03*
D19*
X254249000Y-38354000D03*
%TD*%
D18*
%TO.C,D1*%
X244343000Y-38354000D03*
D19*
X246883000Y-38354000D03*
%TD*%
D20*
%TO.C,SW1*%
X173702550Y-73770231D03*
X173702550Y-78770231D03*
X159202551Y-73770231D03*
X159202551Y-78770231D03*
X159202551Y-76270231D03*
D21*
X166702551Y-70670293D03*
X166702551Y-81870169D03*
%TD*%
D22*
%TO.C,J15*%
X161441600Y-62460000D03*
X161441600Y-61459999D03*
X161441600Y-60460001D03*
X161441600Y-59460000D03*
D23*
X158916601Y-63759999D03*
X158916601Y-58160001D03*
%TD*%
D22*
%TO.C,J10*%
X161441600Y-54840000D03*
X161441600Y-53839999D03*
X161441600Y-52840001D03*
X161441600Y-51840000D03*
D23*
X158916601Y-56139999D03*
X158916601Y-50540001D03*
%TD*%
D14*
%TO.C,J1*%
X207757000Y-74111000D03*
D15*
X205217000Y-74111000D03*
X202677000Y-74111000D03*
X200137000Y-74111000D03*
X197597000Y-74111000D03*
X195057000Y-74111000D03*
X192517000Y-74111000D03*
X189977000Y-74111000D03*
%TD*%
D17*
%TO.C,LED8*%
X235583100Y-60706000D03*
X238123100Y-60706000D03*
X236853100Y-60706000D03*
X239393100Y-60706000D03*
%TD*%
%TO.C,LED7*%
X227963100Y-60706000D03*
X230503100Y-60706000D03*
X229233100Y-60706000D03*
X231773100Y-60706000D03*
%TD*%
%TO.C,LED6*%
X220343100Y-60706000D03*
X222883100Y-60706000D03*
X221613100Y-60706000D03*
X224153100Y-60706000D03*
%TD*%
%TO.C,LED5*%
X212723100Y-60706000D03*
X215263100Y-60706000D03*
X213993100Y-60706000D03*
X216533100Y-60706000D03*
%TD*%
%TO.C,LED4*%
X205103100Y-60706000D03*
X207643100Y-60706000D03*
X206373100Y-60706000D03*
X208913100Y-60706000D03*
%TD*%
%TO.C,LED3*%
X197483100Y-60706000D03*
X200023100Y-60706000D03*
X198753100Y-60706000D03*
X201293100Y-60706000D03*
%TD*%
%TO.C,LED1*%
X182243100Y-60706000D03*
X184783100Y-60706000D03*
X183513100Y-60706000D03*
X186053100Y-60706000D03*
%TD*%
D24*
%TO.C,J20*%
X277876000Y-53848000D03*
D25*
X278676000Y-52098000D03*
X279476000Y-53848000D03*
X280276000Y-52098000D03*
X281076000Y-53848000D03*
D26*
X283126000Y-52973000D03*
X275826000Y-52973000D03*
%TD*%
D27*
%TO.C,U5*%
X203200000Y-15097500D03*
X205740000Y-15097500D03*
X208280000Y-15097500D03*
X210820000Y-15097500D03*
X213360000Y-15097500D03*
X215900000Y-15097500D03*
X215900000Y-30337500D03*
X213360000Y-30337500D03*
X210820000Y-30337500D03*
X208280000Y-30337500D03*
X205740000Y-30337500D03*
D28*
X203200000Y-30337500D03*
%TD*%
D15*
%TO.C,J24*%
X261620000Y-30480000D03*
X259080000Y-30480000D03*
X261620000Y-27940000D03*
X259080000Y-27940000D03*
X261620000Y-25400000D03*
D14*
X259080000Y-25400000D03*
%TD*%
D15*
%TO.C,J23*%
X246380000Y-30480000D03*
X243840000Y-30480000D03*
X246380000Y-27940000D03*
X243840000Y-27940000D03*
X246380000Y-25400000D03*
D14*
X243840000Y-25400000D03*
%TD*%
D15*
%TO.C,J22*%
X254000000Y-30480000D03*
X251460000Y-30480000D03*
X254000000Y-27940000D03*
X251460000Y-27940000D03*
X254000000Y-25400000D03*
D14*
X251460000Y-25400000D03*
%TD*%
%TO.C,J21*%
X272034000Y-45466000D03*
D15*
X272034000Y-42926000D03*
X272034000Y-40386000D03*
X272034000Y-37846000D03*
%TD*%
%TO.C,J9*%
X189977000Y-76651000D03*
X192517000Y-76651000D03*
X195057000Y-76651000D03*
X197597000Y-76651000D03*
X200137000Y-76651000D03*
X202677000Y-76651000D03*
X205217000Y-76651000D03*
D14*
X207757000Y-76651000D03*
%TD*%
D15*
%TO.C,J8*%
X173990000Y-33020000D03*
X171450000Y-33020000D03*
X168910000Y-33020000D03*
X166370000Y-33020000D03*
D14*
X163830000Y-33020000D03*
%TD*%
D29*
%TO.C,J7*%
X274368000Y-22165500D03*
D30*
X277368000Y-26865500D03*
D31*
X271368000Y-26865500D03*
%TD*%
D15*
%TO.C,J5*%
X282194000Y-37846000D03*
X282194000Y-40386000D03*
X279654000Y-37846000D03*
X279654000Y-40386000D03*
X277114000Y-37846000D03*
D14*
X277114000Y-40386000D03*
%TD*%
D15*
%TO.C,J4*%
X282194000Y-42926000D03*
X282194000Y-45466000D03*
X279654000Y-42926000D03*
X279654000Y-45466000D03*
X277114000Y-42926000D03*
D14*
X277114000Y-45466000D03*
%TD*%
%TO.C,J3*%
X176525000Y-16520000D03*
D15*
X176525000Y-19060000D03*
X176525000Y-21600000D03*
X176525000Y-24140000D03*
%TD*%
D14*
%TO.C,J2*%
X161285000Y-16520000D03*
D15*
X161285000Y-19060000D03*
X161285000Y-21600000D03*
X161285000Y-24140000D03*
%TD*%
M02*
