%TF.GenerationSoftware,KiCad,Pcbnew,(6.0.1)*%
%TF.CreationDate,2023-03-04T22:59:05-07:00*%
%TF.ProjectId,DevBoard2.0,44657642-6f61-4726-9432-2e302e6b6963,rev?*%
%TF.SameCoordinates,Original*%
%TF.FileFunction,Legend,Bot*%
%TF.FilePolarity,Positive*%
%FSLAX46Y46*%
G04 Gerber Fmt 4.6, Leading zero omitted, Abs format (unit mm)*
G04 Created by KiCad (PCBNEW (6.0.1)) date 2023-03-04 22:59:05*
%MOMM*%
%LPD*%
G01*
G04 APERTURE LIST*
%ADD10C,0.150000*%
%ADD11C,0.200000*%
%ADD12C,0.127000*%
%ADD13C,0.120000*%
%ADD14C,0.508000*%
G04 APERTURE END LIST*
D10*
X261222904Y-21550380D02*
X260556238Y-21550380D01*
X260984809Y-22550380D01*
X260032428Y-21978952D02*
X260127666Y-21931333D01*
X260175285Y-21883714D01*
X260222904Y-21788476D01*
X260222904Y-21740857D01*
X260175285Y-21645619D01*
X260127666Y-21598000D01*
X260032428Y-21550380D01*
X259841952Y-21550380D01*
X259746714Y-21598000D01*
X259699095Y-21645619D01*
X259651476Y-21740857D01*
X259651476Y-21788476D01*
X259699095Y-21883714D01*
X259746714Y-21931333D01*
X259841952Y-21978952D01*
X260032428Y-21978952D01*
X260127666Y-22026571D01*
X260175285Y-22074190D01*
X260222904Y-22169428D01*
X260222904Y-22359904D01*
X260175285Y-22455142D01*
X260127666Y-22502761D01*
X260032428Y-22550380D01*
X259841952Y-22550380D01*
X259746714Y-22502761D01*
X259699095Y-22455142D01*
X259651476Y-22359904D01*
X259651476Y-22169428D01*
X259699095Y-22074190D01*
X259746714Y-22026571D01*
X259841952Y-21978952D01*
X259032428Y-21550380D02*
X258937190Y-21550380D01*
X258841952Y-21598000D01*
X258794333Y-21645619D01*
X258746714Y-21740857D01*
X258699095Y-21931333D01*
X258699095Y-22169428D01*
X258746714Y-22359904D01*
X258794333Y-22455142D01*
X258841952Y-22502761D01*
X258937190Y-22550380D01*
X259032428Y-22550380D01*
X259127666Y-22502761D01*
X259175285Y-22455142D01*
X259222904Y-22359904D01*
X259270523Y-22169428D01*
X259270523Y-21931333D01*
X259222904Y-21740857D01*
X259175285Y-21645619D01*
X259127666Y-21598000D01*
X259032428Y-21550380D01*
X257794333Y-21550380D02*
X258270523Y-21550380D01*
X258318142Y-22026571D01*
X258270523Y-21978952D01*
X258175285Y-21931333D01*
X257937190Y-21931333D01*
X257841952Y-21978952D01*
X257794333Y-22026571D01*
X257746714Y-22121809D01*
X257746714Y-22359904D01*
X257794333Y-22455142D01*
X257841952Y-22502761D01*
X257937190Y-22550380D01*
X258175285Y-22550380D01*
X258270523Y-22502761D01*
X258318142Y-22455142D01*
X246300333Y-21677380D02*
X245633666Y-21677380D01*
X246062238Y-22677380D01*
X245109857Y-22105952D02*
X245205095Y-22058333D01*
X245252714Y-22010714D01*
X245300333Y-21915476D01*
X245300333Y-21867857D01*
X245252714Y-21772619D01*
X245205095Y-21725000D01*
X245109857Y-21677380D01*
X244919380Y-21677380D01*
X244824142Y-21725000D01*
X244776523Y-21772619D01*
X244728904Y-21867857D01*
X244728904Y-21915476D01*
X244776523Y-22010714D01*
X244824142Y-22058333D01*
X244919380Y-22105952D01*
X245109857Y-22105952D01*
X245205095Y-22153571D01*
X245252714Y-22201190D01*
X245300333Y-22296428D01*
X245300333Y-22486904D01*
X245252714Y-22582142D01*
X245205095Y-22629761D01*
X245109857Y-22677380D01*
X244919380Y-22677380D01*
X244824142Y-22629761D01*
X244776523Y-22582142D01*
X244728904Y-22486904D01*
X244728904Y-22296428D01*
X244776523Y-22201190D01*
X244824142Y-22153571D01*
X244919380Y-22105952D01*
X244300333Y-22677380D02*
X244300333Y-21677380D01*
X243967000Y-22391666D01*
X243633666Y-21677380D01*
X243633666Y-22677380D01*
X243252714Y-21677380D02*
X242633666Y-21677380D01*
X242967000Y-22058333D01*
X242824142Y-22058333D01*
X242728904Y-22105952D01*
X242681285Y-22153571D01*
X242633666Y-22248809D01*
X242633666Y-22486904D01*
X242681285Y-22582142D01*
X242728904Y-22629761D01*
X242824142Y-22677380D01*
X243109857Y-22677380D01*
X243205095Y-22629761D01*
X243252714Y-22582142D01*
X242300333Y-21677380D02*
X241681285Y-21677380D01*
X242014619Y-22058333D01*
X241871761Y-22058333D01*
X241776523Y-22105952D01*
X241728904Y-22153571D01*
X241681285Y-22248809D01*
X241681285Y-22486904D01*
X241728904Y-22582142D01*
X241776523Y-22629761D01*
X241871761Y-22677380D01*
X242157476Y-22677380D01*
X242252714Y-22629761D01*
X242300333Y-22582142D01*
X248440380Y-59777523D02*
X248440380Y-59206095D01*
X248440380Y-59491809D02*
X247440380Y-59491809D01*
X247583238Y-59396571D01*
X247678476Y-59301333D01*
X247726095Y-59206095D01*
X247535619Y-60158476D02*
X247488000Y-60206095D01*
X247440380Y-60301333D01*
X247440380Y-60539428D01*
X247488000Y-60634666D01*
X247535619Y-60682285D01*
X247630857Y-60729904D01*
X247726095Y-60729904D01*
X247868952Y-60682285D01*
X248440380Y-60110857D01*
X248440380Y-60729904D01*
X248440380Y-61158476D02*
X247440380Y-61158476D01*
X248154666Y-61491809D01*
X247440380Y-61825142D01*
X248440380Y-61825142D01*
X248440380Y-62301333D02*
X247440380Y-62301333D01*
X247916571Y-62301333D02*
X247916571Y-62872761D01*
X248440380Y-62872761D02*
X247440380Y-62872761D01*
X247773714Y-63253714D02*
X247773714Y-63777523D01*
X248440380Y-63253714D01*
X248440380Y-63777523D01*
X249050380Y-60396571D02*
X249050380Y-60587047D01*
X249098000Y-60682285D01*
X249193238Y-60777523D01*
X249383714Y-60825142D01*
X249717047Y-60825142D01*
X249907523Y-60777523D01*
X250002761Y-60682285D01*
X250050380Y-60587047D01*
X250050380Y-60396571D01*
X250002761Y-60301333D01*
X249907523Y-60206095D01*
X249717047Y-60158476D01*
X249383714Y-60158476D01*
X249193238Y-60206095D01*
X249098000Y-60301333D01*
X249050380Y-60396571D01*
X250002761Y-61206095D02*
X250050380Y-61348952D01*
X250050380Y-61587047D01*
X250002761Y-61682285D01*
X249955142Y-61729904D01*
X249859904Y-61777523D01*
X249764666Y-61777523D01*
X249669428Y-61729904D01*
X249621809Y-61682285D01*
X249574190Y-61587047D01*
X249526571Y-61396571D01*
X249478952Y-61301333D01*
X249431333Y-61253714D01*
X249336095Y-61206095D01*
X249240857Y-61206095D01*
X249145619Y-61253714D01*
X249098000Y-61301333D01*
X249050380Y-61396571D01*
X249050380Y-61634666D01*
X249098000Y-61777523D01*
X249955142Y-62777523D02*
X250002761Y-62729904D01*
X250050380Y-62587047D01*
X250050380Y-62491809D01*
X250002761Y-62348952D01*
X249907523Y-62253714D01*
X249812285Y-62206095D01*
X249621809Y-62158476D01*
X249478952Y-62158476D01*
X249288476Y-62206095D01*
X249193238Y-62253714D01*
X249098000Y-62348952D01*
X249050380Y-62491809D01*
X249050380Y-62587047D01*
X249098000Y-62729904D01*
X249145619Y-62777523D01*
X176601380Y-73445761D02*
X176601380Y-72874333D01*
X176601380Y-73160047D02*
X175601380Y-73160047D01*
X175744238Y-73064809D01*
X175839476Y-72969571D01*
X175887095Y-72874333D01*
X175601380Y-74064809D02*
X175601380Y-74160047D01*
X175649000Y-74255285D01*
X175696619Y-74302904D01*
X175791857Y-74350523D01*
X175982333Y-74398142D01*
X176220428Y-74398142D01*
X176410904Y-74350523D01*
X176506142Y-74302904D01*
X176553761Y-74255285D01*
X176601380Y-74160047D01*
X176601380Y-74064809D01*
X176553761Y-73969571D01*
X176506142Y-73921952D01*
X176410904Y-73874333D01*
X176220428Y-73826714D01*
X175982333Y-73826714D01*
X175791857Y-73874333D01*
X175696619Y-73921952D01*
X175649000Y-73969571D01*
X175601380Y-74064809D01*
X176601380Y-74826714D02*
X175601380Y-74826714D01*
X176220428Y-74921952D02*
X176601380Y-75207666D01*
X175934714Y-75207666D02*
X176315666Y-74826714D01*
X176601380Y-69508761D02*
X176601380Y-68937333D01*
X176601380Y-69223047D02*
X175601380Y-69223047D01*
X175744238Y-69127809D01*
X175839476Y-69032571D01*
X175887095Y-68937333D01*
X175601380Y-70127809D02*
X175601380Y-70223047D01*
X175649000Y-70318285D01*
X175696619Y-70365904D01*
X175791857Y-70413523D01*
X175982333Y-70461142D01*
X176220428Y-70461142D01*
X176410904Y-70413523D01*
X176506142Y-70365904D01*
X176553761Y-70318285D01*
X176601380Y-70223047D01*
X176601380Y-70127809D01*
X176553761Y-70032571D01*
X176506142Y-69984952D01*
X176410904Y-69937333D01*
X176220428Y-69889714D01*
X175982333Y-69889714D01*
X175791857Y-69937333D01*
X175696619Y-69984952D01*
X175649000Y-70032571D01*
X175601380Y-70127809D01*
X176601380Y-70889714D02*
X175601380Y-70889714D01*
X176220428Y-70984952D02*
X176601380Y-71270666D01*
X175934714Y-71270666D02*
X176315666Y-70889714D01*
X226131380Y-74588761D02*
X226131380Y-74017333D01*
X226131380Y-74303047D02*
X225131380Y-74303047D01*
X225274238Y-74207809D01*
X225369476Y-74112571D01*
X225417095Y-74017333D01*
X225131380Y-75207809D02*
X225131380Y-75303047D01*
X225179000Y-75398285D01*
X225226619Y-75445904D01*
X225321857Y-75493523D01*
X225512333Y-75541142D01*
X225750428Y-75541142D01*
X225940904Y-75493523D01*
X226036142Y-75445904D01*
X226083761Y-75398285D01*
X226131380Y-75303047D01*
X226131380Y-75207809D01*
X226083761Y-75112571D01*
X226036142Y-75064952D01*
X225940904Y-75017333D01*
X225750428Y-74969714D01*
X225512333Y-74969714D01*
X225321857Y-75017333D01*
X225226619Y-75064952D01*
X225179000Y-75112571D01*
X225131380Y-75207809D01*
X226131380Y-75969714D02*
X225131380Y-75969714D01*
X225750428Y-76064952D02*
X226131380Y-76350666D01*
X225464714Y-76350666D02*
X225845666Y-75969714D01*
X220686380Y-70239142D02*
X220686380Y-70334380D01*
X220734000Y-70429619D01*
X220781619Y-70477238D01*
X220876857Y-70524857D01*
X221067333Y-70572476D01*
X221305428Y-70572476D01*
X221495904Y-70524857D01*
X221591142Y-70477238D01*
X221638761Y-70429619D01*
X221686380Y-70334380D01*
X221686380Y-70239142D01*
X221638761Y-70143904D01*
X221591142Y-70096285D01*
X221495904Y-70048666D01*
X221305428Y-70001047D01*
X221067333Y-70001047D01*
X220876857Y-70048666D01*
X220781619Y-70096285D01*
X220734000Y-70143904D01*
X220686380Y-70239142D01*
X221591142Y-71001047D02*
X221638761Y-71048666D01*
X221686380Y-71001047D01*
X221638761Y-70953428D01*
X221591142Y-71001047D01*
X221686380Y-71001047D01*
X221686380Y-72001047D02*
X221686380Y-71429619D01*
X221686380Y-71715333D02*
X220686380Y-71715333D01*
X220829238Y-71620095D01*
X220924476Y-71524857D01*
X220972095Y-71429619D01*
X221019714Y-72858190D02*
X221686380Y-72858190D01*
X221019714Y-72429619D02*
X221543523Y-72429619D01*
X221638761Y-72477238D01*
X221686380Y-72572476D01*
X221686380Y-72715333D01*
X221638761Y-72810571D01*
X221591142Y-72858190D01*
X221162571Y-73667714D02*
X221162571Y-73334380D01*
X221686380Y-73334380D02*
X220686380Y-73334380D01*
X220686380Y-73810571D01*
X265294857Y-65238380D02*
X265199619Y-65238380D01*
X265104380Y-65286000D01*
X265056761Y-65333619D01*
X265009142Y-65428857D01*
X264961523Y-65619333D01*
X264961523Y-65857428D01*
X265009142Y-66047904D01*
X265056761Y-66143142D01*
X265104380Y-66190761D01*
X265199619Y-66238380D01*
X265294857Y-66238380D01*
X265390095Y-66190761D01*
X265437714Y-66143142D01*
X265485333Y-66047904D01*
X265532952Y-65857428D01*
X265532952Y-65619333D01*
X265485333Y-65428857D01*
X265437714Y-65333619D01*
X265390095Y-65286000D01*
X265294857Y-65238380D01*
X264532952Y-66143142D02*
X264485333Y-66190761D01*
X264532952Y-66238380D01*
X264580571Y-66190761D01*
X264532952Y-66143142D01*
X264532952Y-66238380D01*
X263532952Y-66238380D02*
X264104380Y-66238380D01*
X263818666Y-66238380D02*
X263818666Y-65238380D01*
X263913904Y-65381238D01*
X264009142Y-65476476D01*
X264104380Y-65524095D01*
X262675809Y-65571714D02*
X262675809Y-66238380D01*
X263104380Y-65571714D02*
X263104380Y-66095523D01*
X263056761Y-66190761D01*
X262961523Y-66238380D01*
X262818666Y-66238380D01*
X262723428Y-66190761D01*
X262675809Y-66143142D01*
X261866285Y-65714571D02*
X262199619Y-65714571D01*
X262199619Y-66238380D02*
X262199619Y-65238380D01*
X261723428Y-65238380D01*
X252182238Y-55570380D02*
X252753666Y-55570380D01*
X252467952Y-55570380D02*
X252467952Y-54570380D01*
X252563190Y-54713238D01*
X252658428Y-54808476D01*
X252753666Y-54856095D01*
X251563190Y-54570380D02*
X251467952Y-54570380D01*
X251372714Y-54618000D01*
X251325095Y-54665619D01*
X251277476Y-54760857D01*
X251229857Y-54951333D01*
X251229857Y-55189428D01*
X251277476Y-55379904D01*
X251325095Y-55475142D01*
X251372714Y-55522761D01*
X251467952Y-55570380D01*
X251563190Y-55570380D01*
X251658428Y-55522761D01*
X251706047Y-55475142D01*
X251753666Y-55379904D01*
X251801285Y-55189428D01*
X251801285Y-54951333D01*
X251753666Y-54760857D01*
X251706047Y-54665619D01*
X251658428Y-54618000D01*
X251563190Y-54570380D01*
X250801285Y-55570380D02*
X250801285Y-54570380D01*
X250706047Y-55189428D02*
X250420333Y-55570380D01*
X250420333Y-54903714D02*
X250801285Y-55284666D01*
X174180333Y-38493571D02*
X174037476Y-38541190D01*
X173989857Y-38588809D01*
X173942238Y-38684047D01*
X173942238Y-38826904D01*
X173989857Y-38922142D01*
X174037476Y-38969761D01*
X174132714Y-39017380D01*
X174513666Y-39017380D01*
X174513666Y-38017380D01*
X174180333Y-38017380D01*
X174085095Y-38065000D01*
X174037476Y-38112619D01*
X173989857Y-38207857D01*
X173989857Y-38303095D01*
X174037476Y-38398333D01*
X174085095Y-38445952D01*
X174180333Y-38493571D01*
X174513666Y-38493571D01*
X173513666Y-39017380D02*
X173513666Y-38017380D01*
X173275571Y-38017380D01*
X173132714Y-38065000D01*
X173037476Y-38160238D01*
X172989857Y-38255476D01*
X172942238Y-38445952D01*
X172942238Y-38588809D01*
X172989857Y-38779285D01*
X173037476Y-38874523D01*
X173132714Y-38969761D01*
X173275571Y-39017380D01*
X173513666Y-39017380D01*
X172656523Y-38017380D02*
X172323190Y-39017380D01*
X171989857Y-38017380D01*
X171704142Y-38969761D02*
X171561285Y-39017380D01*
X171323190Y-39017380D01*
X171227952Y-38969761D01*
X171180333Y-38922142D01*
X171132714Y-38826904D01*
X171132714Y-38731666D01*
X171180333Y-38636428D01*
X171227952Y-38588809D01*
X171323190Y-38541190D01*
X171513666Y-38493571D01*
X171608904Y-38445952D01*
X171656523Y-38398333D01*
X171704142Y-38303095D01*
X171704142Y-38207857D01*
X171656523Y-38112619D01*
X171608904Y-38065000D01*
X171513666Y-38017380D01*
X171275571Y-38017380D01*
X171132714Y-38065000D01*
X173823190Y-40627380D02*
X173823190Y-39627380D01*
X173394619Y-39722619D02*
X173347000Y-39675000D01*
X173251761Y-39627380D01*
X173013666Y-39627380D01*
X172918428Y-39675000D01*
X172870809Y-39722619D01*
X172823190Y-39817857D01*
X172823190Y-39913095D01*
X172870809Y-40055952D01*
X173442238Y-40627380D01*
X172823190Y-40627380D01*
X171823190Y-40532142D02*
X171870809Y-40579761D01*
X172013666Y-40627380D01*
X172108904Y-40627380D01*
X172251761Y-40579761D01*
X172347000Y-40484523D01*
X172394619Y-40389285D01*
X172442238Y-40198809D01*
X172442238Y-40055952D01*
X172394619Y-39865476D01*
X172347000Y-39770238D01*
X172251761Y-39675000D01*
X172108904Y-39627380D01*
X172013666Y-39627380D01*
X171870809Y-39675000D01*
X171823190Y-39722619D01*
X171140380Y-47918761D02*
X171140380Y-47347333D01*
X171140380Y-47633047D02*
X170140380Y-47633047D01*
X170283238Y-47537809D01*
X170378476Y-47442571D01*
X170426095Y-47347333D01*
X170140380Y-48537809D02*
X170140380Y-48633047D01*
X170188000Y-48728285D01*
X170235619Y-48775904D01*
X170330857Y-48823523D01*
X170521333Y-48871142D01*
X170759428Y-48871142D01*
X170949904Y-48823523D01*
X171045142Y-48775904D01*
X171092761Y-48728285D01*
X171140380Y-48633047D01*
X171140380Y-48537809D01*
X171092761Y-48442571D01*
X171045142Y-48394952D01*
X170949904Y-48347333D01*
X170759428Y-48299714D01*
X170521333Y-48299714D01*
X170330857Y-48347333D01*
X170235619Y-48394952D01*
X170188000Y-48442571D01*
X170140380Y-48537809D01*
X171140380Y-49299714D02*
X170140380Y-49299714D01*
X170759428Y-49394952D02*
X171140380Y-49680666D01*
X170473714Y-49680666D02*
X170854666Y-49299714D01*
X171140380Y-40933761D02*
X171140380Y-40362333D01*
X171140380Y-40648047D02*
X170140380Y-40648047D01*
X170283238Y-40552809D01*
X170378476Y-40457571D01*
X170426095Y-40362333D01*
X170140380Y-41552809D02*
X170140380Y-41648047D01*
X170188000Y-41743285D01*
X170235619Y-41790904D01*
X170330857Y-41838523D01*
X170521333Y-41886142D01*
X170759428Y-41886142D01*
X170949904Y-41838523D01*
X171045142Y-41790904D01*
X171092761Y-41743285D01*
X171140380Y-41648047D01*
X171140380Y-41552809D01*
X171092761Y-41457571D01*
X171045142Y-41409952D01*
X170949904Y-41362333D01*
X170759428Y-41314714D01*
X170521333Y-41314714D01*
X170330857Y-41362333D01*
X170235619Y-41409952D01*
X170188000Y-41457571D01*
X170140380Y-41552809D01*
X171140380Y-42314714D02*
X170140380Y-42314714D01*
X170759428Y-42409952D02*
X171140380Y-42695666D01*
X170473714Y-42695666D02*
X170854666Y-42314714D01*
X181300380Y-40933761D02*
X181300380Y-40362333D01*
X181300380Y-40648047D02*
X180300380Y-40648047D01*
X180443238Y-40552809D01*
X180538476Y-40457571D01*
X180586095Y-40362333D01*
X180300380Y-41552809D02*
X180300380Y-41648047D01*
X180348000Y-41743285D01*
X180395619Y-41790904D01*
X180490857Y-41838523D01*
X180681333Y-41886142D01*
X180919428Y-41886142D01*
X181109904Y-41838523D01*
X181205142Y-41790904D01*
X181252761Y-41743285D01*
X181300380Y-41648047D01*
X181300380Y-41552809D01*
X181252761Y-41457571D01*
X181205142Y-41409952D01*
X181109904Y-41362333D01*
X180919428Y-41314714D01*
X180681333Y-41314714D01*
X180490857Y-41362333D01*
X180395619Y-41409952D01*
X180348000Y-41457571D01*
X180300380Y-41552809D01*
X181300380Y-42314714D02*
X180300380Y-42314714D01*
X180919428Y-42409952D02*
X181300380Y-42695666D01*
X180633714Y-42695666D02*
X181014666Y-42314714D01*
X182189380Y-48172761D02*
X182189380Y-47601333D01*
X182189380Y-47887047D02*
X181189380Y-47887047D01*
X181332238Y-47791809D01*
X181427476Y-47696571D01*
X181475095Y-47601333D01*
X181189380Y-48791809D02*
X181189380Y-48887047D01*
X181237000Y-48982285D01*
X181284619Y-49029904D01*
X181379857Y-49077523D01*
X181570333Y-49125142D01*
X181808428Y-49125142D01*
X181998904Y-49077523D01*
X182094142Y-49029904D01*
X182141761Y-48982285D01*
X182189380Y-48887047D01*
X182189380Y-48791809D01*
X182141761Y-48696571D01*
X182094142Y-48648952D01*
X181998904Y-48601333D01*
X181808428Y-48553714D01*
X181570333Y-48553714D01*
X181379857Y-48601333D01*
X181284619Y-48648952D01*
X181237000Y-48696571D01*
X181189380Y-48791809D01*
X182189380Y-49553714D02*
X181189380Y-49553714D01*
X181808428Y-49648952D02*
X182189380Y-49934666D01*
X181522714Y-49934666D02*
X181903666Y-49553714D01*
X178355285Y-51490619D02*
X178307666Y-51443000D01*
X178212428Y-51395380D01*
X177974333Y-51395380D01*
X177879095Y-51443000D01*
X177831476Y-51490619D01*
X177783857Y-51585857D01*
X177783857Y-51681095D01*
X177831476Y-51823952D01*
X178402904Y-52395380D01*
X177783857Y-52395380D01*
X177355285Y-52395380D02*
X177355285Y-51395380D01*
X176783857Y-52395380D01*
X176783857Y-51395380D01*
X176402904Y-51395380D02*
X175736238Y-51395380D01*
X176164809Y-52395380D01*
X175164809Y-51395380D02*
X175069571Y-51395380D01*
X174974333Y-51443000D01*
X174926714Y-51490619D01*
X174879095Y-51585857D01*
X174831476Y-51776333D01*
X174831476Y-52014428D01*
X174879095Y-52204904D01*
X174926714Y-52300142D01*
X174974333Y-52347761D01*
X175069571Y-52395380D01*
X175164809Y-52395380D01*
X175260047Y-52347761D01*
X175307666Y-52300142D01*
X175355285Y-52204904D01*
X175402904Y-52014428D01*
X175402904Y-51776333D01*
X175355285Y-51585857D01*
X175307666Y-51490619D01*
X175260047Y-51443000D01*
X175164809Y-51395380D01*
X174212428Y-51395380D02*
X174117190Y-51395380D01*
X174021952Y-51443000D01*
X173974333Y-51490619D01*
X173926714Y-51585857D01*
X173879095Y-51776333D01*
X173879095Y-52014428D01*
X173926714Y-52204904D01*
X173974333Y-52300142D01*
X174021952Y-52347761D01*
X174117190Y-52395380D01*
X174212428Y-52395380D01*
X174307666Y-52347761D01*
X174355285Y-52300142D01*
X174402904Y-52204904D01*
X174450523Y-52014428D01*
X174450523Y-51776333D01*
X174402904Y-51585857D01*
X174355285Y-51490619D01*
X174307666Y-51443000D01*
X174212428Y-51395380D01*
X173498142Y-51490619D02*
X173450523Y-51443000D01*
X173355285Y-51395380D01*
X173117190Y-51395380D01*
X173021952Y-51443000D01*
X172974333Y-51490619D01*
X172926714Y-51585857D01*
X172926714Y-51681095D01*
X172974333Y-51823952D01*
X173545761Y-52395380D01*
X172926714Y-52395380D01*
X178990285Y-44759619D02*
X178942666Y-44712000D01*
X178847428Y-44664380D01*
X178609333Y-44664380D01*
X178514095Y-44712000D01*
X178466476Y-44759619D01*
X178418857Y-44854857D01*
X178418857Y-44950095D01*
X178466476Y-45092952D01*
X179037904Y-45664380D01*
X178418857Y-45664380D01*
X177990285Y-45664380D02*
X177990285Y-44664380D01*
X177418857Y-45664380D01*
X177418857Y-44664380D01*
X177037904Y-44664380D02*
X176371238Y-44664380D01*
X176799809Y-45664380D01*
X175799809Y-44664380D02*
X175704571Y-44664380D01*
X175609333Y-44712000D01*
X175561714Y-44759619D01*
X175514095Y-44854857D01*
X175466476Y-45045333D01*
X175466476Y-45283428D01*
X175514095Y-45473904D01*
X175561714Y-45569142D01*
X175609333Y-45616761D01*
X175704571Y-45664380D01*
X175799809Y-45664380D01*
X175895047Y-45616761D01*
X175942666Y-45569142D01*
X175990285Y-45473904D01*
X176037904Y-45283428D01*
X176037904Y-45045333D01*
X175990285Y-44854857D01*
X175942666Y-44759619D01*
X175895047Y-44712000D01*
X175799809Y-44664380D01*
X174847428Y-44664380D02*
X174752190Y-44664380D01*
X174656952Y-44712000D01*
X174609333Y-44759619D01*
X174561714Y-44854857D01*
X174514095Y-45045333D01*
X174514095Y-45283428D01*
X174561714Y-45473904D01*
X174609333Y-45569142D01*
X174656952Y-45616761D01*
X174752190Y-45664380D01*
X174847428Y-45664380D01*
X174942666Y-45616761D01*
X174990285Y-45569142D01*
X175037904Y-45473904D01*
X175085523Y-45283428D01*
X175085523Y-45045333D01*
X175037904Y-44854857D01*
X174990285Y-44759619D01*
X174942666Y-44712000D01*
X174847428Y-44664380D01*
X174133142Y-44759619D02*
X174085523Y-44712000D01*
X173990285Y-44664380D01*
X173752190Y-44664380D01*
X173656952Y-44712000D01*
X173609333Y-44759619D01*
X173561714Y-44854857D01*
X173561714Y-44950095D01*
X173609333Y-45092952D01*
X174180761Y-45664380D01*
X173561714Y-45664380D01*
X194738285Y-44251619D02*
X194690666Y-44204000D01*
X194595428Y-44156380D01*
X194357333Y-44156380D01*
X194262095Y-44204000D01*
X194214476Y-44251619D01*
X194166857Y-44346857D01*
X194166857Y-44442095D01*
X194214476Y-44584952D01*
X194785904Y-45156380D01*
X194166857Y-45156380D01*
X193738285Y-45156380D02*
X193738285Y-44156380D01*
X193166857Y-45156380D01*
X193166857Y-44156380D01*
X192785904Y-44156380D02*
X192119238Y-44156380D01*
X192547809Y-45156380D01*
X191547809Y-44156380D02*
X191452571Y-44156380D01*
X191357333Y-44204000D01*
X191309714Y-44251619D01*
X191262095Y-44346857D01*
X191214476Y-44537333D01*
X191214476Y-44775428D01*
X191262095Y-44965904D01*
X191309714Y-45061142D01*
X191357333Y-45108761D01*
X191452571Y-45156380D01*
X191547809Y-45156380D01*
X191643047Y-45108761D01*
X191690666Y-45061142D01*
X191738285Y-44965904D01*
X191785904Y-44775428D01*
X191785904Y-44537333D01*
X191738285Y-44346857D01*
X191690666Y-44251619D01*
X191643047Y-44204000D01*
X191547809Y-44156380D01*
X190595428Y-44156380D02*
X190500190Y-44156380D01*
X190404952Y-44204000D01*
X190357333Y-44251619D01*
X190309714Y-44346857D01*
X190262095Y-44537333D01*
X190262095Y-44775428D01*
X190309714Y-44965904D01*
X190357333Y-45061142D01*
X190404952Y-45108761D01*
X190500190Y-45156380D01*
X190595428Y-45156380D01*
X190690666Y-45108761D01*
X190738285Y-45061142D01*
X190785904Y-44965904D01*
X190833523Y-44775428D01*
X190833523Y-44537333D01*
X190785904Y-44346857D01*
X190738285Y-44251619D01*
X190690666Y-44204000D01*
X190595428Y-44156380D01*
X189881142Y-44251619D02*
X189833523Y-44204000D01*
X189738285Y-44156380D01*
X189500190Y-44156380D01*
X189404952Y-44204000D01*
X189357333Y-44251619D01*
X189309714Y-44346857D01*
X189309714Y-44442095D01*
X189357333Y-44584952D01*
X189928761Y-45156380D01*
X189309714Y-45156380D01*
X238013714Y-41108380D02*
X237394666Y-41108380D01*
X237728000Y-41489333D01*
X237585142Y-41489333D01*
X237489904Y-41536952D01*
X237442285Y-41584571D01*
X237394666Y-41679809D01*
X237394666Y-41917904D01*
X237442285Y-42013142D01*
X237489904Y-42060761D01*
X237585142Y-42108380D01*
X237870857Y-42108380D01*
X237966095Y-42060761D01*
X238013714Y-42013142D01*
X237061333Y-41108380D02*
X236442285Y-41108380D01*
X236775619Y-41489333D01*
X236632761Y-41489333D01*
X236537523Y-41536952D01*
X236489904Y-41584571D01*
X236442285Y-41679809D01*
X236442285Y-41917904D01*
X236489904Y-42013142D01*
X236537523Y-42060761D01*
X236632761Y-42108380D01*
X236918476Y-42108380D01*
X237013714Y-42060761D01*
X237061333Y-42013142D01*
X235823238Y-41108380D02*
X235728000Y-41108380D01*
X235632761Y-41156000D01*
X235585142Y-41203619D01*
X235537523Y-41298857D01*
X235489904Y-41489333D01*
X235489904Y-41727428D01*
X235537523Y-41917904D01*
X235585142Y-42013142D01*
X235632761Y-42060761D01*
X235728000Y-42108380D01*
X235823238Y-42108380D01*
X235918476Y-42060761D01*
X235966095Y-42013142D01*
X236013714Y-41917904D01*
X236061333Y-41727428D01*
X236061333Y-41489333D01*
X236013714Y-41298857D01*
X235966095Y-41203619D01*
X235918476Y-41156000D01*
X235823238Y-41108380D01*
X234203714Y-40981380D02*
X233584666Y-40981380D01*
X233918000Y-41362333D01*
X233775142Y-41362333D01*
X233679904Y-41409952D01*
X233632285Y-41457571D01*
X233584666Y-41552809D01*
X233584666Y-41790904D01*
X233632285Y-41886142D01*
X233679904Y-41933761D01*
X233775142Y-41981380D01*
X234060857Y-41981380D01*
X234156095Y-41933761D01*
X234203714Y-41886142D01*
X233251333Y-40981380D02*
X232632285Y-40981380D01*
X232965619Y-41362333D01*
X232822761Y-41362333D01*
X232727523Y-41409952D01*
X232679904Y-41457571D01*
X232632285Y-41552809D01*
X232632285Y-41790904D01*
X232679904Y-41886142D01*
X232727523Y-41933761D01*
X232822761Y-41981380D01*
X233108476Y-41981380D01*
X233203714Y-41933761D01*
X233251333Y-41886142D01*
X232013238Y-40981380D02*
X231918000Y-40981380D01*
X231822761Y-41029000D01*
X231775142Y-41076619D01*
X231727523Y-41171857D01*
X231679904Y-41362333D01*
X231679904Y-41600428D01*
X231727523Y-41790904D01*
X231775142Y-41886142D01*
X231822761Y-41933761D01*
X231918000Y-41981380D01*
X232013238Y-41981380D01*
X232108476Y-41933761D01*
X232156095Y-41886142D01*
X232203714Y-41790904D01*
X232251333Y-41600428D01*
X232251333Y-41362333D01*
X232203714Y-41171857D01*
X232156095Y-41076619D01*
X232108476Y-41029000D01*
X232013238Y-40981380D01*
X230266714Y-40981380D02*
X229647666Y-40981380D01*
X229981000Y-41362333D01*
X229838142Y-41362333D01*
X229742904Y-41409952D01*
X229695285Y-41457571D01*
X229647666Y-41552809D01*
X229647666Y-41790904D01*
X229695285Y-41886142D01*
X229742904Y-41933761D01*
X229838142Y-41981380D01*
X230123857Y-41981380D01*
X230219095Y-41933761D01*
X230266714Y-41886142D01*
X229314333Y-40981380D02*
X228695285Y-40981380D01*
X229028619Y-41362333D01*
X228885761Y-41362333D01*
X228790523Y-41409952D01*
X228742904Y-41457571D01*
X228695285Y-41552809D01*
X228695285Y-41790904D01*
X228742904Y-41886142D01*
X228790523Y-41933761D01*
X228885761Y-41981380D01*
X229171476Y-41981380D01*
X229266714Y-41933761D01*
X229314333Y-41886142D01*
X228076238Y-40981380D02*
X227981000Y-40981380D01*
X227885761Y-41029000D01*
X227838142Y-41076619D01*
X227790523Y-41171857D01*
X227742904Y-41362333D01*
X227742904Y-41600428D01*
X227790523Y-41790904D01*
X227838142Y-41886142D01*
X227885761Y-41933761D01*
X227981000Y-41981380D01*
X228076238Y-41981380D01*
X228171476Y-41933761D01*
X228219095Y-41886142D01*
X228266714Y-41790904D01*
X228314333Y-41600428D01*
X228314333Y-41362333D01*
X228266714Y-41171857D01*
X228219095Y-41076619D01*
X228171476Y-41029000D01*
X228076238Y-40981380D01*
X226964714Y-40981380D02*
X226345666Y-40981380D01*
X226679000Y-41362333D01*
X226536142Y-41362333D01*
X226440904Y-41409952D01*
X226393285Y-41457571D01*
X226345666Y-41552809D01*
X226345666Y-41790904D01*
X226393285Y-41886142D01*
X226440904Y-41933761D01*
X226536142Y-41981380D01*
X226821857Y-41981380D01*
X226917095Y-41933761D01*
X226964714Y-41886142D01*
X226012333Y-40981380D02*
X225393285Y-40981380D01*
X225726619Y-41362333D01*
X225583761Y-41362333D01*
X225488523Y-41409952D01*
X225440904Y-41457571D01*
X225393285Y-41552809D01*
X225393285Y-41790904D01*
X225440904Y-41886142D01*
X225488523Y-41933761D01*
X225583761Y-41981380D01*
X225869476Y-41981380D01*
X225964714Y-41933761D01*
X226012333Y-41886142D01*
X224774238Y-40981380D02*
X224679000Y-40981380D01*
X224583761Y-41029000D01*
X224536142Y-41076619D01*
X224488523Y-41171857D01*
X224440904Y-41362333D01*
X224440904Y-41600428D01*
X224488523Y-41790904D01*
X224536142Y-41886142D01*
X224583761Y-41933761D01*
X224679000Y-41981380D01*
X224774238Y-41981380D01*
X224869476Y-41933761D01*
X224917095Y-41886142D01*
X224964714Y-41790904D01*
X225012333Y-41600428D01*
X225012333Y-41362333D01*
X224964714Y-41171857D01*
X224917095Y-41076619D01*
X224869476Y-41029000D01*
X224774238Y-40981380D01*
X223154714Y-41108380D02*
X222535666Y-41108380D01*
X222869000Y-41489333D01*
X222726142Y-41489333D01*
X222630904Y-41536952D01*
X222583285Y-41584571D01*
X222535666Y-41679809D01*
X222535666Y-41917904D01*
X222583285Y-42013142D01*
X222630904Y-42060761D01*
X222726142Y-42108380D01*
X223011857Y-42108380D01*
X223107095Y-42060761D01*
X223154714Y-42013142D01*
X222202333Y-41108380D02*
X221583285Y-41108380D01*
X221916619Y-41489333D01*
X221773761Y-41489333D01*
X221678523Y-41536952D01*
X221630904Y-41584571D01*
X221583285Y-41679809D01*
X221583285Y-41917904D01*
X221630904Y-42013142D01*
X221678523Y-42060761D01*
X221773761Y-42108380D01*
X222059476Y-42108380D01*
X222154714Y-42060761D01*
X222202333Y-42013142D01*
X220964238Y-41108380D02*
X220869000Y-41108380D01*
X220773761Y-41156000D01*
X220726142Y-41203619D01*
X220678523Y-41298857D01*
X220630904Y-41489333D01*
X220630904Y-41727428D01*
X220678523Y-41917904D01*
X220726142Y-42013142D01*
X220773761Y-42060761D01*
X220869000Y-42108380D01*
X220964238Y-42108380D01*
X221059476Y-42060761D01*
X221107095Y-42013142D01*
X221154714Y-41917904D01*
X221202333Y-41727428D01*
X221202333Y-41489333D01*
X221154714Y-41298857D01*
X221107095Y-41203619D01*
X221059476Y-41156000D01*
X220964238Y-41108380D01*
X219598714Y-40981380D02*
X218979666Y-40981380D01*
X219313000Y-41362333D01*
X219170142Y-41362333D01*
X219074904Y-41409952D01*
X219027285Y-41457571D01*
X218979666Y-41552809D01*
X218979666Y-41790904D01*
X219027285Y-41886142D01*
X219074904Y-41933761D01*
X219170142Y-41981380D01*
X219455857Y-41981380D01*
X219551095Y-41933761D01*
X219598714Y-41886142D01*
X218646333Y-40981380D02*
X218027285Y-40981380D01*
X218360619Y-41362333D01*
X218217761Y-41362333D01*
X218122523Y-41409952D01*
X218074904Y-41457571D01*
X218027285Y-41552809D01*
X218027285Y-41790904D01*
X218074904Y-41886142D01*
X218122523Y-41933761D01*
X218217761Y-41981380D01*
X218503476Y-41981380D01*
X218598714Y-41933761D01*
X218646333Y-41886142D01*
X217408238Y-40981380D02*
X217313000Y-40981380D01*
X217217761Y-41029000D01*
X217170142Y-41076619D01*
X217122523Y-41171857D01*
X217074904Y-41362333D01*
X217074904Y-41600428D01*
X217122523Y-41790904D01*
X217170142Y-41886142D01*
X217217761Y-41933761D01*
X217313000Y-41981380D01*
X217408238Y-41981380D01*
X217503476Y-41933761D01*
X217551095Y-41886142D01*
X217598714Y-41790904D01*
X217646333Y-41600428D01*
X217646333Y-41362333D01*
X217598714Y-41171857D01*
X217551095Y-41076619D01*
X217503476Y-41029000D01*
X217408238Y-40981380D01*
X216169714Y-40981380D02*
X215550666Y-40981380D01*
X215884000Y-41362333D01*
X215741142Y-41362333D01*
X215645904Y-41409952D01*
X215598285Y-41457571D01*
X215550666Y-41552809D01*
X215550666Y-41790904D01*
X215598285Y-41886142D01*
X215645904Y-41933761D01*
X215741142Y-41981380D01*
X216026857Y-41981380D01*
X216122095Y-41933761D01*
X216169714Y-41886142D01*
X215217333Y-40981380D02*
X214598285Y-40981380D01*
X214931619Y-41362333D01*
X214788761Y-41362333D01*
X214693523Y-41409952D01*
X214645904Y-41457571D01*
X214598285Y-41552809D01*
X214598285Y-41790904D01*
X214645904Y-41886142D01*
X214693523Y-41933761D01*
X214788761Y-41981380D01*
X215074476Y-41981380D01*
X215169714Y-41933761D01*
X215217333Y-41886142D01*
X213979238Y-40981380D02*
X213884000Y-40981380D01*
X213788761Y-41029000D01*
X213741142Y-41076619D01*
X213693523Y-41171857D01*
X213645904Y-41362333D01*
X213645904Y-41600428D01*
X213693523Y-41790904D01*
X213741142Y-41886142D01*
X213788761Y-41933761D01*
X213884000Y-41981380D01*
X213979238Y-41981380D01*
X214074476Y-41933761D01*
X214122095Y-41886142D01*
X214169714Y-41790904D01*
X214217333Y-41600428D01*
X214217333Y-41362333D01*
X214169714Y-41171857D01*
X214122095Y-41076619D01*
X214074476Y-41029000D01*
X213979238Y-40981380D01*
X212232714Y-40981380D02*
X211613666Y-40981380D01*
X211947000Y-41362333D01*
X211804142Y-41362333D01*
X211708904Y-41409952D01*
X211661285Y-41457571D01*
X211613666Y-41552809D01*
X211613666Y-41790904D01*
X211661285Y-41886142D01*
X211708904Y-41933761D01*
X211804142Y-41981380D01*
X212089857Y-41981380D01*
X212185095Y-41933761D01*
X212232714Y-41886142D01*
X211280333Y-40981380D02*
X210661285Y-40981380D01*
X210994619Y-41362333D01*
X210851761Y-41362333D01*
X210756523Y-41409952D01*
X210708904Y-41457571D01*
X210661285Y-41552809D01*
X210661285Y-41790904D01*
X210708904Y-41886142D01*
X210756523Y-41933761D01*
X210851761Y-41981380D01*
X211137476Y-41981380D01*
X211232714Y-41933761D01*
X211280333Y-41886142D01*
X210042238Y-40981380D02*
X209947000Y-40981380D01*
X209851761Y-41029000D01*
X209804142Y-41076619D01*
X209756523Y-41171857D01*
X209708904Y-41362333D01*
X209708904Y-41600428D01*
X209756523Y-41790904D01*
X209804142Y-41886142D01*
X209851761Y-41933761D01*
X209947000Y-41981380D01*
X210042238Y-41981380D01*
X210137476Y-41933761D01*
X210185095Y-41886142D01*
X210232714Y-41790904D01*
X210280333Y-41600428D01*
X210280333Y-41362333D01*
X210232714Y-41171857D01*
X210185095Y-41076619D01*
X210137476Y-41029000D01*
X210042238Y-40981380D01*
X239355380Y-46117095D02*
X239355380Y-46736142D01*
X239736333Y-46402809D01*
X239736333Y-46545666D01*
X239783952Y-46640904D01*
X239831571Y-46688523D01*
X239926809Y-46736142D01*
X240164904Y-46736142D01*
X240260142Y-46688523D01*
X240307761Y-46640904D01*
X240355380Y-46545666D01*
X240355380Y-46259952D01*
X240307761Y-46164714D01*
X240260142Y-46117095D01*
X240355380Y-47212333D02*
X240355380Y-47402809D01*
X240307761Y-47498047D01*
X240260142Y-47545666D01*
X240117285Y-47640904D01*
X239926809Y-47688523D01*
X239545857Y-47688523D01*
X239450619Y-47640904D01*
X239403000Y-47593285D01*
X239355380Y-47498047D01*
X239355380Y-47307571D01*
X239403000Y-47212333D01*
X239450619Y-47164714D01*
X239545857Y-47117095D01*
X239783952Y-47117095D01*
X239879190Y-47164714D01*
X239926809Y-47212333D01*
X239974428Y-47307571D01*
X239974428Y-47498047D01*
X239926809Y-47593285D01*
X239879190Y-47640904D01*
X239783952Y-47688523D01*
X239355380Y-48307571D02*
X239355380Y-48402809D01*
X239403000Y-48498047D01*
X239450619Y-48545666D01*
X239545857Y-48593285D01*
X239736333Y-48640904D01*
X239974428Y-48640904D01*
X240164904Y-48593285D01*
X240260142Y-48545666D01*
X240307761Y-48498047D01*
X240355380Y-48402809D01*
X240355380Y-48307571D01*
X240307761Y-48212333D01*
X240260142Y-48164714D01*
X240164904Y-48117095D01*
X239974428Y-48069476D01*
X239736333Y-48069476D01*
X239545857Y-48117095D01*
X239450619Y-48164714D01*
X239403000Y-48212333D01*
X239355380Y-48307571D01*
X239355380Y-49498047D02*
X239355380Y-49307571D01*
X239403000Y-49212333D01*
X239450619Y-49164714D01*
X239593476Y-49069476D01*
X239783952Y-49021857D01*
X240164904Y-49021857D01*
X240260142Y-49069476D01*
X240307761Y-49117095D01*
X240355380Y-49212333D01*
X240355380Y-49402809D01*
X240307761Y-49498047D01*
X240260142Y-49545666D01*
X240164904Y-49593285D01*
X239926809Y-49593285D01*
X239831571Y-49545666D01*
X239783952Y-49498047D01*
X239736333Y-49402809D01*
X239736333Y-49212333D01*
X239783952Y-49117095D01*
X239831571Y-49069476D01*
X239926809Y-49021857D01*
X206843380Y-45101095D02*
X206843380Y-45720142D01*
X207224333Y-45386809D01*
X207224333Y-45529666D01*
X207271952Y-45624904D01*
X207319571Y-45672523D01*
X207414809Y-45720142D01*
X207652904Y-45720142D01*
X207748142Y-45672523D01*
X207795761Y-45624904D01*
X207843380Y-45529666D01*
X207843380Y-45243952D01*
X207795761Y-45148714D01*
X207748142Y-45101095D01*
X207843380Y-46196333D02*
X207843380Y-46386809D01*
X207795761Y-46482047D01*
X207748142Y-46529666D01*
X207605285Y-46624904D01*
X207414809Y-46672523D01*
X207033857Y-46672523D01*
X206938619Y-46624904D01*
X206891000Y-46577285D01*
X206843380Y-46482047D01*
X206843380Y-46291571D01*
X206891000Y-46196333D01*
X206938619Y-46148714D01*
X207033857Y-46101095D01*
X207271952Y-46101095D01*
X207367190Y-46148714D01*
X207414809Y-46196333D01*
X207462428Y-46291571D01*
X207462428Y-46482047D01*
X207414809Y-46577285D01*
X207367190Y-46624904D01*
X207271952Y-46672523D01*
X206843380Y-47291571D02*
X206843380Y-47386809D01*
X206891000Y-47482047D01*
X206938619Y-47529666D01*
X207033857Y-47577285D01*
X207224333Y-47624904D01*
X207462428Y-47624904D01*
X207652904Y-47577285D01*
X207748142Y-47529666D01*
X207795761Y-47482047D01*
X207843380Y-47386809D01*
X207843380Y-47291571D01*
X207795761Y-47196333D01*
X207748142Y-47148714D01*
X207652904Y-47101095D01*
X207462428Y-47053476D01*
X207224333Y-47053476D01*
X207033857Y-47101095D01*
X206938619Y-47148714D01*
X206891000Y-47196333D01*
X206843380Y-47291571D01*
X206843380Y-48482047D02*
X206843380Y-48291571D01*
X206891000Y-48196333D01*
X206938619Y-48148714D01*
X207081476Y-48053476D01*
X207271952Y-48005857D01*
X207652904Y-48005857D01*
X207748142Y-48053476D01*
X207795761Y-48101095D01*
X207843380Y-48196333D01*
X207843380Y-48386809D01*
X207795761Y-48482047D01*
X207748142Y-48529666D01*
X207652904Y-48577285D01*
X207414809Y-48577285D01*
X207319571Y-48529666D01*
X207271952Y-48482047D01*
X207224333Y-48386809D01*
X207224333Y-48196333D01*
X207271952Y-48101095D01*
X207319571Y-48053476D01*
X207414809Y-48005857D01*
X235783380Y-50426952D02*
X235783380Y-49855523D01*
X235783380Y-50141238D02*
X234783380Y-50141238D01*
X234926238Y-50046000D01*
X235021476Y-49950761D01*
X235069095Y-49855523D01*
X235783380Y-50855523D02*
X234783380Y-50855523D01*
X235402428Y-50950761D02*
X235783380Y-51236476D01*
X235116714Y-51236476D02*
X235497666Y-50855523D01*
X231973380Y-50426952D02*
X231973380Y-49855523D01*
X231973380Y-50141238D02*
X230973380Y-50141238D01*
X231116238Y-50046000D01*
X231211476Y-49950761D01*
X231259095Y-49855523D01*
X231973380Y-50855523D02*
X230973380Y-50855523D01*
X231592428Y-50950761D02*
X231973380Y-51236476D01*
X231306714Y-51236476D02*
X231687666Y-50855523D01*
X228544380Y-50426952D02*
X228544380Y-49855523D01*
X228544380Y-50141238D02*
X227544380Y-50141238D01*
X227687238Y-50046000D01*
X227782476Y-49950761D01*
X227830095Y-49855523D01*
X228544380Y-50855523D02*
X227544380Y-50855523D01*
X228163428Y-50950761D02*
X228544380Y-51236476D01*
X227877714Y-51236476D02*
X228258666Y-50855523D01*
X224861380Y-50172952D02*
X224861380Y-49601523D01*
X224861380Y-49887238D02*
X223861380Y-49887238D01*
X224004238Y-49792000D01*
X224099476Y-49696761D01*
X224147095Y-49601523D01*
X224861380Y-50601523D02*
X223861380Y-50601523D01*
X224480428Y-50696761D02*
X224861380Y-50982476D01*
X224194714Y-50982476D02*
X224575666Y-50601523D01*
X221305380Y-50172952D02*
X221305380Y-49601523D01*
X221305380Y-49887238D02*
X220305380Y-49887238D01*
X220448238Y-49792000D01*
X220543476Y-49696761D01*
X220591095Y-49601523D01*
X221305380Y-50601523D02*
X220305380Y-50601523D01*
X220924428Y-50696761D02*
X221305380Y-50982476D01*
X220638714Y-50982476D02*
X221019666Y-50601523D01*
X217749380Y-50172952D02*
X217749380Y-49601523D01*
X217749380Y-49887238D02*
X216749380Y-49887238D01*
X216892238Y-49792000D01*
X216987476Y-49696761D01*
X217035095Y-49601523D01*
X217749380Y-50601523D02*
X216749380Y-50601523D01*
X217368428Y-50696761D02*
X217749380Y-50982476D01*
X217082714Y-50982476D02*
X217463666Y-50601523D01*
X214193380Y-50172952D02*
X214193380Y-49601523D01*
X214193380Y-49887238D02*
X213193380Y-49887238D01*
X213336238Y-49792000D01*
X213431476Y-49696761D01*
X213479095Y-49601523D01*
X214193380Y-50601523D02*
X213193380Y-50601523D01*
X213812428Y-50696761D02*
X214193380Y-50982476D01*
X213526714Y-50982476D02*
X213907666Y-50601523D01*
X210383380Y-50172952D02*
X210383380Y-49601523D01*
X210383380Y-49887238D02*
X209383380Y-49887238D01*
X209526238Y-49792000D01*
X209621476Y-49696761D01*
X209669095Y-49601523D01*
X210383380Y-50601523D02*
X209383380Y-50601523D01*
X210002428Y-50696761D02*
X210383380Y-50982476D01*
X209716714Y-50982476D02*
X210097666Y-50601523D01*
X222083380Y-15129095D02*
X222083380Y-15748142D01*
X222464333Y-15414809D01*
X222464333Y-15557666D01*
X222511952Y-15652904D01*
X222559571Y-15700523D01*
X222654809Y-15748142D01*
X222892904Y-15748142D01*
X222988142Y-15700523D01*
X223035761Y-15652904D01*
X223083380Y-15557666D01*
X223083380Y-15271952D01*
X223035761Y-15176714D01*
X222988142Y-15129095D01*
X223083380Y-16224333D02*
X223083380Y-16414809D01*
X223035761Y-16510047D01*
X222988142Y-16557666D01*
X222845285Y-16652904D01*
X222654809Y-16700523D01*
X222273857Y-16700523D01*
X222178619Y-16652904D01*
X222131000Y-16605285D01*
X222083380Y-16510047D01*
X222083380Y-16319571D01*
X222131000Y-16224333D01*
X222178619Y-16176714D01*
X222273857Y-16129095D01*
X222511952Y-16129095D01*
X222607190Y-16176714D01*
X222654809Y-16224333D01*
X222702428Y-16319571D01*
X222702428Y-16510047D01*
X222654809Y-16605285D01*
X222607190Y-16652904D01*
X222511952Y-16700523D01*
X222083380Y-17319571D02*
X222083380Y-17414809D01*
X222131000Y-17510047D01*
X222178619Y-17557666D01*
X222273857Y-17605285D01*
X222464333Y-17652904D01*
X222702428Y-17652904D01*
X222892904Y-17605285D01*
X222988142Y-17557666D01*
X223035761Y-17510047D01*
X223083380Y-17414809D01*
X223083380Y-17319571D01*
X223035761Y-17224333D01*
X222988142Y-17176714D01*
X222892904Y-17129095D01*
X222702428Y-17081476D01*
X222464333Y-17081476D01*
X222273857Y-17129095D01*
X222178619Y-17176714D01*
X222131000Y-17224333D01*
X222083380Y-17319571D01*
X222083380Y-18510047D02*
X222083380Y-18319571D01*
X222131000Y-18224333D01*
X222178619Y-18176714D01*
X222321476Y-18081476D01*
X222511952Y-18033857D01*
X222892904Y-18033857D01*
X222988142Y-18081476D01*
X223035761Y-18129095D01*
X223083380Y-18224333D01*
X223083380Y-18414809D01*
X223035761Y-18510047D01*
X222988142Y-18557666D01*
X222892904Y-18605285D01*
X222654809Y-18605285D01*
X222559571Y-18557666D01*
X222511952Y-18510047D01*
X222464333Y-18414809D01*
X222464333Y-18224333D01*
X222511952Y-18129095D01*
X222559571Y-18081476D01*
X222654809Y-18033857D01*
X216114380Y-24527095D02*
X216114380Y-25146142D01*
X216495333Y-24812809D01*
X216495333Y-24955666D01*
X216542952Y-25050904D01*
X216590571Y-25098523D01*
X216685809Y-25146142D01*
X216923904Y-25146142D01*
X217019142Y-25098523D01*
X217066761Y-25050904D01*
X217114380Y-24955666D01*
X217114380Y-24669952D01*
X217066761Y-24574714D01*
X217019142Y-24527095D01*
X217114380Y-25622333D02*
X217114380Y-25812809D01*
X217066761Y-25908047D01*
X217019142Y-25955666D01*
X216876285Y-26050904D01*
X216685809Y-26098523D01*
X216304857Y-26098523D01*
X216209619Y-26050904D01*
X216162000Y-26003285D01*
X216114380Y-25908047D01*
X216114380Y-25717571D01*
X216162000Y-25622333D01*
X216209619Y-25574714D01*
X216304857Y-25527095D01*
X216542952Y-25527095D01*
X216638190Y-25574714D01*
X216685809Y-25622333D01*
X216733428Y-25717571D01*
X216733428Y-25908047D01*
X216685809Y-26003285D01*
X216638190Y-26050904D01*
X216542952Y-26098523D01*
X216114380Y-26717571D02*
X216114380Y-26812809D01*
X216162000Y-26908047D01*
X216209619Y-26955666D01*
X216304857Y-27003285D01*
X216495333Y-27050904D01*
X216733428Y-27050904D01*
X216923904Y-27003285D01*
X217019142Y-26955666D01*
X217066761Y-26908047D01*
X217114380Y-26812809D01*
X217114380Y-26717571D01*
X217066761Y-26622333D01*
X217019142Y-26574714D01*
X216923904Y-26527095D01*
X216733428Y-26479476D01*
X216495333Y-26479476D01*
X216304857Y-26527095D01*
X216209619Y-26574714D01*
X216162000Y-26622333D01*
X216114380Y-26717571D01*
X216114380Y-27908047D02*
X216114380Y-27717571D01*
X216162000Y-27622333D01*
X216209619Y-27574714D01*
X216352476Y-27479476D01*
X216542952Y-27431857D01*
X216923904Y-27431857D01*
X217019142Y-27479476D01*
X217066761Y-27527095D01*
X217114380Y-27622333D01*
X217114380Y-27812809D01*
X217066761Y-27908047D01*
X217019142Y-27955666D01*
X216923904Y-28003285D01*
X216685809Y-28003285D01*
X216590571Y-27955666D01*
X216542952Y-27908047D01*
X216495333Y-27812809D01*
X216495333Y-27622333D01*
X216542952Y-27527095D01*
X216590571Y-27479476D01*
X216685809Y-27431857D01*
X229068380Y-19955095D02*
X229068380Y-20574142D01*
X229449333Y-20240809D01*
X229449333Y-20383666D01*
X229496952Y-20478904D01*
X229544571Y-20526523D01*
X229639809Y-20574142D01*
X229877904Y-20574142D01*
X229973142Y-20526523D01*
X230020761Y-20478904D01*
X230068380Y-20383666D01*
X230068380Y-20097952D01*
X230020761Y-20002714D01*
X229973142Y-19955095D01*
X230068380Y-21050333D02*
X230068380Y-21240809D01*
X230020761Y-21336047D01*
X229973142Y-21383666D01*
X229830285Y-21478904D01*
X229639809Y-21526523D01*
X229258857Y-21526523D01*
X229163619Y-21478904D01*
X229116000Y-21431285D01*
X229068380Y-21336047D01*
X229068380Y-21145571D01*
X229116000Y-21050333D01*
X229163619Y-21002714D01*
X229258857Y-20955095D01*
X229496952Y-20955095D01*
X229592190Y-21002714D01*
X229639809Y-21050333D01*
X229687428Y-21145571D01*
X229687428Y-21336047D01*
X229639809Y-21431285D01*
X229592190Y-21478904D01*
X229496952Y-21526523D01*
X229068380Y-22145571D02*
X229068380Y-22240809D01*
X229116000Y-22336047D01*
X229163619Y-22383666D01*
X229258857Y-22431285D01*
X229449333Y-22478904D01*
X229687428Y-22478904D01*
X229877904Y-22431285D01*
X229973142Y-22383666D01*
X230020761Y-22336047D01*
X230068380Y-22240809D01*
X230068380Y-22145571D01*
X230020761Y-22050333D01*
X229973142Y-22002714D01*
X229877904Y-21955095D01*
X229687428Y-21907476D01*
X229449333Y-21907476D01*
X229258857Y-21955095D01*
X229163619Y-22002714D01*
X229116000Y-22050333D01*
X229068380Y-22145571D01*
X229068380Y-23336047D02*
X229068380Y-23145571D01*
X229116000Y-23050333D01*
X229163619Y-23002714D01*
X229306476Y-22907476D01*
X229496952Y-22859857D01*
X229877904Y-22859857D01*
X229973142Y-22907476D01*
X230020761Y-22955095D01*
X230068380Y-23050333D01*
X230068380Y-23240809D01*
X230020761Y-23336047D01*
X229973142Y-23383666D01*
X229877904Y-23431285D01*
X229639809Y-23431285D01*
X229544571Y-23383666D01*
X229496952Y-23336047D01*
X229449333Y-23240809D01*
X229449333Y-23050333D01*
X229496952Y-22955095D01*
X229544571Y-22907476D01*
X229639809Y-22859857D01*
X192079619Y-15065714D02*
X192032000Y-15113333D01*
X191984380Y-15208571D01*
X191984380Y-15446666D01*
X192032000Y-15541904D01*
X192079619Y-15589523D01*
X192174857Y-15637142D01*
X192270095Y-15637142D01*
X192412952Y-15589523D01*
X192984380Y-15018095D01*
X192984380Y-15637142D01*
X192984380Y-16065714D02*
X191984380Y-16065714D01*
X192984380Y-16637142D01*
X191984380Y-16637142D01*
X191984380Y-17018095D02*
X191984380Y-17684761D01*
X192984380Y-17256190D01*
X191984380Y-18256190D02*
X191984380Y-18351428D01*
X192032000Y-18446666D01*
X192079619Y-18494285D01*
X192174857Y-18541904D01*
X192365333Y-18589523D01*
X192603428Y-18589523D01*
X192793904Y-18541904D01*
X192889142Y-18494285D01*
X192936761Y-18446666D01*
X192984380Y-18351428D01*
X192984380Y-18256190D01*
X192936761Y-18160952D01*
X192889142Y-18113333D01*
X192793904Y-18065714D01*
X192603428Y-18018095D01*
X192365333Y-18018095D01*
X192174857Y-18065714D01*
X192079619Y-18113333D01*
X192032000Y-18160952D01*
X191984380Y-18256190D01*
X191984380Y-19208571D02*
X191984380Y-19303809D01*
X192032000Y-19399047D01*
X192079619Y-19446666D01*
X192174857Y-19494285D01*
X192365333Y-19541904D01*
X192603428Y-19541904D01*
X192793904Y-19494285D01*
X192889142Y-19446666D01*
X192936761Y-19399047D01*
X192984380Y-19303809D01*
X192984380Y-19208571D01*
X192936761Y-19113333D01*
X192889142Y-19065714D01*
X192793904Y-19018095D01*
X192603428Y-18970476D01*
X192365333Y-18970476D01*
X192174857Y-19018095D01*
X192079619Y-19065714D01*
X192032000Y-19113333D01*
X191984380Y-19208571D01*
X192079619Y-19922857D02*
X192032000Y-19970476D01*
X191984380Y-20065714D01*
X191984380Y-20303809D01*
X192032000Y-20399047D01*
X192079619Y-20446666D01*
X192174857Y-20494285D01*
X192270095Y-20494285D01*
X192412952Y-20446666D01*
X192984380Y-19875238D01*
X192984380Y-20494285D01*
X191698619Y-28908714D02*
X191651000Y-28956333D01*
X191603380Y-29051571D01*
X191603380Y-29289666D01*
X191651000Y-29384904D01*
X191698619Y-29432523D01*
X191793857Y-29480142D01*
X191889095Y-29480142D01*
X192031952Y-29432523D01*
X192603380Y-28861095D01*
X192603380Y-29480142D01*
X192603380Y-29908714D02*
X191603380Y-29908714D01*
X192603380Y-30480142D01*
X191603380Y-30480142D01*
X191603380Y-30861095D02*
X191603380Y-31527761D01*
X192603380Y-31099190D01*
X191603380Y-32099190D02*
X191603380Y-32194428D01*
X191651000Y-32289666D01*
X191698619Y-32337285D01*
X191793857Y-32384904D01*
X191984333Y-32432523D01*
X192222428Y-32432523D01*
X192412904Y-32384904D01*
X192508142Y-32337285D01*
X192555761Y-32289666D01*
X192603380Y-32194428D01*
X192603380Y-32099190D01*
X192555761Y-32003952D01*
X192508142Y-31956333D01*
X192412904Y-31908714D01*
X192222428Y-31861095D01*
X191984333Y-31861095D01*
X191793857Y-31908714D01*
X191698619Y-31956333D01*
X191651000Y-32003952D01*
X191603380Y-32099190D01*
X191603380Y-33051571D02*
X191603380Y-33146809D01*
X191651000Y-33242047D01*
X191698619Y-33289666D01*
X191793857Y-33337285D01*
X191984333Y-33384904D01*
X192222428Y-33384904D01*
X192412904Y-33337285D01*
X192508142Y-33289666D01*
X192555761Y-33242047D01*
X192603380Y-33146809D01*
X192603380Y-33051571D01*
X192555761Y-32956333D01*
X192508142Y-32908714D01*
X192412904Y-32861095D01*
X192222428Y-32813476D01*
X191984333Y-32813476D01*
X191793857Y-32861095D01*
X191698619Y-32908714D01*
X191651000Y-32956333D01*
X191603380Y-33051571D01*
X191698619Y-33765857D02*
X191651000Y-33813476D01*
X191603380Y-33908714D01*
X191603380Y-34146809D01*
X191651000Y-34242047D01*
X191698619Y-34289666D01*
X191793857Y-34337285D01*
X191889095Y-34337285D01*
X192031952Y-34289666D01*
X192603380Y-33718238D01*
X192603380Y-34337285D01*
X212812380Y-23225285D02*
X212812380Y-23844333D01*
X213193333Y-23511000D01*
X213193333Y-23653857D01*
X213240952Y-23749095D01*
X213288571Y-23796714D01*
X213383809Y-23844333D01*
X213621904Y-23844333D01*
X213717142Y-23796714D01*
X213764761Y-23749095D01*
X213812380Y-23653857D01*
X213812380Y-23368142D01*
X213764761Y-23272904D01*
X213717142Y-23225285D01*
X212812380Y-24177666D02*
X212812380Y-24796714D01*
X213193333Y-24463380D01*
X213193333Y-24606238D01*
X213240952Y-24701476D01*
X213288571Y-24749095D01*
X213383809Y-24796714D01*
X213621904Y-24796714D01*
X213717142Y-24749095D01*
X213764761Y-24701476D01*
X213812380Y-24606238D01*
X213812380Y-24320523D01*
X213764761Y-24225285D01*
X213717142Y-24177666D01*
X212812380Y-25415761D02*
X212812380Y-25511000D01*
X212860000Y-25606238D01*
X212907619Y-25653857D01*
X213002857Y-25701476D01*
X213193333Y-25749095D01*
X213431428Y-25749095D01*
X213621904Y-25701476D01*
X213717142Y-25653857D01*
X213764761Y-25606238D01*
X213812380Y-25511000D01*
X213812380Y-25415761D01*
X213764761Y-25320523D01*
X213717142Y-25272904D01*
X213621904Y-25225285D01*
X213431428Y-25177666D01*
X213193333Y-25177666D01*
X213002857Y-25225285D01*
X212907619Y-25272904D01*
X212860000Y-25320523D01*
X212812380Y-25415761D01*
X210399380Y-23098285D02*
X210399380Y-23717333D01*
X210780333Y-23384000D01*
X210780333Y-23526857D01*
X210827952Y-23622095D01*
X210875571Y-23669714D01*
X210970809Y-23717333D01*
X211208904Y-23717333D01*
X211304142Y-23669714D01*
X211351761Y-23622095D01*
X211399380Y-23526857D01*
X211399380Y-23241142D01*
X211351761Y-23145904D01*
X211304142Y-23098285D01*
X210399380Y-24050666D02*
X210399380Y-24669714D01*
X210780333Y-24336380D01*
X210780333Y-24479238D01*
X210827952Y-24574476D01*
X210875571Y-24622095D01*
X210970809Y-24669714D01*
X211208904Y-24669714D01*
X211304142Y-24622095D01*
X211351761Y-24574476D01*
X211399380Y-24479238D01*
X211399380Y-24193523D01*
X211351761Y-24098285D01*
X211304142Y-24050666D01*
X210399380Y-25288761D02*
X210399380Y-25384000D01*
X210447000Y-25479238D01*
X210494619Y-25526857D01*
X210589857Y-25574476D01*
X210780333Y-25622095D01*
X211018428Y-25622095D01*
X211208904Y-25574476D01*
X211304142Y-25526857D01*
X211351761Y-25479238D01*
X211399380Y-25384000D01*
X211399380Y-25288761D01*
X211351761Y-25193523D01*
X211304142Y-25145904D01*
X211208904Y-25098285D01*
X211018428Y-25050666D01*
X210780333Y-25050666D01*
X210589857Y-25098285D01*
X210494619Y-25145904D01*
X210447000Y-25193523D01*
X210399380Y-25288761D01*
X207732380Y-23225285D02*
X207732380Y-23844333D01*
X208113333Y-23511000D01*
X208113333Y-23653857D01*
X208160952Y-23749095D01*
X208208571Y-23796714D01*
X208303809Y-23844333D01*
X208541904Y-23844333D01*
X208637142Y-23796714D01*
X208684761Y-23749095D01*
X208732380Y-23653857D01*
X208732380Y-23368142D01*
X208684761Y-23272904D01*
X208637142Y-23225285D01*
X207732380Y-24177666D02*
X207732380Y-24796714D01*
X208113333Y-24463380D01*
X208113333Y-24606238D01*
X208160952Y-24701476D01*
X208208571Y-24749095D01*
X208303809Y-24796714D01*
X208541904Y-24796714D01*
X208637142Y-24749095D01*
X208684761Y-24701476D01*
X208732380Y-24606238D01*
X208732380Y-24320523D01*
X208684761Y-24225285D01*
X208637142Y-24177666D01*
X207732380Y-25415761D02*
X207732380Y-25511000D01*
X207780000Y-25606238D01*
X207827619Y-25653857D01*
X207922857Y-25701476D01*
X208113333Y-25749095D01*
X208351428Y-25749095D01*
X208541904Y-25701476D01*
X208637142Y-25653857D01*
X208684761Y-25606238D01*
X208732380Y-25511000D01*
X208732380Y-25415761D01*
X208684761Y-25320523D01*
X208637142Y-25272904D01*
X208541904Y-25225285D01*
X208351428Y-25177666D01*
X208113333Y-25177666D01*
X207922857Y-25225285D01*
X207827619Y-25272904D01*
X207780000Y-25320523D01*
X207732380Y-25415761D01*
X204938380Y-23225285D02*
X204938380Y-23844333D01*
X205319333Y-23511000D01*
X205319333Y-23653857D01*
X205366952Y-23749095D01*
X205414571Y-23796714D01*
X205509809Y-23844333D01*
X205747904Y-23844333D01*
X205843142Y-23796714D01*
X205890761Y-23749095D01*
X205938380Y-23653857D01*
X205938380Y-23368142D01*
X205890761Y-23272904D01*
X205843142Y-23225285D01*
X204938380Y-24177666D02*
X204938380Y-24796714D01*
X205319333Y-24463380D01*
X205319333Y-24606238D01*
X205366952Y-24701476D01*
X205414571Y-24749095D01*
X205509809Y-24796714D01*
X205747904Y-24796714D01*
X205843142Y-24749095D01*
X205890761Y-24701476D01*
X205938380Y-24606238D01*
X205938380Y-24320523D01*
X205890761Y-24225285D01*
X205843142Y-24177666D01*
X204938380Y-25415761D02*
X204938380Y-25511000D01*
X204986000Y-25606238D01*
X205033619Y-25653857D01*
X205128857Y-25701476D01*
X205319333Y-25749095D01*
X205557428Y-25749095D01*
X205747904Y-25701476D01*
X205843142Y-25653857D01*
X205890761Y-25606238D01*
X205938380Y-25511000D01*
X205938380Y-25415761D01*
X205890761Y-25320523D01*
X205843142Y-25272904D01*
X205747904Y-25225285D01*
X205557428Y-25177666D01*
X205319333Y-25177666D01*
X205128857Y-25225285D01*
X205033619Y-25272904D01*
X204986000Y-25320523D01*
X204938380Y-25415761D01*
X202652380Y-23225285D02*
X202652380Y-23844333D01*
X203033333Y-23511000D01*
X203033333Y-23653857D01*
X203080952Y-23749095D01*
X203128571Y-23796714D01*
X203223809Y-23844333D01*
X203461904Y-23844333D01*
X203557142Y-23796714D01*
X203604761Y-23749095D01*
X203652380Y-23653857D01*
X203652380Y-23368142D01*
X203604761Y-23272904D01*
X203557142Y-23225285D01*
X202652380Y-24177666D02*
X202652380Y-24796714D01*
X203033333Y-24463380D01*
X203033333Y-24606238D01*
X203080952Y-24701476D01*
X203128571Y-24749095D01*
X203223809Y-24796714D01*
X203461904Y-24796714D01*
X203557142Y-24749095D01*
X203604761Y-24701476D01*
X203652380Y-24606238D01*
X203652380Y-24320523D01*
X203604761Y-24225285D01*
X203557142Y-24177666D01*
X202652380Y-25415761D02*
X202652380Y-25511000D01*
X202700000Y-25606238D01*
X202747619Y-25653857D01*
X202842857Y-25701476D01*
X203033333Y-25749095D01*
X203271428Y-25749095D01*
X203461904Y-25701476D01*
X203557142Y-25653857D01*
X203604761Y-25606238D01*
X203652380Y-25511000D01*
X203652380Y-25415761D01*
X203604761Y-25320523D01*
X203557142Y-25272904D01*
X203461904Y-25225285D01*
X203271428Y-25177666D01*
X203033333Y-25177666D01*
X202842857Y-25225285D01*
X202747619Y-25272904D01*
X202700000Y-25320523D01*
X202652380Y-25415761D01*
X207859380Y-20050285D02*
X207859380Y-20669333D01*
X208240333Y-20336000D01*
X208240333Y-20478857D01*
X208287952Y-20574095D01*
X208335571Y-20621714D01*
X208430809Y-20669333D01*
X208668904Y-20669333D01*
X208764142Y-20621714D01*
X208811761Y-20574095D01*
X208859380Y-20478857D01*
X208859380Y-20193142D01*
X208811761Y-20097904D01*
X208764142Y-20050285D01*
X207859380Y-21002666D02*
X207859380Y-21621714D01*
X208240333Y-21288380D01*
X208240333Y-21431238D01*
X208287952Y-21526476D01*
X208335571Y-21574095D01*
X208430809Y-21621714D01*
X208668904Y-21621714D01*
X208764142Y-21574095D01*
X208811761Y-21526476D01*
X208859380Y-21431238D01*
X208859380Y-21145523D01*
X208811761Y-21050285D01*
X208764142Y-21002666D01*
X207859380Y-22240761D02*
X207859380Y-22336000D01*
X207907000Y-22431238D01*
X207954619Y-22478857D01*
X208049857Y-22526476D01*
X208240333Y-22574095D01*
X208478428Y-22574095D01*
X208668904Y-22526476D01*
X208764142Y-22478857D01*
X208811761Y-22431238D01*
X208859380Y-22336000D01*
X208859380Y-22240761D01*
X208811761Y-22145523D01*
X208764142Y-22097904D01*
X208668904Y-22050285D01*
X208478428Y-22002666D01*
X208240333Y-22002666D01*
X208049857Y-22050285D01*
X207954619Y-22097904D01*
X207907000Y-22145523D01*
X207859380Y-22240761D01*
X205192380Y-20177285D02*
X205192380Y-20796333D01*
X205573333Y-20463000D01*
X205573333Y-20605857D01*
X205620952Y-20701095D01*
X205668571Y-20748714D01*
X205763809Y-20796333D01*
X206001904Y-20796333D01*
X206097142Y-20748714D01*
X206144761Y-20701095D01*
X206192380Y-20605857D01*
X206192380Y-20320142D01*
X206144761Y-20224904D01*
X206097142Y-20177285D01*
X205192380Y-21129666D02*
X205192380Y-21748714D01*
X205573333Y-21415380D01*
X205573333Y-21558238D01*
X205620952Y-21653476D01*
X205668571Y-21701095D01*
X205763809Y-21748714D01*
X206001904Y-21748714D01*
X206097142Y-21701095D01*
X206144761Y-21653476D01*
X206192380Y-21558238D01*
X206192380Y-21272523D01*
X206144761Y-21177285D01*
X206097142Y-21129666D01*
X205192380Y-22367761D02*
X205192380Y-22463000D01*
X205240000Y-22558238D01*
X205287619Y-22605857D01*
X205382857Y-22653476D01*
X205573333Y-22701095D01*
X205811428Y-22701095D01*
X206001904Y-22653476D01*
X206097142Y-22605857D01*
X206144761Y-22558238D01*
X206192380Y-22463000D01*
X206192380Y-22367761D01*
X206144761Y-22272523D01*
X206097142Y-22224904D01*
X206001904Y-22177285D01*
X205811428Y-22129666D01*
X205573333Y-22129666D01*
X205382857Y-22177285D01*
X205287619Y-22224904D01*
X205240000Y-22272523D01*
X205192380Y-22367761D01*
X213320380Y-17002285D02*
X213320380Y-17621333D01*
X213701333Y-17288000D01*
X213701333Y-17430857D01*
X213748952Y-17526095D01*
X213796571Y-17573714D01*
X213891809Y-17621333D01*
X214129904Y-17621333D01*
X214225142Y-17573714D01*
X214272761Y-17526095D01*
X214320380Y-17430857D01*
X214320380Y-17145142D01*
X214272761Y-17049904D01*
X214225142Y-17002285D01*
X213320380Y-17954666D02*
X213320380Y-18573714D01*
X213701333Y-18240380D01*
X213701333Y-18383238D01*
X213748952Y-18478476D01*
X213796571Y-18526095D01*
X213891809Y-18573714D01*
X214129904Y-18573714D01*
X214225142Y-18526095D01*
X214272761Y-18478476D01*
X214320380Y-18383238D01*
X214320380Y-18097523D01*
X214272761Y-18002285D01*
X214225142Y-17954666D01*
X213320380Y-19192761D02*
X213320380Y-19288000D01*
X213368000Y-19383238D01*
X213415619Y-19430857D01*
X213510857Y-19478476D01*
X213701333Y-19526095D01*
X213939428Y-19526095D01*
X214129904Y-19478476D01*
X214225142Y-19430857D01*
X214272761Y-19383238D01*
X214320380Y-19288000D01*
X214320380Y-19192761D01*
X214272761Y-19097523D01*
X214225142Y-19049904D01*
X214129904Y-19002285D01*
X213939428Y-18954666D01*
X213701333Y-18954666D01*
X213510857Y-19002285D01*
X213415619Y-19049904D01*
X213368000Y-19097523D01*
X213320380Y-19192761D01*
X224909047Y-29662380D02*
X225480476Y-29662380D01*
X225194761Y-29662380D02*
X225194761Y-28662380D01*
X225290000Y-28805238D01*
X225385238Y-28900476D01*
X225480476Y-28948095D01*
X224480476Y-29662380D02*
X224480476Y-28662380D01*
X224385238Y-29281428D02*
X224099523Y-29662380D01*
X224099523Y-28995714D02*
X224480476Y-29376666D01*
X224655047Y-24455380D02*
X225226476Y-24455380D01*
X224940761Y-24455380D02*
X224940761Y-23455380D01*
X225036000Y-23598238D01*
X225131238Y-23693476D01*
X225226476Y-23741095D01*
X224226476Y-24455380D02*
X224226476Y-23455380D01*
X224131238Y-24074428D02*
X223845523Y-24455380D01*
X223845523Y-23788714D02*
X224226476Y-24169666D01*
X224909047Y-19248380D02*
X225480476Y-19248380D01*
X225194761Y-19248380D02*
X225194761Y-18248380D01*
X225290000Y-18391238D01*
X225385238Y-18486476D01*
X225480476Y-18534095D01*
X224480476Y-19248380D02*
X224480476Y-18248380D01*
X224385238Y-18867428D02*
X224099523Y-19248380D01*
X224099523Y-18581714D02*
X224480476Y-18962666D01*
X224528047Y-14295380D02*
X225099476Y-14295380D01*
X224813761Y-14295380D02*
X224813761Y-13295380D01*
X224909000Y-13438238D01*
X225004238Y-13533476D01*
X225099476Y-13581095D01*
X224099476Y-14295380D02*
X224099476Y-13295380D01*
X224004238Y-13914428D02*
X223718523Y-14295380D01*
X223718523Y-13628714D02*
X224099476Y-14009666D01*
X232656047Y-15184380D02*
X233227476Y-15184380D01*
X232941761Y-15184380D02*
X232941761Y-14184380D01*
X233037000Y-14327238D01*
X233132238Y-14422476D01*
X233227476Y-14470095D01*
X232227476Y-15184380D02*
X232227476Y-14184380D01*
X232132238Y-14803428D02*
X231846523Y-15184380D01*
X231846523Y-14517714D02*
X232227476Y-14898666D01*
X266898380Y-18708761D02*
X266898380Y-18137333D01*
X266898380Y-18423047D02*
X265898380Y-18423047D01*
X266041238Y-18327809D01*
X266136476Y-18232571D01*
X266184095Y-18137333D01*
X266231714Y-19565904D02*
X266898380Y-19565904D01*
X266231714Y-19137333D02*
X266755523Y-19137333D01*
X266850761Y-19184952D01*
X266898380Y-19280190D01*
X266898380Y-19423047D01*
X266850761Y-19518285D01*
X266803142Y-19565904D01*
X266374571Y-20375428D02*
X266374571Y-20042095D01*
X266898380Y-20042095D02*
X265898380Y-20042095D01*
X265898380Y-20518285D01*
X254198380Y-19216761D02*
X254198380Y-18645333D01*
X254198380Y-18931047D02*
X253198380Y-18931047D01*
X253341238Y-18835809D01*
X253436476Y-18740571D01*
X253484095Y-18645333D01*
X253531714Y-20073904D02*
X254198380Y-20073904D01*
X253531714Y-19645333D02*
X254055523Y-19645333D01*
X254150761Y-19692952D01*
X254198380Y-19788190D01*
X254198380Y-19931047D01*
X254150761Y-20026285D01*
X254103142Y-20073904D01*
X253674571Y-20883428D02*
X253674571Y-20550095D01*
X254198380Y-20550095D02*
X253198380Y-20550095D01*
X253198380Y-21026285D01*
X254071380Y-15533761D02*
X254071380Y-14962333D01*
X254071380Y-15248047D02*
X253071380Y-15248047D01*
X253214238Y-15152809D01*
X253309476Y-15057571D01*
X253357095Y-14962333D01*
X253404714Y-16390904D02*
X254071380Y-16390904D01*
X253404714Y-15962333D02*
X253928523Y-15962333D01*
X254023761Y-16009952D01*
X254071380Y-16105190D01*
X254071380Y-16248047D01*
X254023761Y-16343285D01*
X253976142Y-16390904D01*
X253547571Y-17200428D02*
X253547571Y-16867095D01*
X254071380Y-16867095D02*
X253071380Y-16867095D01*
X253071380Y-17343285D01*
X249697714Y-33107380D02*
X249078666Y-33107380D01*
X249412000Y-33488333D01*
X249269142Y-33488333D01*
X249173904Y-33535952D01*
X249126285Y-33583571D01*
X249078666Y-33678809D01*
X249078666Y-33916904D01*
X249126285Y-34012142D01*
X249173904Y-34059761D01*
X249269142Y-34107380D01*
X249554857Y-34107380D01*
X249650095Y-34059761D01*
X249697714Y-34012142D01*
X248745333Y-33107380D02*
X248126285Y-33107380D01*
X248459619Y-33488333D01*
X248316761Y-33488333D01*
X248221523Y-33535952D01*
X248173904Y-33583571D01*
X248126285Y-33678809D01*
X248126285Y-33916904D01*
X248173904Y-34012142D01*
X248221523Y-34059761D01*
X248316761Y-34107380D01*
X248602476Y-34107380D01*
X248697714Y-34059761D01*
X248745333Y-34012142D01*
X247507238Y-33107380D02*
X247412000Y-33107380D01*
X247316761Y-33155000D01*
X247269142Y-33202619D01*
X247221523Y-33297857D01*
X247173904Y-33488333D01*
X247173904Y-33726428D01*
X247221523Y-33916904D01*
X247269142Y-34012142D01*
X247316761Y-34059761D01*
X247412000Y-34107380D01*
X247507238Y-34107380D01*
X247602476Y-34059761D01*
X247650095Y-34012142D01*
X247697714Y-33916904D01*
X247745333Y-33726428D01*
X247745333Y-33488333D01*
X247697714Y-33297857D01*
X247650095Y-33202619D01*
X247602476Y-33155000D01*
X247507238Y-33107380D01*
X257444714Y-33234380D02*
X256825666Y-33234380D01*
X257159000Y-33615333D01*
X257016142Y-33615333D01*
X256920904Y-33662952D01*
X256873285Y-33710571D01*
X256825666Y-33805809D01*
X256825666Y-34043904D01*
X256873285Y-34139142D01*
X256920904Y-34186761D01*
X257016142Y-34234380D01*
X257301857Y-34234380D01*
X257397095Y-34186761D01*
X257444714Y-34139142D01*
X256492333Y-33234380D02*
X255873285Y-33234380D01*
X256206619Y-33615333D01*
X256063761Y-33615333D01*
X255968523Y-33662952D01*
X255920904Y-33710571D01*
X255873285Y-33805809D01*
X255873285Y-34043904D01*
X255920904Y-34139142D01*
X255968523Y-34186761D01*
X256063761Y-34234380D01*
X256349476Y-34234380D01*
X256444714Y-34186761D01*
X256492333Y-34139142D01*
X255254238Y-33234380D02*
X255159000Y-33234380D01*
X255063761Y-33282000D01*
X255016142Y-33329619D01*
X254968523Y-33424857D01*
X254920904Y-33615333D01*
X254920904Y-33853428D01*
X254968523Y-34043904D01*
X255016142Y-34139142D01*
X255063761Y-34186761D01*
X255159000Y-34234380D01*
X255254238Y-34234380D01*
X255349476Y-34186761D01*
X255397095Y-34139142D01*
X255444714Y-34043904D01*
X255492333Y-33853428D01*
X255492333Y-33615333D01*
X255444714Y-33424857D01*
X255397095Y-33329619D01*
X255349476Y-33282000D01*
X255254238Y-33234380D01*
X241029380Y-82621380D02*
X241029380Y-81621380D01*
X240696047Y-82335666D01*
X240362714Y-81621380D01*
X240362714Y-82621380D01*
X239934142Y-82573761D02*
X239791285Y-82621380D01*
X239553190Y-82621380D01*
X239457952Y-82573761D01*
X239410333Y-82526142D01*
X239362714Y-82430904D01*
X239362714Y-82335666D01*
X239410333Y-82240428D01*
X239457952Y-82192809D01*
X239553190Y-82145190D01*
X239743666Y-82097571D01*
X239838904Y-82049952D01*
X239886523Y-82002333D01*
X239934142Y-81907095D01*
X239934142Y-81811857D01*
X239886523Y-81716619D01*
X239838904Y-81669000D01*
X239743666Y-81621380D01*
X239505571Y-81621380D01*
X239362714Y-81669000D01*
X238934142Y-82621380D02*
X238934142Y-81621380D01*
X238553190Y-81621380D01*
X238457952Y-81669000D01*
X238410333Y-81716619D01*
X238362714Y-81811857D01*
X238362714Y-81954714D01*
X238410333Y-82049952D01*
X238457952Y-82097571D01*
X238553190Y-82145190D01*
X238934142Y-82145190D01*
X237505571Y-81954714D02*
X237505571Y-82621380D01*
X237743666Y-81573761D02*
X237981761Y-82288047D01*
X237362714Y-82288047D01*
X237077000Y-81621380D02*
X236457952Y-81621380D01*
X236791285Y-82002333D01*
X236648428Y-82002333D01*
X236553190Y-82049952D01*
X236505571Y-82097571D01*
X236457952Y-82192809D01*
X236457952Y-82430904D01*
X236505571Y-82526142D01*
X236553190Y-82573761D01*
X236648428Y-82621380D01*
X236934142Y-82621380D01*
X237029380Y-82573761D01*
X237077000Y-82526142D01*
X235838904Y-81621380D02*
X235743666Y-81621380D01*
X235648428Y-81669000D01*
X235600809Y-81716619D01*
X235553190Y-81811857D01*
X235505571Y-82002333D01*
X235505571Y-82240428D01*
X235553190Y-82430904D01*
X235600809Y-82526142D01*
X235648428Y-82573761D01*
X235743666Y-82621380D01*
X235838904Y-82621380D01*
X235934142Y-82573761D01*
X235981761Y-82526142D01*
X236029380Y-82430904D01*
X236077000Y-82240428D01*
X236077000Y-82002333D01*
X236029380Y-81811857D01*
X235981761Y-81716619D01*
X235934142Y-81669000D01*
X235838904Y-81621380D01*
X233981761Y-82097571D02*
X234315095Y-82097571D01*
X234315095Y-82621380D02*
X234315095Y-81621380D01*
X233838904Y-81621380D01*
X232886523Y-82621380D02*
X233219857Y-82145190D01*
X233457952Y-82621380D02*
X233457952Y-81621380D01*
X233077000Y-81621380D01*
X232981761Y-81669000D01*
X232934142Y-81716619D01*
X232886523Y-81811857D01*
X232886523Y-81954714D01*
X232934142Y-82049952D01*
X232981761Y-82097571D01*
X233077000Y-82145190D01*
X233457952Y-82145190D01*
X232505571Y-81716619D02*
X232457952Y-81669000D01*
X232362714Y-81621380D01*
X232124619Y-81621380D01*
X232029380Y-81669000D01*
X231981761Y-81716619D01*
X231934142Y-81811857D01*
X231934142Y-81907095D01*
X231981761Y-82049952D01*
X232553190Y-82621380D01*
X231934142Y-82621380D01*
X231600809Y-81621380D02*
X230981761Y-81621380D01*
X231315095Y-82002333D01*
X231172238Y-82002333D01*
X231077000Y-82049952D01*
X231029380Y-82097571D01*
X230981761Y-82192809D01*
X230981761Y-82430904D01*
X231029380Y-82526142D01*
X231077000Y-82573761D01*
X231172238Y-82621380D01*
X231457952Y-82621380D01*
X231553190Y-82573761D01*
X231600809Y-82526142D01*
X230077000Y-81621380D02*
X230553190Y-81621380D01*
X230600809Y-82097571D01*
X230553190Y-82049952D01*
X230457952Y-82002333D01*
X230219857Y-82002333D01*
X230124619Y-82049952D01*
X230077000Y-82097571D01*
X230029380Y-82192809D01*
X230029380Y-82430904D01*
X230077000Y-82526142D01*
X230124619Y-82573761D01*
X230219857Y-82621380D01*
X230457952Y-82621380D01*
X230553190Y-82573761D01*
X230600809Y-82526142D01*
X229124619Y-81621380D02*
X229600809Y-81621380D01*
X229648428Y-82097571D01*
X229600809Y-82049952D01*
X229505571Y-82002333D01*
X229267476Y-82002333D01*
X229172238Y-82049952D01*
X229124619Y-82097571D01*
X229077000Y-82192809D01*
X229077000Y-82430904D01*
X229124619Y-82526142D01*
X229172238Y-82573761D01*
X229267476Y-82621380D01*
X229505571Y-82621380D01*
X229600809Y-82573761D01*
X229648428Y-82526142D01*
X263080095Y-50363380D02*
X263080095Y-49363380D01*
X262746761Y-50077666D01*
X262413428Y-49363380D01*
X262413428Y-50363380D01*
X261365809Y-50268142D02*
X261413428Y-50315761D01*
X261556285Y-50363380D01*
X261651523Y-50363380D01*
X261794380Y-50315761D01*
X261889619Y-50220523D01*
X261937238Y-50125285D01*
X261984857Y-49934809D01*
X261984857Y-49791952D01*
X261937238Y-49601476D01*
X261889619Y-49506238D01*
X261794380Y-49411000D01*
X261651523Y-49363380D01*
X261556285Y-49363380D01*
X261413428Y-49411000D01*
X261365809Y-49458619D01*
X260937238Y-50363380D02*
X260937238Y-49363380D01*
X260556285Y-49363380D01*
X260461047Y-49411000D01*
X260413428Y-49458619D01*
X260365809Y-49553857D01*
X260365809Y-49696714D01*
X260413428Y-49791952D01*
X260461047Y-49839571D01*
X260556285Y-49887190D01*
X260937238Y-49887190D01*
X259984857Y-49458619D02*
X259937238Y-49411000D01*
X259842000Y-49363380D01*
X259603904Y-49363380D01*
X259508666Y-49411000D01*
X259461047Y-49458619D01*
X259413428Y-49553857D01*
X259413428Y-49649095D01*
X259461047Y-49791952D01*
X260032476Y-50363380D01*
X259413428Y-50363380D01*
X259032476Y-49458619D02*
X258984857Y-49411000D01*
X258889619Y-49363380D01*
X258651523Y-49363380D01*
X258556285Y-49411000D01*
X258508666Y-49458619D01*
X258461047Y-49553857D01*
X258461047Y-49649095D01*
X258508666Y-49791952D01*
X259080095Y-50363380D01*
X258461047Y-50363380D01*
X257842000Y-49363380D02*
X257746761Y-49363380D01*
X257651523Y-49411000D01*
X257603904Y-49458619D01*
X257556285Y-49553857D01*
X257508666Y-49744333D01*
X257508666Y-49982428D01*
X257556285Y-50172904D01*
X257603904Y-50268142D01*
X257651523Y-50315761D01*
X257746761Y-50363380D01*
X257842000Y-50363380D01*
X257937238Y-50315761D01*
X257984857Y-50268142D01*
X258032476Y-50172904D01*
X258080095Y-49982428D01*
X258080095Y-49744333D01*
X258032476Y-49553857D01*
X257984857Y-49458619D01*
X257937238Y-49411000D01*
X257842000Y-49363380D01*
X256889619Y-49363380D02*
X256794380Y-49363380D01*
X256699142Y-49411000D01*
X256651523Y-49458619D01*
X256603904Y-49553857D01*
X256556285Y-49744333D01*
X256556285Y-49982428D01*
X256603904Y-50172904D01*
X256651523Y-50268142D01*
X256699142Y-50315761D01*
X256794380Y-50363380D01*
X256889619Y-50363380D01*
X256984857Y-50315761D01*
X257032476Y-50268142D01*
X257080095Y-50172904D01*
X257127714Y-49982428D01*
X257127714Y-49744333D01*
X257080095Y-49553857D01*
X257032476Y-49458619D01*
X256984857Y-49411000D01*
X256889619Y-49363380D01*
%TO.C,U3*%
X233171404Y-79711380D02*
X233171404Y-80520904D01*
X233123785Y-80616142D01*
X233076166Y-80663761D01*
X232980928Y-80711380D01*
X232790452Y-80711380D01*
X232695214Y-80663761D01*
X232647595Y-80616142D01*
X232599976Y-80520904D01*
X232599976Y-79711380D01*
X232219023Y-79711380D02*
X231599976Y-79711380D01*
X231933309Y-80092333D01*
X231790452Y-80092333D01*
X231695214Y-80139952D01*
X231647595Y-80187571D01*
X231599976Y-80282809D01*
X231599976Y-80520904D01*
X231647595Y-80616142D01*
X231695214Y-80663761D01*
X231790452Y-80711380D01*
X232076166Y-80711380D01*
X232171404Y-80663761D01*
X232219023Y-80616142D01*
%TO.C,R39*%
X225432857Y-32616380D02*
X225766190Y-32140190D01*
X226004285Y-32616380D02*
X226004285Y-31616380D01*
X225623333Y-31616380D01*
X225528095Y-31664000D01*
X225480476Y-31711619D01*
X225432857Y-31806857D01*
X225432857Y-31949714D01*
X225480476Y-32044952D01*
X225528095Y-32092571D01*
X225623333Y-32140190D01*
X226004285Y-32140190D01*
X225099523Y-31616380D02*
X224480476Y-31616380D01*
X224813809Y-31997333D01*
X224670952Y-31997333D01*
X224575714Y-32044952D01*
X224528095Y-32092571D01*
X224480476Y-32187809D01*
X224480476Y-32425904D01*
X224528095Y-32521142D01*
X224575714Y-32568761D01*
X224670952Y-32616380D01*
X224956666Y-32616380D01*
X225051904Y-32568761D01*
X225099523Y-32521142D01*
X224004285Y-32616380D02*
X223813809Y-32616380D01*
X223718571Y-32568761D01*
X223670952Y-32521142D01*
X223575714Y-32378285D01*
X223528095Y-32187809D01*
X223528095Y-31806857D01*
X223575714Y-31711619D01*
X223623333Y-31664000D01*
X223718571Y-31616380D01*
X223909047Y-31616380D01*
X224004285Y-31664000D01*
X224051904Y-31711619D01*
X224099523Y-31806857D01*
X224099523Y-32044952D01*
X224051904Y-32140190D01*
X224004285Y-32187809D01*
X223909047Y-32235428D01*
X223718571Y-32235428D01*
X223623333Y-32187809D01*
X223575714Y-32140190D01*
X223528095Y-32044952D01*
%TO.C,R38*%
X225432857Y-17376380D02*
X225766190Y-16900190D01*
X226004285Y-17376380D02*
X226004285Y-16376380D01*
X225623333Y-16376380D01*
X225528095Y-16424000D01*
X225480476Y-16471619D01*
X225432857Y-16566857D01*
X225432857Y-16709714D01*
X225480476Y-16804952D01*
X225528095Y-16852571D01*
X225623333Y-16900190D01*
X226004285Y-16900190D01*
X225099523Y-16376380D02*
X224480476Y-16376380D01*
X224813809Y-16757333D01*
X224670952Y-16757333D01*
X224575714Y-16804952D01*
X224528095Y-16852571D01*
X224480476Y-16947809D01*
X224480476Y-17185904D01*
X224528095Y-17281142D01*
X224575714Y-17328761D01*
X224670952Y-17376380D01*
X224956666Y-17376380D01*
X225051904Y-17328761D01*
X225099523Y-17281142D01*
X223909047Y-16804952D02*
X224004285Y-16757333D01*
X224051904Y-16709714D01*
X224099523Y-16614476D01*
X224099523Y-16566857D01*
X224051904Y-16471619D01*
X224004285Y-16424000D01*
X223909047Y-16376380D01*
X223718571Y-16376380D01*
X223623333Y-16424000D01*
X223575714Y-16471619D01*
X223528095Y-16566857D01*
X223528095Y-16614476D01*
X223575714Y-16709714D01*
X223623333Y-16757333D01*
X223718571Y-16804952D01*
X223909047Y-16804952D01*
X224004285Y-16852571D01*
X224051904Y-16900190D01*
X224099523Y-16995428D01*
X224099523Y-17185904D01*
X224051904Y-17281142D01*
X224004285Y-17328761D01*
X223909047Y-17376380D01*
X223718571Y-17376380D01*
X223623333Y-17328761D01*
X223575714Y-17281142D01*
X223528095Y-17185904D01*
X223528095Y-16995428D01*
X223575714Y-16900190D01*
X223623333Y-16852571D01*
X223718571Y-16804952D01*
%TO.C,R37*%
X225432857Y-22456380D02*
X225766190Y-21980190D01*
X226004285Y-22456380D02*
X226004285Y-21456380D01*
X225623333Y-21456380D01*
X225528095Y-21504000D01*
X225480476Y-21551619D01*
X225432857Y-21646857D01*
X225432857Y-21789714D01*
X225480476Y-21884952D01*
X225528095Y-21932571D01*
X225623333Y-21980190D01*
X226004285Y-21980190D01*
X225099523Y-21456380D02*
X224480476Y-21456380D01*
X224813809Y-21837333D01*
X224670952Y-21837333D01*
X224575714Y-21884952D01*
X224528095Y-21932571D01*
X224480476Y-22027809D01*
X224480476Y-22265904D01*
X224528095Y-22361142D01*
X224575714Y-22408761D01*
X224670952Y-22456380D01*
X224956666Y-22456380D01*
X225051904Y-22408761D01*
X225099523Y-22361142D01*
X224147142Y-21456380D02*
X223480476Y-21456380D01*
X223909047Y-22456380D01*
%TO.C,R36*%
X225432857Y-27536380D02*
X225766190Y-27060190D01*
X226004285Y-27536380D02*
X226004285Y-26536380D01*
X225623333Y-26536380D01*
X225528095Y-26584000D01*
X225480476Y-26631619D01*
X225432857Y-26726857D01*
X225432857Y-26869714D01*
X225480476Y-26964952D01*
X225528095Y-27012571D01*
X225623333Y-27060190D01*
X226004285Y-27060190D01*
X225099523Y-26536380D02*
X224480476Y-26536380D01*
X224813809Y-26917333D01*
X224670952Y-26917333D01*
X224575714Y-26964952D01*
X224528095Y-27012571D01*
X224480476Y-27107809D01*
X224480476Y-27345904D01*
X224528095Y-27441142D01*
X224575714Y-27488761D01*
X224670952Y-27536380D01*
X224956666Y-27536380D01*
X225051904Y-27488761D01*
X225099523Y-27441142D01*
X223623333Y-26536380D02*
X223813809Y-26536380D01*
X223909047Y-26584000D01*
X223956666Y-26631619D01*
X224051904Y-26774476D01*
X224099523Y-26964952D01*
X224099523Y-27345904D01*
X224051904Y-27441142D01*
X224004285Y-27488761D01*
X223909047Y-27536380D01*
X223718571Y-27536380D01*
X223623333Y-27488761D01*
X223575714Y-27441142D01*
X223528095Y-27345904D01*
X223528095Y-27107809D01*
X223575714Y-27012571D01*
X223623333Y-26964952D01*
X223718571Y-26917333D01*
X223909047Y-26917333D01*
X224004285Y-26964952D01*
X224051904Y-27012571D01*
X224099523Y-27107809D01*
%TO.C,Y1*%
X253405161Y-60877238D02*
X253709923Y-60877238D01*
X253069923Y-60663904D02*
X253405161Y-60877238D01*
X253069923Y-61090571D01*
X253709923Y-61639142D02*
X253709923Y-61273428D01*
X253709923Y-61456285D02*
X253069923Y-61456285D01*
X253161352Y-61395333D01*
X253222304Y-61334380D01*
X253252780Y-61273428D01*
%TO.C,R35*%
X223304380Y-74541142D02*
X222828190Y-74207809D01*
X223304380Y-73969714D02*
X222304380Y-73969714D01*
X222304380Y-74350666D01*
X222352000Y-74445904D01*
X222399619Y-74493523D01*
X222494857Y-74541142D01*
X222637714Y-74541142D01*
X222732952Y-74493523D01*
X222780571Y-74445904D01*
X222828190Y-74350666D01*
X222828190Y-73969714D01*
X222304380Y-74874476D02*
X222304380Y-75493523D01*
X222685333Y-75160190D01*
X222685333Y-75303047D01*
X222732952Y-75398285D01*
X222780571Y-75445904D01*
X222875809Y-75493523D01*
X223113904Y-75493523D01*
X223209142Y-75445904D01*
X223256761Y-75398285D01*
X223304380Y-75303047D01*
X223304380Y-75017333D01*
X223256761Y-74922095D01*
X223209142Y-74874476D01*
X222304380Y-76398285D02*
X222304380Y-75922095D01*
X222780571Y-75874476D01*
X222732952Y-75922095D01*
X222685333Y-76017333D01*
X222685333Y-76255428D01*
X222732952Y-76350666D01*
X222780571Y-76398285D01*
X222875809Y-76445904D01*
X223113904Y-76445904D01*
X223209142Y-76398285D01*
X223256761Y-76350666D01*
X223304380Y-76255428D01*
X223304380Y-76017333D01*
X223256761Y-75922095D01*
X223209142Y-75874476D01*
%TO.C,R34*%
X178470868Y-42032142D02*
X177994678Y-41698809D01*
X178470868Y-41460714D02*
X177470868Y-41460714D01*
X177470868Y-41841666D01*
X177518488Y-41936904D01*
X177566107Y-41984523D01*
X177661345Y-42032142D01*
X177804202Y-42032142D01*
X177899440Y-41984523D01*
X177947059Y-41936904D01*
X177994678Y-41841666D01*
X177994678Y-41460714D01*
X177470868Y-42365476D02*
X177470868Y-42984523D01*
X177851821Y-42651190D01*
X177851821Y-42794047D01*
X177899440Y-42889285D01*
X177947059Y-42936904D01*
X178042297Y-42984523D01*
X178280392Y-42984523D01*
X178375630Y-42936904D01*
X178423249Y-42889285D01*
X178470868Y-42794047D01*
X178470868Y-42508333D01*
X178423249Y-42413095D01*
X178375630Y-42365476D01*
X177804202Y-43841666D02*
X178470868Y-43841666D01*
X177423249Y-43603571D02*
X178137535Y-43365476D01*
X178137535Y-43984523D01*
%TO.C,R33*%
X174218868Y-42032142D02*
X173742678Y-41698809D01*
X174218868Y-41460714D02*
X173218868Y-41460714D01*
X173218868Y-41841666D01*
X173266488Y-41936904D01*
X173314107Y-41984523D01*
X173409345Y-42032142D01*
X173552202Y-42032142D01*
X173647440Y-41984523D01*
X173695059Y-41936904D01*
X173742678Y-41841666D01*
X173742678Y-41460714D01*
X173218868Y-42365476D02*
X173218868Y-42984523D01*
X173599821Y-42651190D01*
X173599821Y-42794047D01*
X173647440Y-42889285D01*
X173695059Y-42936904D01*
X173790297Y-42984523D01*
X174028392Y-42984523D01*
X174123630Y-42936904D01*
X174171249Y-42889285D01*
X174218868Y-42794047D01*
X174218868Y-42508333D01*
X174171249Y-42413095D01*
X174123630Y-42365476D01*
X173218868Y-43317857D02*
X173218868Y-43936904D01*
X173599821Y-43603571D01*
X173599821Y-43746428D01*
X173647440Y-43841666D01*
X173695059Y-43889285D01*
X173790297Y-43936904D01*
X174028392Y-43936904D01*
X174123630Y-43889285D01*
X174171249Y-43841666D01*
X174218868Y-43746428D01*
X174218868Y-43460714D01*
X174171249Y-43365476D01*
X174123630Y-43317857D01*
%TO.C,R32*%
X178958130Y-48062142D02*
X178481940Y-47728809D01*
X178958130Y-47490714D02*
X177958130Y-47490714D01*
X177958130Y-47871666D01*
X178005750Y-47966904D01*
X178053369Y-48014523D01*
X178148607Y-48062142D01*
X178291464Y-48062142D01*
X178386702Y-48014523D01*
X178434321Y-47966904D01*
X178481940Y-47871666D01*
X178481940Y-47490714D01*
X177958130Y-48395476D02*
X177958130Y-49014523D01*
X178339083Y-48681190D01*
X178339083Y-48824047D01*
X178386702Y-48919285D01*
X178434321Y-48966904D01*
X178529559Y-49014523D01*
X178767654Y-49014523D01*
X178862892Y-48966904D01*
X178910511Y-48919285D01*
X178958130Y-48824047D01*
X178958130Y-48538333D01*
X178910511Y-48443095D01*
X178862892Y-48395476D01*
X178053369Y-49395476D02*
X178005750Y-49443095D01*
X177958130Y-49538333D01*
X177958130Y-49776428D01*
X178005750Y-49871666D01*
X178053369Y-49919285D01*
X178148607Y-49966904D01*
X178243845Y-49966904D01*
X178386702Y-49919285D01*
X178958130Y-49347857D01*
X178958130Y-49966904D01*
%TO.C,R31*%
X174198130Y-48824142D02*
X173721940Y-48490809D01*
X174198130Y-48252714D02*
X173198130Y-48252714D01*
X173198130Y-48633666D01*
X173245750Y-48728904D01*
X173293369Y-48776523D01*
X173388607Y-48824142D01*
X173531464Y-48824142D01*
X173626702Y-48776523D01*
X173674321Y-48728904D01*
X173721940Y-48633666D01*
X173721940Y-48252714D01*
X173198130Y-49157476D02*
X173198130Y-49776523D01*
X173579083Y-49443190D01*
X173579083Y-49586047D01*
X173626702Y-49681285D01*
X173674321Y-49728904D01*
X173769559Y-49776523D01*
X174007654Y-49776523D01*
X174102892Y-49728904D01*
X174150511Y-49681285D01*
X174198130Y-49586047D01*
X174198130Y-49300333D01*
X174150511Y-49205095D01*
X174102892Y-49157476D01*
X174198130Y-50728904D02*
X174198130Y-50157476D01*
X174198130Y-50443190D02*
X173198130Y-50443190D01*
X173340988Y-50347952D01*
X173436226Y-50252714D01*
X173483845Y-50157476D01*
%TO.C,R30*%
X253563857Y-32804380D02*
X253897190Y-32328190D01*
X254135285Y-32804380D02*
X254135285Y-31804380D01*
X253754333Y-31804380D01*
X253659095Y-31852000D01*
X253611476Y-31899619D01*
X253563857Y-31994857D01*
X253563857Y-32137714D01*
X253611476Y-32232952D01*
X253659095Y-32280571D01*
X253754333Y-32328190D01*
X254135285Y-32328190D01*
X253230523Y-31804380D02*
X252611476Y-31804380D01*
X252944809Y-32185333D01*
X252801952Y-32185333D01*
X252706714Y-32232952D01*
X252659095Y-32280571D01*
X252611476Y-32375809D01*
X252611476Y-32613904D01*
X252659095Y-32709142D01*
X252706714Y-32756761D01*
X252801952Y-32804380D01*
X253087666Y-32804380D01*
X253182904Y-32756761D01*
X253230523Y-32709142D01*
X251992428Y-31804380D02*
X251897190Y-31804380D01*
X251801952Y-31852000D01*
X251754333Y-31899619D01*
X251706714Y-31994857D01*
X251659095Y-32185333D01*
X251659095Y-32423428D01*
X251706714Y-32613904D01*
X251754333Y-32709142D01*
X251801952Y-32756761D01*
X251897190Y-32804380D01*
X251992428Y-32804380D01*
X252087666Y-32756761D01*
X252135285Y-32709142D01*
X252182904Y-32613904D01*
X252230523Y-32423428D01*
X252230523Y-32185333D01*
X252182904Y-31994857D01*
X252135285Y-31899619D01*
X252087666Y-31852000D01*
X251992428Y-31804380D01*
%TO.C,R29*%
X252356857Y-57188380D02*
X252690190Y-56712190D01*
X252928285Y-57188380D02*
X252928285Y-56188380D01*
X252547333Y-56188380D01*
X252452095Y-56236000D01*
X252404476Y-56283619D01*
X252356857Y-56378857D01*
X252356857Y-56521714D01*
X252404476Y-56616952D01*
X252452095Y-56664571D01*
X252547333Y-56712190D01*
X252928285Y-56712190D01*
X251975904Y-56283619D02*
X251928285Y-56236000D01*
X251833047Y-56188380D01*
X251594952Y-56188380D01*
X251499714Y-56236000D01*
X251452095Y-56283619D01*
X251404476Y-56378857D01*
X251404476Y-56474095D01*
X251452095Y-56616952D01*
X252023523Y-57188380D01*
X251404476Y-57188380D01*
X250928285Y-57188380D02*
X250737809Y-57188380D01*
X250642571Y-57140761D01*
X250594952Y-57093142D01*
X250499714Y-56950285D01*
X250452095Y-56759809D01*
X250452095Y-56378857D01*
X250499714Y-56283619D01*
X250547333Y-56236000D01*
X250642571Y-56188380D01*
X250833047Y-56188380D01*
X250928285Y-56236000D01*
X250975904Y-56283619D01*
X251023523Y-56378857D01*
X251023523Y-56616952D01*
X250975904Y-56712190D01*
X250928285Y-56759809D01*
X250833047Y-56807428D01*
X250642571Y-56807428D01*
X250547333Y-56759809D01*
X250499714Y-56712190D01*
X250452095Y-56616952D01*
%TO.C,R28*%
X245752857Y-32741380D02*
X246086190Y-32265190D01*
X246324285Y-32741380D02*
X246324285Y-31741380D01*
X245943333Y-31741380D01*
X245848095Y-31789000D01*
X245800476Y-31836619D01*
X245752857Y-31931857D01*
X245752857Y-32074714D01*
X245800476Y-32169952D01*
X245848095Y-32217571D01*
X245943333Y-32265190D01*
X246324285Y-32265190D01*
X245371904Y-31836619D02*
X245324285Y-31789000D01*
X245229047Y-31741380D01*
X244990952Y-31741380D01*
X244895714Y-31789000D01*
X244848095Y-31836619D01*
X244800476Y-31931857D01*
X244800476Y-32027095D01*
X244848095Y-32169952D01*
X245419523Y-32741380D01*
X244800476Y-32741380D01*
X244229047Y-32169952D02*
X244324285Y-32122333D01*
X244371904Y-32074714D01*
X244419523Y-31979476D01*
X244419523Y-31931857D01*
X244371904Y-31836619D01*
X244324285Y-31789000D01*
X244229047Y-31741380D01*
X244038571Y-31741380D01*
X243943333Y-31789000D01*
X243895714Y-31836619D01*
X243848095Y-31931857D01*
X243848095Y-31979476D01*
X243895714Y-32074714D01*
X243943333Y-32122333D01*
X244038571Y-32169952D01*
X244229047Y-32169952D01*
X244324285Y-32217571D01*
X244371904Y-32265190D01*
X244419523Y-32360428D01*
X244419523Y-32550904D01*
X244371904Y-32646142D01*
X244324285Y-32693761D01*
X244229047Y-32741380D01*
X244038571Y-32741380D01*
X243943333Y-32693761D01*
X243895714Y-32646142D01*
X243848095Y-32550904D01*
X243848095Y-32360428D01*
X243895714Y-32265190D01*
X243943333Y-32217571D01*
X244038571Y-32169952D01*
%TO.C,Q26*%
X176775678Y-40822619D02*
X176870916Y-40775000D01*
X176966154Y-40679761D01*
X177109011Y-40536904D01*
X177204250Y-40489285D01*
X177299488Y-40489285D01*
X177251869Y-40727380D02*
X177347107Y-40679761D01*
X177442345Y-40584523D01*
X177489964Y-40394047D01*
X177489964Y-40060714D01*
X177442345Y-39870238D01*
X177347107Y-39775000D01*
X177251869Y-39727380D01*
X177061392Y-39727380D01*
X176966154Y-39775000D01*
X176870916Y-39870238D01*
X176823297Y-40060714D01*
X176823297Y-40394047D01*
X176870916Y-40584523D01*
X176966154Y-40679761D01*
X177061392Y-40727380D01*
X177251869Y-40727380D01*
X176442345Y-39822619D02*
X176394726Y-39775000D01*
X176299488Y-39727380D01*
X176061392Y-39727380D01*
X175966154Y-39775000D01*
X175918535Y-39822619D01*
X175870916Y-39917857D01*
X175870916Y-40013095D01*
X175918535Y-40155952D01*
X176489964Y-40727380D01*
X175870916Y-40727380D01*
X175013773Y-39727380D02*
X175204250Y-39727380D01*
X175299488Y-39775000D01*
X175347107Y-39822619D01*
X175442345Y-39965476D01*
X175489964Y-40155952D01*
X175489964Y-40536904D01*
X175442345Y-40632142D01*
X175394726Y-40679761D01*
X175299488Y-40727380D01*
X175109011Y-40727380D01*
X175013773Y-40679761D01*
X174966154Y-40632142D01*
X174918535Y-40536904D01*
X174918535Y-40298809D01*
X174966154Y-40203571D01*
X175013773Y-40155952D01*
X175109011Y-40108333D01*
X175299488Y-40108333D01*
X175394726Y-40155952D01*
X175442345Y-40203571D01*
X175489964Y-40298809D01*
%TO.C,Q25*%
X176189178Y-46852619D02*
X176284416Y-46805000D01*
X176379654Y-46709761D01*
X176522511Y-46566904D01*
X176617750Y-46519285D01*
X176712988Y-46519285D01*
X176665369Y-46757380D02*
X176760607Y-46709761D01*
X176855845Y-46614523D01*
X176903464Y-46424047D01*
X176903464Y-46090714D01*
X176855845Y-45900238D01*
X176760607Y-45805000D01*
X176665369Y-45757380D01*
X176474892Y-45757380D01*
X176379654Y-45805000D01*
X176284416Y-45900238D01*
X176236797Y-46090714D01*
X176236797Y-46424047D01*
X176284416Y-46614523D01*
X176379654Y-46709761D01*
X176474892Y-46757380D01*
X176665369Y-46757380D01*
X175855845Y-45852619D02*
X175808226Y-45805000D01*
X175712988Y-45757380D01*
X175474892Y-45757380D01*
X175379654Y-45805000D01*
X175332035Y-45852619D01*
X175284416Y-45947857D01*
X175284416Y-46043095D01*
X175332035Y-46185952D01*
X175903464Y-46757380D01*
X175284416Y-46757380D01*
X174379654Y-45757380D02*
X174855845Y-45757380D01*
X174903464Y-46233571D01*
X174855845Y-46185952D01*
X174760607Y-46138333D01*
X174522511Y-46138333D01*
X174427273Y-46185952D01*
X174379654Y-46233571D01*
X174332035Y-46328809D01*
X174332035Y-46566904D01*
X174379654Y-46662142D01*
X174427273Y-46709761D01*
X174522511Y-46757380D01*
X174760607Y-46757380D01*
X174855845Y-46709761D01*
X174903464Y-46662142D01*
%TO.C,C5*%
X260008666Y-67319142D02*
X260056285Y-67366761D01*
X260199142Y-67414380D01*
X260294380Y-67414380D01*
X260437238Y-67366761D01*
X260532476Y-67271523D01*
X260580095Y-67176285D01*
X260627714Y-66985809D01*
X260627714Y-66842952D01*
X260580095Y-66652476D01*
X260532476Y-66557238D01*
X260437238Y-66462000D01*
X260294380Y-66414380D01*
X260199142Y-66414380D01*
X260056285Y-66462000D01*
X260008666Y-66509619D01*
X259103904Y-66414380D02*
X259580095Y-66414380D01*
X259627714Y-66890571D01*
X259580095Y-66842952D01*
X259484857Y-66795333D01*
X259246761Y-66795333D01*
X259151523Y-66842952D01*
X259103904Y-66890571D01*
X259056285Y-66985809D01*
X259056285Y-67223904D01*
X259103904Y-67319142D01*
X259151523Y-67366761D01*
X259246761Y-67414380D01*
X259484857Y-67414380D01*
X259580095Y-67366761D01*
X259627714Y-67319142D01*
%TO.C,C4*%
X226069142Y-71956333D02*
X226116761Y-71908714D01*
X226164380Y-71765857D01*
X226164380Y-71670619D01*
X226116761Y-71527761D01*
X226021523Y-71432523D01*
X225926285Y-71384904D01*
X225735809Y-71337285D01*
X225592952Y-71337285D01*
X225402476Y-71384904D01*
X225307238Y-71432523D01*
X225212000Y-71527761D01*
X225164380Y-71670619D01*
X225164380Y-71765857D01*
X225212000Y-71908714D01*
X225259619Y-71956333D01*
X225497714Y-72813476D02*
X226164380Y-72813476D01*
X225116761Y-72575380D02*
X225831047Y-72337285D01*
X225831047Y-72956333D01*
%TO.C,C3*%
X251055142Y-19531913D02*
X251102761Y-19484294D01*
X251150380Y-19341437D01*
X251150380Y-19246199D01*
X251102761Y-19103341D01*
X251007523Y-19008103D01*
X250912285Y-18960484D01*
X250721809Y-18912865D01*
X250578952Y-18912865D01*
X250388476Y-18960484D01*
X250293238Y-19008103D01*
X250198000Y-19103341D01*
X250150380Y-19246199D01*
X250150380Y-19341437D01*
X250198000Y-19484294D01*
X250245619Y-19531913D01*
X250150380Y-19865246D02*
X250150380Y-20484294D01*
X250531333Y-20150960D01*
X250531333Y-20293818D01*
X250578952Y-20389056D01*
X250626571Y-20436675D01*
X250721809Y-20484294D01*
X250959904Y-20484294D01*
X251055142Y-20436675D01*
X251102761Y-20389056D01*
X251150380Y-20293818D01*
X251150380Y-20008103D01*
X251102761Y-19912865D01*
X251055142Y-19865246D01*
%TO.C,C2*%
X270011142Y-18883333D02*
X270058761Y-18835714D01*
X270106380Y-18692857D01*
X270106380Y-18597619D01*
X270058761Y-18454761D01*
X269963523Y-18359523D01*
X269868285Y-18311904D01*
X269677809Y-18264285D01*
X269534952Y-18264285D01*
X269344476Y-18311904D01*
X269249238Y-18359523D01*
X269154000Y-18454761D01*
X269106380Y-18597619D01*
X269106380Y-18692857D01*
X269154000Y-18835714D01*
X269201619Y-18883333D01*
X269201619Y-19264285D02*
X269154000Y-19311904D01*
X269106380Y-19407142D01*
X269106380Y-19645238D01*
X269154000Y-19740476D01*
X269201619Y-19788095D01*
X269296857Y-19835714D01*
X269392095Y-19835714D01*
X269534952Y-19788095D01*
X270106380Y-19216666D01*
X270106380Y-19835714D01*
%TO.C,C1*%
X251149142Y-15822333D02*
X251196761Y-15774714D01*
X251244380Y-15631857D01*
X251244380Y-15536619D01*
X251196761Y-15393761D01*
X251101523Y-15298523D01*
X251006285Y-15250904D01*
X250815809Y-15203285D01*
X250672952Y-15203285D01*
X250482476Y-15250904D01*
X250387238Y-15298523D01*
X250292000Y-15393761D01*
X250244380Y-15536619D01*
X250244380Y-15631857D01*
X250292000Y-15774714D01*
X250339619Y-15822333D01*
X251244380Y-16774714D02*
X251244380Y-16203285D01*
X251244380Y-16489000D02*
X250244380Y-16489000D01*
X250387238Y-16393761D01*
X250482476Y-16298523D01*
X250530095Y-16203285D01*
%TO.C,R27*%
X233243857Y-18443180D02*
X233577190Y-17966990D01*
X233815285Y-18443180D02*
X233815285Y-17443180D01*
X233434333Y-17443180D01*
X233339095Y-17490800D01*
X233291476Y-17538419D01*
X233243857Y-17633657D01*
X233243857Y-17776514D01*
X233291476Y-17871752D01*
X233339095Y-17919371D01*
X233434333Y-17966990D01*
X233815285Y-17966990D01*
X232862904Y-17538419D02*
X232815285Y-17490800D01*
X232720047Y-17443180D01*
X232481952Y-17443180D01*
X232386714Y-17490800D01*
X232339095Y-17538419D01*
X232291476Y-17633657D01*
X232291476Y-17728895D01*
X232339095Y-17871752D01*
X232910523Y-18443180D01*
X232291476Y-18443180D01*
X231958142Y-17443180D02*
X231291476Y-17443180D01*
X231720047Y-18443180D01*
%TO.C,R26*%
X238610380Y-49903142D02*
X238134190Y-49569809D01*
X238610380Y-49331714D02*
X237610380Y-49331714D01*
X237610380Y-49712666D01*
X237658000Y-49807904D01*
X237705619Y-49855523D01*
X237800857Y-49903142D01*
X237943714Y-49903142D01*
X238038952Y-49855523D01*
X238086571Y-49807904D01*
X238134190Y-49712666D01*
X238134190Y-49331714D01*
X237705619Y-50284095D02*
X237658000Y-50331714D01*
X237610380Y-50426952D01*
X237610380Y-50665047D01*
X237658000Y-50760285D01*
X237705619Y-50807904D01*
X237800857Y-50855523D01*
X237896095Y-50855523D01*
X238038952Y-50807904D01*
X238610380Y-50236476D01*
X238610380Y-50855523D01*
X237610380Y-51712666D02*
X237610380Y-51522190D01*
X237658000Y-51426952D01*
X237705619Y-51379333D01*
X237848476Y-51284095D01*
X238038952Y-51236476D01*
X238419904Y-51236476D01*
X238515142Y-51284095D01*
X238562761Y-51331714D01*
X238610380Y-51426952D01*
X238610380Y-51617428D01*
X238562761Y-51712666D01*
X238515142Y-51760285D01*
X238419904Y-51807904D01*
X238181809Y-51807904D01*
X238086571Y-51760285D01*
X238038952Y-51712666D01*
X237991333Y-51617428D01*
X237991333Y-51426952D01*
X238038952Y-51331714D01*
X238086571Y-51284095D01*
X238181809Y-51236476D01*
%TO.C,R25*%
X237370857Y-45570380D02*
X237704190Y-45094190D01*
X237942285Y-45570380D02*
X237942285Y-44570380D01*
X237561333Y-44570380D01*
X237466095Y-44618000D01*
X237418476Y-44665619D01*
X237370857Y-44760857D01*
X237370857Y-44903714D01*
X237418476Y-44998952D01*
X237466095Y-45046571D01*
X237561333Y-45094190D01*
X237942285Y-45094190D01*
X236989904Y-44665619D02*
X236942285Y-44618000D01*
X236847047Y-44570380D01*
X236608952Y-44570380D01*
X236513714Y-44618000D01*
X236466095Y-44665619D01*
X236418476Y-44760857D01*
X236418476Y-44856095D01*
X236466095Y-44998952D01*
X237037523Y-45570380D01*
X236418476Y-45570380D01*
X235513714Y-44570380D02*
X235989904Y-44570380D01*
X236037523Y-45046571D01*
X235989904Y-44998952D01*
X235894666Y-44951333D01*
X235656571Y-44951333D01*
X235561333Y-44998952D01*
X235513714Y-45046571D01*
X235466095Y-45141809D01*
X235466095Y-45379904D01*
X235513714Y-45475142D01*
X235561333Y-45522761D01*
X235656571Y-45570380D01*
X235894666Y-45570380D01*
X235989904Y-45522761D01*
X236037523Y-45475142D01*
%TO.C,R24*%
X234866380Y-49840142D02*
X234390190Y-49506809D01*
X234866380Y-49268714D02*
X233866380Y-49268714D01*
X233866380Y-49649666D01*
X233914000Y-49744904D01*
X233961619Y-49792523D01*
X234056857Y-49840142D01*
X234199714Y-49840142D01*
X234294952Y-49792523D01*
X234342571Y-49744904D01*
X234390190Y-49649666D01*
X234390190Y-49268714D01*
X233961619Y-50221095D02*
X233914000Y-50268714D01*
X233866380Y-50363952D01*
X233866380Y-50602047D01*
X233914000Y-50697285D01*
X233961619Y-50744904D01*
X234056857Y-50792523D01*
X234152095Y-50792523D01*
X234294952Y-50744904D01*
X234866380Y-50173476D01*
X234866380Y-50792523D01*
X234199714Y-51649666D02*
X234866380Y-51649666D01*
X233818761Y-51411571D02*
X234533047Y-51173476D01*
X234533047Y-51792523D01*
%TO.C,R23*%
X233497857Y-45570380D02*
X233831190Y-45094190D01*
X234069285Y-45570380D02*
X234069285Y-44570380D01*
X233688333Y-44570380D01*
X233593095Y-44618000D01*
X233545476Y-44665619D01*
X233497857Y-44760857D01*
X233497857Y-44903714D01*
X233545476Y-44998952D01*
X233593095Y-45046571D01*
X233688333Y-45094190D01*
X234069285Y-45094190D01*
X233116904Y-44665619D02*
X233069285Y-44618000D01*
X232974047Y-44570380D01*
X232735952Y-44570380D01*
X232640714Y-44618000D01*
X232593095Y-44665619D01*
X232545476Y-44760857D01*
X232545476Y-44856095D01*
X232593095Y-44998952D01*
X233164523Y-45570380D01*
X232545476Y-45570380D01*
X232212142Y-44570380D02*
X231593095Y-44570380D01*
X231926428Y-44951333D01*
X231783571Y-44951333D01*
X231688333Y-44998952D01*
X231640714Y-45046571D01*
X231593095Y-45141809D01*
X231593095Y-45379904D01*
X231640714Y-45475142D01*
X231688333Y-45522761D01*
X231783571Y-45570380D01*
X232069285Y-45570380D01*
X232164523Y-45522761D01*
X232212142Y-45475142D01*
%TO.C,R22*%
X231310380Y-49840142D02*
X230834190Y-49506809D01*
X231310380Y-49268714D02*
X230310380Y-49268714D01*
X230310380Y-49649666D01*
X230358000Y-49744904D01*
X230405619Y-49792523D01*
X230500857Y-49840142D01*
X230643714Y-49840142D01*
X230738952Y-49792523D01*
X230786571Y-49744904D01*
X230834190Y-49649666D01*
X230834190Y-49268714D01*
X230405619Y-50221095D02*
X230358000Y-50268714D01*
X230310380Y-50363952D01*
X230310380Y-50602047D01*
X230358000Y-50697285D01*
X230405619Y-50744904D01*
X230500857Y-50792523D01*
X230596095Y-50792523D01*
X230738952Y-50744904D01*
X231310380Y-50173476D01*
X231310380Y-50792523D01*
X230405619Y-51173476D02*
X230358000Y-51221095D01*
X230310380Y-51316333D01*
X230310380Y-51554428D01*
X230358000Y-51649666D01*
X230405619Y-51697285D01*
X230500857Y-51744904D01*
X230596095Y-51744904D01*
X230738952Y-51697285D01*
X231310380Y-51125857D01*
X231310380Y-51744904D01*
%TO.C,R21*%
X229750857Y-45570380D02*
X230084190Y-45094190D01*
X230322285Y-45570380D02*
X230322285Y-44570380D01*
X229941333Y-44570380D01*
X229846095Y-44618000D01*
X229798476Y-44665619D01*
X229750857Y-44760857D01*
X229750857Y-44903714D01*
X229798476Y-44998952D01*
X229846095Y-45046571D01*
X229941333Y-45094190D01*
X230322285Y-45094190D01*
X229369904Y-44665619D02*
X229322285Y-44618000D01*
X229227047Y-44570380D01*
X228988952Y-44570380D01*
X228893714Y-44618000D01*
X228846095Y-44665619D01*
X228798476Y-44760857D01*
X228798476Y-44856095D01*
X228846095Y-44998952D01*
X229417523Y-45570380D01*
X228798476Y-45570380D01*
X227846095Y-45570380D02*
X228417523Y-45570380D01*
X228131809Y-45570380D02*
X228131809Y-44570380D01*
X228227047Y-44713238D01*
X228322285Y-44808476D01*
X228417523Y-44856095D01*
%TO.C,R20*%
X227688380Y-49649142D02*
X227212190Y-49315809D01*
X227688380Y-49077714D02*
X226688380Y-49077714D01*
X226688380Y-49458666D01*
X226736000Y-49553904D01*
X226783619Y-49601523D01*
X226878857Y-49649142D01*
X227021714Y-49649142D01*
X227116952Y-49601523D01*
X227164571Y-49553904D01*
X227212190Y-49458666D01*
X227212190Y-49077714D01*
X226783619Y-50030095D02*
X226736000Y-50077714D01*
X226688380Y-50172952D01*
X226688380Y-50411047D01*
X226736000Y-50506285D01*
X226783619Y-50553904D01*
X226878857Y-50601523D01*
X226974095Y-50601523D01*
X227116952Y-50553904D01*
X227688380Y-49982476D01*
X227688380Y-50601523D01*
X226688380Y-51220571D02*
X226688380Y-51315809D01*
X226736000Y-51411047D01*
X226783619Y-51458666D01*
X226878857Y-51506285D01*
X227069333Y-51553904D01*
X227307428Y-51553904D01*
X227497904Y-51506285D01*
X227593142Y-51458666D01*
X227640761Y-51411047D01*
X227688380Y-51315809D01*
X227688380Y-51220571D01*
X227640761Y-51125333D01*
X227593142Y-51077714D01*
X227497904Y-51030095D01*
X227307428Y-50982476D01*
X227069333Y-50982476D01*
X226878857Y-51030095D01*
X226783619Y-51077714D01*
X226736000Y-51125333D01*
X226688380Y-51220571D01*
%TO.C,R19*%
X226448857Y-45570380D02*
X226782190Y-45094190D01*
X227020285Y-45570380D02*
X227020285Y-44570380D01*
X226639333Y-44570380D01*
X226544095Y-44618000D01*
X226496476Y-44665619D01*
X226448857Y-44760857D01*
X226448857Y-44903714D01*
X226496476Y-44998952D01*
X226544095Y-45046571D01*
X226639333Y-45094190D01*
X227020285Y-45094190D01*
X225496476Y-45570380D02*
X226067904Y-45570380D01*
X225782190Y-45570380D02*
X225782190Y-44570380D01*
X225877428Y-44713238D01*
X225972666Y-44808476D01*
X226067904Y-44856095D01*
X225020285Y-45570380D02*
X224829809Y-45570380D01*
X224734571Y-45522761D01*
X224686952Y-45475142D01*
X224591714Y-45332285D01*
X224544095Y-45141809D01*
X224544095Y-44760857D01*
X224591714Y-44665619D01*
X224639333Y-44618000D01*
X224734571Y-44570380D01*
X224925047Y-44570380D01*
X225020285Y-44618000D01*
X225067904Y-44665619D01*
X225115523Y-44760857D01*
X225115523Y-44998952D01*
X225067904Y-45094190D01*
X225020285Y-45141809D01*
X224925047Y-45189428D01*
X224734571Y-45189428D01*
X224639333Y-45141809D01*
X224591714Y-45094190D01*
X224544095Y-44998952D01*
%TO.C,R18*%
X207302380Y-26789142D02*
X206826190Y-26455809D01*
X207302380Y-26217714D02*
X206302380Y-26217714D01*
X206302380Y-26598666D01*
X206350000Y-26693904D01*
X206397619Y-26741523D01*
X206492857Y-26789142D01*
X206635714Y-26789142D01*
X206730952Y-26741523D01*
X206778571Y-26693904D01*
X206826190Y-26598666D01*
X206826190Y-26217714D01*
X207302380Y-27741523D02*
X207302380Y-27170095D01*
X207302380Y-27455809D02*
X206302380Y-27455809D01*
X206445238Y-27360571D01*
X206540476Y-27265333D01*
X206588095Y-27170095D01*
X206730952Y-28312952D02*
X206683333Y-28217714D01*
X206635714Y-28170095D01*
X206540476Y-28122476D01*
X206492857Y-28122476D01*
X206397619Y-28170095D01*
X206350000Y-28217714D01*
X206302380Y-28312952D01*
X206302380Y-28503428D01*
X206350000Y-28598666D01*
X206397619Y-28646285D01*
X206492857Y-28693904D01*
X206540476Y-28693904D01*
X206635714Y-28646285D01*
X206683333Y-28598666D01*
X206730952Y-28503428D01*
X206730952Y-28312952D01*
X206778571Y-28217714D01*
X206826190Y-28170095D01*
X206921428Y-28122476D01*
X207111904Y-28122476D01*
X207207142Y-28170095D01*
X207254761Y-28217714D01*
X207302380Y-28312952D01*
X207302380Y-28503428D01*
X207254761Y-28598666D01*
X207207142Y-28646285D01*
X207111904Y-28693904D01*
X206921428Y-28693904D01*
X206826190Y-28646285D01*
X206778571Y-28598666D01*
X206730952Y-28503428D01*
%TO.C,R17*%
X212382380Y-26789142D02*
X211906190Y-26455809D01*
X212382380Y-26217714D02*
X211382380Y-26217714D01*
X211382380Y-26598666D01*
X211430000Y-26693904D01*
X211477619Y-26741523D01*
X211572857Y-26789142D01*
X211715714Y-26789142D01*
X211810952Y-26741523D01*
X211858571Y-26693904D01*
X211906190Y-26598666D01*
X211906190Y-26217714D01*
X212382380Y-27741523D02*
X212382380Y-27170095D01*
X212382380Y-27455809D02*
X211382380Y-27455809D01*
X211525238Y-27360571D01*
X211620476Y-27265333D01*
X211668095Y-27170095D01*
X211382380Y-28074857D02*
X211382380Y-28741523D01*
X212382380Y-28312952D01*
%TO.C,R16*%
X210162380Y-17645142D02*
X209686190Y-17311809D01*
X210162380Y-17073714D02*
X209162380Y-17073714D01*
X209162380Y-17454666D01*
X209210000Y-17549904D01*
X209257619Y-17597523D01*
X209352857Y-17645142D01*
X209495714Y-17645142D01*
X209590952Y-17597523D01*
X209638571Y-17549904D01*
X209686190Y-17454666D01*
X209686190Y-17073714D01*
X210162380Y-18597523D02*
X210162380Y-18026095D01*
X210162380Y-18311809D02*
X209162380Y-18311809D01*
X209305238Y-18216571D01*
X209400476Y-18121333D01*
X209448095Y-18026095D01*
X209162380Y-19454666D02*
X209162380Y-19264190D01*
X209210000Y-19168952D01*
X209257619Y-19121333D01*
X209400476Y-19026095D01*
X209590952Y-18978476D01*
X209971904Y-18978476D01*
X210067142Y-19026095D01*
X210114761Y-19073714D01*
X210162380Y-19168952D01*
X210162380Y-19359428D01*
X210114761Y-19454666D01*
X210067142Y-19502285D01*
X209971904Y-19549904D01*
X209733809Y-19549904D01*
X209638571Y-19502285D01*
X209590952Y-19454666D01*
X209543333Y-19359428D01*
X209543333Y-19168952D01*
X209590952Y-19073714D01*
X209638571Y-19026095D01*
X209733809Y-18978476D01*
%TO.C,R15*%
X202222380Y-26789142D02*
X201746190Y-26455809D01*
X202222380Y-26217714D02*
X201222380Y-26217714D01*
X201222380Y-26598666D01*
X201270000Y-26693904D01*
X201317619Y-26741523D01*
X201412857Y-26789142D01*
X201555714Y-26789142D01*
X201650952Y-26741523D01*
X201698571Y-26693904D01*
X201746190Y-26598666D01*
X201746190Y-26217714D01*
X202222380Y-27741523D02*
X202222380Y-27170095D01*
X202222380Y-27455809D02*
X201222380Y-27455809D01*
X201365238Y-27360571D01*
X201460476Y-27265333D01*
X201508095Y-27170095D01*
X201222380Y-28646285D02*
X201222380Y-28170095D01*
X201698571Y-28122476D01*
X201650952Y-28170095D01*
X201603333Y-28265333D01*
X201603333Y-28503428D01*
X201650952Y-28598666D01*
X201698571Y-28646285D01*
X201793809Y-28693904D01*
X202031904Y-28693904D01*
X202127142Y-28646285D01*
X202174761Y-28598666D01*
X202222380Y-28503428D01*
X202222380Y-28265333D01*
X202174761Y-28170095D01*
X202127142Y-28122476D01*
%TO.C,R14*%
X204762380Y-26789142D02*
X204286190Y-26455809D01*
X204762380Y-26217714D02*
X203762380Y-26217714D01*
X203762380Y-26598666D01*
X203810000Y-26693904D01*
X203857619Y-26741523D01*
X203952857Y-26789142D01*
X204095714Y-26789142D01*
X204190952Y-26741523D01*
X204238571Y-26693904D01*
X204286190Y-26598666D01*
X204286190Y-26217714D01*
X204762380Y-27741523D02*
X204762380Y-27170095D01*
X204762380Y-27455809D02*
X203762380Y-27455809D01*
X203905238Y-27360571D01*
X204000476Y-27265333D01*
X204048095Y-27170095D01*
X204095714Y-28598666D02*
X204762380Y-28598666D01*
X203714761Y-28360571D02*
X204429047Y-28122476D01*
X204429047Y-28741523D01*
%TO.C,R13*%
X209842380Y-26789142D02*
X209366190Y-26455809D01*
X209842380Y-26217714D02*
X208842380Y-26217714D01*
X208842380Y-26598666D01*
X208890000Y-26693904D01*
X208937619Y-26741523D01*
X209032857Y-26789142D01*
X209175714Y-26789142D01*
X209270952Y-26741523D01*
X209318571Y-26693904D01*
X209366190Y-26598666D01*
X209366190Y-26217714D01*
X209842380Y-27741523D02*
X209842380Y-27170095D01*
X209842380Y-27455809D02*
X208842380Y-27455809D01*
X208985238Y-27360571D01*
X209080476Y-27265333D01*
X209128095Y-27170095D01*
X208842380Y-28074857D02*
X208842380Y-28693904D01*
X209223333Y-28360571D01*
X209223333Y-28503428D01*
X209270952Y-28598666D01*
X209318571Y-28646285D01*
X209413809Y-28693904D01*
X209651904Y-28693904D01*
X209747142Y-28646285D01*
X209794761Y-28598666D01*
X209842380Y-28503428D01*
X209842380Y-28217714D01*
X209794761Y-28122476D01*
X209747142Y-28074857D01*
%TO.C,R12*%
X217782380Y-17645142D02*
X217306190Y-17311809D01*
X217782380Y-17073714D02*
X216782380Y-17073714D01*
X216782380Y-17454666D01*
X216830000Y-17549904D01*
X216877619Y-17597523D01*
X216972857Y-17645142D01*
X217115714Y-17645142D01*
X217210952Y-17597523D01*
X217258571Y-17549904D01*
X217306190Y-17454666D01*
X217306190Y-17073714D01*
X217782380Y-18597523D02*
X217782380Y-18026095D01*
X217782380Y-18311809D02*
X216782380Y-18311809D01*
X216925238Y-18216571D01*
X217020476Y-18121333D01*
X217068095Y-18026095D01*
X216877619Y-18978476D02*
X216830000Y-19026095D01*
X216782380Y-19121333D01*
X216782380Y-19359428D01*
X216830000Y-19454666D01*
X216877619Y-19502285D01*
X216972857Y-19549904D01*
X217068095Y-19549904D01*
X217210952Y-19502285D01*
X217782380Y-18930857D01*
X217782380Y-19549904D01*
%TO.C,R11*%
X207622380Y-17645142D02*
X207146190Y-17311809D01*
X207622380Y-17073714D02*
X206622380Y-17073714D01*
X206622380Y-17454666D01*
X206670000Y-17549904D01*
X206717619Y-17597523D01*
X206812857Y-17645142D01*
X206955714Y-17645142D01*
X207050952Y-17597523D01*
X207098571Y-17549904D01*
X207146190Y-17454666D01*
X207146190Y-17073714D01*
X207622380Y-18597523D02*
X207622380Y-18026095D01*
X207622380Y-18311809D02*
X206622380Y-18311809D01*
X206765238Y-18216571D01*
X206860476Y-18121333D01*
X206908095Y-18026095D01*
X207622380Y-19549904D02*
X207622380Y-18978476D01*
X207622380Y-19264190D02*
X206622380Y-19264190D01*
X206765238Y-19168952D01*
X206860476Y-19073714D01*
X206908095Y-18978476D01*
%TO.C,R10*%
X224132380Y-49649142D02*
X223656190Y-49315809D01*
X224132380Y-49077714D02*
X223132380Y-49077714D01*
X223132380Y-49458666D01*
X223180000Y-49553904D01*
X223227619Y-49601523D01*
X223322857Y-49649142D01*
X223465714Y-49649142D01*
X223560952Y-49601523D01*
X223608571Y-49553904D01*
X223656190Y-49458666D01*
X223656190Y-49077714D01*
X224132380Y-50601523D02*
X224132380Y-50030095D01*
X224132380Y-50315809D02*
X223132380Y-50315809D01*
X223275238Y-50220571D01*
X223370476Y-50125333D01*
X223418095Y-50030095D01*
X223132380Y-51220571D02*
X223132380Y-51315809D01*
X223180000Y-51411047D01*
X223227619Y-51458666D01*
X223322857Y-51506285D01*
X223513333Y-51553904D01*
X223751428Y-51553904D01*
X223941904Y-51506285D01*
X224037142Y-51458666D01*
X224084761Y-51411047D01*
X224132380Y-51315809D01*
X224132380Y-51220571D01*
X224084761Y-51125333D01*
X224037142Y-51077714D01*
X223941904Y-51030095D01*
X223751428Y-50982476D01*
X223513333Y-50982476D01*
X223322857Y-51030095D01*
X223227619Y-51077714D01*
X223180000Y-51125333D01*
X223132380Y-51220571D01*
%TO.C,R9*%
X222162666Y-45570380D02*
X222496000Y-45094190D01*
X222734095Y-45570380D02*
X222734095Y-44570380D01*
X222353142Y-44570380D01*
X222257904Y-44618000D01*
X222210285Y-44665619D01*
X222162666Y-44760857D01*
X222162666Y-44903714D01*
X222210285Y-44998952D01*
X222257904Y-45046571D01*
X222353142Y-45094190D01*
X222734095Y-45094190D01*
X221686476Y-45570380D02*
X221496000Y-45570380D01*
X221400761Y-45522761D01*
X221353142Y-45475142D01*
X221257904Y-45332285D01*
X221210285Y-45141809D01*
X221210285Y-44760857D01*
X221257904Y-44665619D01*
X221305523Y-44618000D01*
X221400761Y-44570380D01*
X221591238Y-44570380D01*
X221686476Y-44618000D01*
X221734095Y-44665619D01*
X221781714Y-44760857D01*
X221781714Y-44998952D01*
X221734095Y-45094190D01*
X221686476Y-45141809D01*
X221591238Y-45189428D01*
X221400761Y-45189428D01*
X221305523Y-45141809D01*
X221257904Y-45094190D01*
X221210285Y-44998952D01*
%TO.C,R8*%
X220576380Y-50125333D02*
X220100190Y-49792000D01*
X220576380Y-49553904D02*
X219576380Y-49553904D01*
X219576380Y-49934857D01*
X219624000Y-50030095D01*
X219671619Y-50077714D01*
X219766857Y-50125333D01*
X219909714Y-50125333D01*
X220004952Y-50077714D01*
X220052571Y-50030095D01*
X220100190Y-49934857D01*
X220100190Y-49553904D01*
X220004952Y-50696761D02*
X219957333Y-50601523D01*
X219909714Y-50553904D01*
X219814476Y-50506285D01*
X219766857Y-50506285D01*
X219671619Y-50553904D01*
X219624000Y-50601523D01*
X219576380Y-50696761D01*
X219576380Y-50887238D01*
X219624000Y-50982476D01*
X219671619Y-51030095D01*
X219766857Y-51077714D01*
X219814476Y-51077714D01*
X219909714Y-51030095D01*
X219957333Y-50982476D01*
X220004952Y-50887238D01*
X220004952Y-50696761D01*
X220052571Y-50601523D01*
X220100190Y-50553904D01*
X220195428Y-50506285D01*
X220385904Y-50506285D01*
X220481142Y-50553904D01*
X220528761Y-50601523D01*
X220576380Y-50696761D01*
X220576380Y-50887238D01*
X220528761Y-50982476D01*
X220481142Y-51030095D01*
X220385904Y-51077714D01*
X220195428Y-51077714D01*
X220100190Y-51030095D01*
X220052571Y-50982476D01*
X220004952Y-50887238D01*
%TO.C,R7*%
X218860666Y-45570380D02*
X219194000Y-45094190D01*
X219432095Y-45570380D02*
X219432095Y-44570380D01*
X219051142Y-44570380D01*
X218955904Y-44618000D01*
X218908285Y-44665619D01*
X218860666Y-44760857D01*
X218860666Y-44903714D01*
X218908285Y-44998952D01*
X218955904Y-45046571D01*
X219051142Y-45094190D01*
X219432095Y-45094190D01*
X218527333Y-44570380D02*
X217860666Y-44570380D01*
X218289238Y-45570380D01*
%TO.C,R6*%
X217020380Y-50125333D02*
X216544190Y-49792000D01*
X217020380Y-49553904D02*
X216020380Y-49553904D01*
X216020380Y-49934857D01*
X216068000Y-50030095D01*
X216115619Y-50077714D01*
X216210857Y-50125333D01*
X216353714Y-50125333D01*
X216448952Y-50077714D01*
X216496571Y-50030095D01*
X216544190Y-49934857D01*
X216544190Y-49553904D01*
X216020380Y-50982476D02*
X216020380Y-50792000D01*
X216068000Y-50696761D01*
X216115619Y-50649142D01*
X216258476Y-50553904D01*
X216448952Y-50506285D01*
X216829904Y-50506285D01*
X216925142Y-50553904D01*
X216972761Y-50601523D01*
X217020380Y-50696761D01*
X217020380Y-50887238D01*
X216972761Y-50982476D01*
X216925142Y-51030095D01*
X216829904Y-51077714D01*
X216591809Y-51077714D01*
X216496571Y-51030095D01*
X216448952Y-50982476D01*
X216401333Y-50887238D01*
X216401333Y-50696761D01*
X216448952Y-50601523D01*
X216496571Y-50553904D01*
X216591809Y-50506285D01*
%TO.C,R5*%
X215050666Y-45570380D02*
X215384000Y-45094190D01*
X215622095Y-45570380D02*
X215622095Y-44570380D01*
X215241142Y-44570380D01*
X215145904Y-44618000D01*
X215098285Y-44665619D01*
X215050666Y-44760857D01*
X215050666Y-44903714D01*
X215098285Y-44998952D01*
X215145904Y-45046571D01*
X215241142Y-45094190D01*
X215622095Y-45094190D01*
X214145904Y-44570380D02*
X214622095Y-44570380D01*
X214669714Y-45046571D01*
X214622095Y-44998952D01*
X214526857Y-44951333D01*
X214288761Y-44951333D01*
X214193523Y-44998952D01*
X214145904Y-45046571D01*
X214098285Y-45141809D01*
X214098285Y-45379904D01*
X214145904Y-45475142D01*
X214193523Y-45522761D01*
X214288761Y-45570380D01*
X214526857Y-45570380D01*
X214622095Y-45522761D01*
X214669714Y-45475142D01*
%TO.C,R4*%
X213210380Y-50125333D02*
X212734190Y-49792000D01*
X213210380Y-49553904D02*
X212210380Y-49553904D01*
X212210380Y-49934857D01*
X212258000Y-50030095D01*
X212305619Y-50077714D01*
X212400857Y-50125333D01*
X212543714Y-50125333D01*
X212638952Y-50077714D01*
X212686571Y-50030095D01*
X212734190Y-49934857D01*
X212734190Y-49553904D01*
X212543714Y-50982476D02*
X213210380Y-50982476D01*
X212162761Y-50744380D02*
X212877047Y-50506285D01*
X212877047Y-51125333D01*
%TO.C,R3*%
X211177666Y-45570380D02*
X211511000Y-45094190D01*
X211749095Y-45570380D02*
X211749095Y-44570380D01*
X211368142Y-44570380D01*
X211272904Y-44618000D01*
X211225285Y-44665619D01*
X211177666Y-44760857D01*
X211177666Y-44903714D01*
X211225285Y-44998952D01*
X211272904Y-45046571D01*
X211368142Y-45094190D01*
X211749095Y-45094190D01*
X210844333Y-44570380D02*
X210225285Y-44570380D01*
X210558619Y-44951333D01*
X210415761Y-44951333D01*
X210320523Y-44998952D01*
X210272904Y-45046571D01*
X210225285Y-45141809D01*
X210225285Y-45379904D01*
X210272904Y-45475142D01*
X210320523Y-45522761D01*
X210415761Y-45570380D01*
X210701476Y-45570380D01*
X210796714Y-45522761D01*
X210844333Y-45475142D01*
%TO.C,R2*%
X179936380Y-73239333D02*
X179460190Y-72906000D01*
X179936380Y-72667904D02*
X178936380Y-72667904D01*
X178936380Y-73048857D01*
X178984000Y-73144095D01*
X179031619Y-73191714D01*
X179126857Y-73239333D01*
X179269714Y-73239333D01*
X179364952Y-73191714D01*
X179412571Y-73144095D01*
X179460190Y-73048857D01*
X179460190Y-72667904D01*
X179031619Y-73620285D02*
X178984000Y-73667904D01*
X178936380Y-73763142D01*
X178936380Y-74001238D01*
X178984000Y-74096476D01*
X179031619Y-74144095D01*
X179126857Y-74191714D01*
X179222095Y-74191714D01*
X179364952Y-74144095D01*
X179936380Y-73572666D01*
X179936380Y-74191714D01*
%TO.C,R1*%
X179936380Y-69874333D02*
X179460190Y-69541000D01*
X179936380Y-69302904D02*
X178936380Y-69302904D01*
X178936380Y-69683857D01*
X178984000Y-69779095D01*
X179031619Y-69826714D01*
X179126857Y-69874333D01*
X179269714Y-69874333D01*
X179364952Y-69826714D01*
X179412571Y-69779095D01*
X179460190Y-69683857D01*
X179460190Y-69302904D01*
X179936380Y-70826714D02*
X179936380Y-70255285D01*
X179936380Y-70541000D02*
X178936380Y-70541000D01*
X179079238Y-70445761D01*
X179174476Y-70350523D01*
X179222095Y-70255285D01*
%TO.C,Q24*%
X229425428Y-15673619D02*
X229520666Y-15626000D01*
X229615904Y-15530761D01*
X229758761Y-15387904D01*
X229854000Y-15340285D01*
X229949238Y-15340285D01*
X229901619Y-15578380D02*
X229996857Y-15530761D01*
X230092095Y-15435523D01*
X230139714Y-15245047D01*
X230139714Y-14911714D01*
X230092095Y-14721238D01*
X229996857Y-14626000D01*
X229901619Y-14578380D01*
X229711142Y-14578380D01*
X229615904Y-14626000D01*
X229520666Y-14721238D01*
X229473047Y-14911714D01*
X229473047Y-15245047D01*
X229520666Y-15435523D01*
X229615904Y-15530761D01*
X229711142Y-15578380D01*
X229901619Y-15578380D01*
X229092095Y-14673619D02*
X229044476Y-14626000D01*
X228949238Y-14578380D01*
X228711142Y-14578380D01*
X228615904Y-14626000D01*
X228568285Y-14673619D01*
X228520666Y-14768857D01*
X228520666Y-14864095D01*
X228568285Y-15006952D01*
X229139714Y-15578380D01*
X228520666Y-15578380D01*
X227663523Y-14911714D02*
X227663523Y-15578380D01*
X227901619Y-14530761D02*
X228139714Y-15245047D01*
X227520666Y-15245047D01*
%TO.C,Q23*%
X238659619Y-45910571D02*
X238612000Y-45815333D01*
X238516761Y-45720095D01*
X238373904Y-45577238D01*
X238326285Y-45482000D01*
X238326285Y-45386761D01*
X238564380Y-45434380D02*
X238516761Y-45339142D01*
X238421523Y-45243904D01*
X238231047Y-45196285D01*
X237897714Y-45196285D01*
X237707238Y-45243904D01*
X237612000Y-45339142D01*
X237564380Y-45434380D01*
X237564380Y-45624857D01*
X237612000Y-45720095D01*
X237707238Y-45815333D01*
X237897714Y-45862952D01*
X238231047Y-45862952D01*
X238421523Y-45815333D01*
X238516761Y-45720095D01*
X238564380Y-45624857D01*
X238564380Y-45434380D01*
X237659619Y-46243904D02*
X237612000Y-46291523D01*
X237564380Y-46386761D01*
X237564380Y-46624857D01*
X237612000Y-46720095D01*
X237659619Y-46767714D01*
X237754857Y-46815333D01*
X237850095Y-46815333D01*
X237992952Y-46767714D01*
X238564380Y-46196285D01*
X238564380Y-46815333D01*
X237564380Y-47148666D02*
X237564380Y-47767714D01*
X237945333Y-47434380D01*
X237945333Y-47577238D01*
X237992952Y-47672476D01*
X238040571Y-47720095D01*
X238135809Y-47767714D01*
X238373904Y-47767714D01*
X238469142Y-47720095D01*
X238516761Y-47672476D01*
X238564380Y-47577238D01*
X238564380Y-47291523D01*
X238516761Y-47196285D01*
X238469142Y-47148666D01*
%TO.C,Q22*%
X220281428Y-29897619D02*
X220376666Y-29850000D01*
X220471904Y-29754761D01*
X220614761Y-29611904D01*
X220710000Y-29564285D01*
X220805238Y-29564285D01*
X220757619Y-29802380D02*
X220852857Y-29754761D01*
X220948095Y-29659523D01*
X220995714Y-29469047D01*
X220995714Y-29135714D01*
X220948095Y-28945238D01*
X220852857Y-28850000D01*
X220757619Y-28802380D01*
X220567142Y-28802380D01*
X220471904Y-28850000D01*
X220376666Y-28945238D01*
X220329047Y-29135714D01*
X220329047Y-29469047D01*
X220376666Y-29659523D01*
X220471904Y-29754761D01*
X220567142Y-29802380D01*
X220757619Y-29802380D01*
X219948095Y-28897619D02*
X219900476Y-28850000D01*
X219805238Y-28802380D01*
X219567142Y-28802380D01*
X219471904Y-28850000D01*
X219424285Y-28897619D01*
X219376666Y-28992857D01*
X219376666Y-29088095D01*
X219424285Y-29230952D01*
X219995714Y-29802380D01*
X219376666Y-29802380D01*
X218995714Y-28897619D02*
X218948095Y-28850000D01*
X218852857Y-28802380D01*
X218614761Y-28802380D01*
X218519523Y-28850000D01*
X218471904Y-28897619D01*
X218424285Y-28992857D01*
X218424285Y-29088095D01*
X218471904Y-29230952D01*
X219043333Y-29802380D01*
X218424285Y-29802380D01*
%TO.C,Q21*%
X220281428Y-14657619D02*
X220376666Y-14610000D01*
X220471904Y-14514761D01*
X220614761Y-14371904D01*
X220710000Y-14324285D01*
X220805238Y-14324285D01*
X220757619Y-14562380D02*
X220852857Y-14514761D01*
X220948095Y-14419523D01*
X220995714Y-14229047D01*
X220995714Y-13895714D01*
X220948095Y-13705238D01*
X220852857Y-13610000D01*
X220757619Y-13562380D01*
X220567142Y-13562380D01*
X220471904Y-13610000D01*
X220376666Y-13705238D01*
X220329047Y-13895714D01*
X220329047Y-14229047D01*
X220376666Y-14419523D01*
X220471904Y-14514761D01*
X220567142Y-14562380D01*
X220757619Y-14562380D01*
X219948095Y-13657619D02*
X219900476Y-13610000D01*
X219805238Y-13562380D01*
X219567142Y-13562380D01*
X219471904Y-13610000D01*
X219424285Y-13657619D01*
X219376666Y-13752857D01*
X219376666Y-13848095D01*
X219424285Y-13990952D01*
X219995714Y-14562380D01*
X219376666Y-14562380D01*
X218424285Y-14562380D02*
X218995714Y-14562380D01*
X218710000Y-14562380D02*
X218710000Y-13562380D01*
X218805238Y-13705238D01*
X218900476Y-13800476D01*
X218995714Y-13848095D01*
%TO.C,Q20*%
X220281428Y-19737619D02*
X220376666Y-19690000D01*
X220471904Y-19594761D01*
X220614761Y-19451904D01*
X220710000Y-19404285D01*
X220805238Y-19404285D01*
X220757619Y-19642380D02*
X220852857Y-19594761D01*
X220948095Y-19499523D01*
X220995714Y-19309047D01*
X220995714Y-18975714D01*
X220948095Y-18785238D01*
X220852857Y-18690000D01*
X220757619Y-18642380D01*
X220567142Y-18642380D01*
X220471904Y-18690000D01*
X220376666Y-18785238D01*
X220329047Y-18975714D01*
X220329047Y-19309047D01*
X220376666Y-19499523D01*
X220471904Y-19594761D01*
X220567142Y-19642380D01*
X220757619Y-19642380D01*
X219948095Y-18737619D02*
X219900476Y-18690000D01*
X219805238Y-18642380D01*
X219567142Y-18642380D01*
X219471904Y-18690000D01*
X219424285Y-18737619D01*
X219376666Y-18832857D01*
X219376666Y-18928095D01*
X219424285Y-19070952D01*
X219995714Y-19642380D01*
X219376666Y-19642380D01*
X218757619Y-18642380D02*
X218662380Y-18642380D01*
X218567142Y-18690000D01*
X218519523Y-18737619D01*
X218471904Y-18832857D01*
X218424285Y-19023333D01*
X218424285Y-19261428D01*
X218471904Y-19451904D01*
X218519523Y-19547142D01*
X218567142Y-19594761D01*
X218662380Y-19642380D01*
X218757619Y-19642380D01*
X218852857Y-19594761D01*
X218900476Y-19547142D01*
X218948095Y-19451904D01*
X218995714Y-19261428D01*
X218995714Y-19023333D01*
X218948095Y-18832857D01*
X218900476Y-18737619D01*
X218852857Y-18690000D01*
X218757619Y-18642380D01*
%TO.C,Q19*%
X220281428Y-24817619D02*
X220376666Y-24770000D01*
X220471904Y-24674761D01*
X220614761Y-24531904D01*
X220710000Y-24484285D01*
X220805238Y-24484285D01*
X220757619Y-24722380D02*
X220852857Y-24674761D01*
X220948095Y-24579523D01*
X220995714Y-24389047D01*
X220995714Y-24055714D01*
X220948095Y-23865238D01*
X220852857Y-23770000D01*
X220757619Y-23722380D01*
X220567142Y-23722380D01*
X220471904Y-23770000D01*
X220376666Y-23865238D01*
X220329047Y-24055714D01*
X220329047Y-24389047D01*
X220376666Y-24579523D01*
X220471904Y-24674761D01*
X220567142Y-24722380D01*
X220757619Y-24722380D01*
X219376666Y-24722380D02*
X219948095Y-24722380D01*
X219662380Y-24722380D02*
X219662380Y-23722380D01*
X219757619Y-23865238D01*
X219852857Y-23960476D01*
X219948095Y-24008095D01*
X218900476Y-24722380D02*
X218710000Y-24722380D01*
X218614761Y-24674761D01*
X218567142Y-24627142D01*
X218471904Y-24484285D01*
X218424285Y-24293809D01*
X218424285Y-23912857D01*
X218471904Y-23817619D01*
X218519523Y-23770000D01*
X218614761Y-23722380D01*
X218805238Y-23722380D01*
X218900476Y-23770000D01*
X218948095Y-23817619D01*
X218995714Y-23912857D01*
X218995714Y-24150952D01*
X218948095Y-24246190D01*
X218900476Y-24293809D01*
X218805238Y-24341428D01*
X218614761Y-24341428D01*
X218519523Y-24293809D01*
X218471904Y-24246190D01*
X218424285Y-24150952D01*
%TO.C,Q18*%
X234915619Y-45910571D02*
X234868000Y-45815333D01*
X234772761Y-45720095D01*
X234629904Y-45577238D01*
X234582285Y-45482000D01*
X234582285Y-45386761D01*
X234820380Y-45434380D02*
X234772761Y-45339142D01*
X234677523Y-45243904D01*
X234487047Y-45196285D01*
X234153714Y-45196285D01*
X233963238Y-45243904D01*
X233868000Y-45339142D01*
X233820380Y-45434380D01*
X233820380Y-45624857D01*
X233868000Y-45720095D01*
X233963238Y-45815333D01*
X234153714Y-45862952D01*
X234487047Y-45862952D01*
X234677523Y-45815333D01*
X234772761Y-45720095D01*
X234820380Y-45624857D01*
X234820380Y-45434380D01*
X234820380Y-46815333D02*
X234820380Y-46243904D01*
X234820380Y-46529619D02*
X233820380Y-46529619D01*
X233963238Y-46434380D01*
X234058476Y-46339142D01*
X234106095Y-46243904D01*
X234248952Y-47386761D02*
X234201333Y-47291523D01*
X234153714Y-47243904D01*
X234058476Y-47196285D01*
X234010857Y-47196285D01*
X233915619Y-47243904D01*
X233868000Y-47291523D01*
X233820380Y-47386761D01*
X233820380Y-47577238D01*
X233868000Y-47672476D01*
X233915619Y-47720095D01*
X234010857Y-47767714D01*
X234058476Y-47767714D01*
X234153714Y-47720095D01*
X234201333Y-47672476D01*
X234248952Y-47577238D01*
X234248952Y-47386761D01*
X234296571Y-47291523D01*
X234344190Y-47243904D01*
X234439428Y-47196285D01*
X234629904Y-47196285D01*
X234725142Y-47243904D01*
X234772761Y-47291523D01*
X234820380Y-47386761D01*
X234820380Y-47577238D01*
X234772761Y-47672476D01*
X234725142Y-47720095D01*
X234629904Y-47767714D01*
X234439428Y-47767714D01*
X234344190Y-47720095D01*
X234296571Y-47672476D01*
X234248952Y-47577238D01*
%TO.C,Q17*%
X231359619Y-45910571D02*
X231312000Y-45815333D01*
X231216761Y-45720095D01*
X231073904Y-45577238D01*
X231026285Y-45482000D01*
X231026285Y-45386761D01*
X231264380Y-45434380D02*
X231216761Y-45339142D01*
X231121523Y-45243904D01*
X230931047Y-45196285D01*
X230597714Y-45196285D01*
X230407238Y-45243904D01*
X230312000Y-45339142D01*
X230264380Y-45434380D01*
X230264380Y-45624857D01*
X230312000Y-45720095D01*
X230407238Y-45815333D01*
X230597714Y-45862952D01*
X230931047Y-45862952D01*
X231121523Y-45815333D01*
X231216761Y-45720095D01*
X231264380Y-45624857D01*
X231264380Y-45434380D01*
X231264380Y-46815333D02*
X231264380Y-46243904D01*
X231264380Y-46529619D02*
X230264380Y-46529619D01*
X230407238Y-46434380D01*
X230502476Y-46339142D01*
X230550095Y-46243904D01*
X230264380Y-47148666D02*
X230264380Y-47815333D01*
X231264380Y-47386761D01*
%TO.C,Q16*%
X227737619Y-45910571D02*
X227690000Y-45815333D01*
X227594761Y-45720095D01*
X227451904Y-45577238D01*
X227404285Y-45482000D01*
X227404285Y-45386761D01*
X227642380Y-45434380D02*
X227594761Y-45339142D01*
X227499523Y-45243904D01*
X227309047Y-45196285D01*
X226975714Y-45196285D01*
X226785238Y-45243904D01*
X226690000Y-45339142D01*
X226642380Y-45434380D01*
X226642380Y-45624857D01*
X226690000Y-45720095D01*
X226785238Y-45815333D01*
X226975714Y-45862952D01*
X227309047Y-45862952D01*
X227499523Y-45815333D01*
X227594761Y-45720095D01*
X227642380Y-45624857D01*
X227642380Y-45434380D01*
X227642380Y-46815333D02*
X227642380Y-46243904D01*
X227642380Y-46529619D02*
X226642380Y-46529619D01*
X226785238Y-46434380D01*
X226880476Y-46339142D01*
X226928095Y-46243904D01*
X226642380Y-47672476D02*
X226642380Y-47482000D01*
X226690000Y-47386761D01*
X226737619Y-47339142D01*
X226880476Y-47243904D01*
X227070952Y-47196285D01*
X227451904Y-47196285D01*
X227547142Y-47243904D01*
X227594761Y-47291523D01*
X227642380Y-47386761D01*
X227642380Y-47577238D01*
X227594761Y-47672476D01*
X227547142Y-47720095D01*
X227451904Y-47767714D01*
X227213809Y-47767714D01*
X227118571Y-47720095D01*
X227070952Y-47672476D01*
X227023333Y-47577238D01*
X227023333Y-47386761D01*
X227070952Y-47291523D01*
X227118571Y-47243904D01*
X227213809Y-47196285D01*
%TO.C,Q15*%
X189547428Y-28093619D02*
X189642666Y-28046000D01*
X189737904Y-27950761D01*
X189880761Y-27807904D01*
X189976000Y-27760285D01*
X190071238Y-27760285D01*
X190023619Y-27998380D02*
X190118857Y-27950761D01*
X190214095Y-27855523D01*
X190261714Y-27665047D01*
X190261714Y-27331714D01*
X190214095Y-27141238D01*
X190118857Y-27046000D01*
X190023619Y-26998380D01*
X189833142Y-26998380D01*
X189737904Y-27046000D01*
X189642666Y-27141238D01*
X189595047Y-27331714D01*
X189595047Y-27665047D01*
X189642666Y-27855523D01*
X189737904Y-27950761D01*
X189833142Y-27998380D01*
X190023619Y-27998380D01*
X188642666Y-27998380D02*
X189214095Y-27998380D01*
X188928380Y-27998380D02*
X188928380Y-26998380D01*
X189023619Y-27141238D01*
X189118857Y-27236476D01*
X189214095Y-27284095D01*
X187737904Y-26998380D02*
X188214095Y-26998380D01*
X188261714Y-27474571D01*
X188214095Y-27426952D01*
X188118857Y-27379333D01*
X187880761Y-27379333D01*
X187785523Y-27426952D01*
X187737904Y-27474571D01*
X187690285Y-27569809D01*
X187690285Y-27807904D01*
X187737904Y-27903142D01*
X187785523Y-27950761D01*
X187880761Y-27998380D01*
X188118857Y-27998380D01*
X188214095Y-27950761D01*
X188261714Y-27903142D01*
%TO.C,Q14*%
X224181619Y-45910571D02*
X224134000Y-45815333D01*
X224038761Y-45720095D01*
X223895904Y-45577238D01*
X223848285Y-45482000D01*
X223848285Y-45386761D01*
X224086380Y-45434380D02*
X224038761Y-45339142D01*
X223943523Y-45243904D01*
X223753047Y-45196285D01*
X223419714Y-45196285D01*
X223229238Y-45243904D01*
X223134000Y-45339142D01*
X223086380Y-45434380D01*
X223086380Y-45624857D01*
X223134000Y-45720095D01*
X223229238Y-45815333D01*
X223419714Y-45862952D01*
X223753047Y-45862952D01*
X223943523Y-45815333D01*
X224038761Y-45720095D01*
X224086380Y-45624857D01*
X224086380Y-45434380D01*
X224086380Y-46815333D02*
X224086380Y-46243904D01*
X224086380Y-46529619D02*
X223086380Y-46529619D01*
X223229238Y-46434380D01*
X223324476Y-46339142D01*
X223372095Y-46243904D01*
X223419714Y-47672476D02*
X224086380Y-47672476D01*
X223038761Y-47434380D02*
X223753047Y-47196285D01*
X223753047Y-47815333D01*
%TO.C,Q13*%
X189547428Y-23013619D02*
X189642666Y-22966000D01*
X189737904Y-22870761D01*
X189880761Y-22727904D01*
X189976000Y-22680285D01*
X190071238Y-22680285D01*
X190023619Y-22918380D02*
X190118857Y-22870761D01*
X190214095Y-22775523D01*
X190261714Y-22585047D01*
X190261714Y-22251714D01*
X190214095Y-22061238D01*
X190118857Y-21966000D01*
X190023619Y-21918380D01*
X189833142Y-21918380D01*
X189737904Y-21966000D01*
X189642666Y-22061238D01*
X189595047Y-22251714D01*
X189595047Y-22585047D01*
X189642666Y-22775523D01*
X189737904Y-22870761D01*
X189833142Y-22918380D01*
X190023619Y-22918380D01*
X188642666Y-22918380D02*
X189214095Y-22918380D01*
X188928380Y-22918380D02*
X188928380Y-21918380D01*
X189023619Y-22061238D01*
X189118857Y-22156476D01*
X189214095Y-22204095D01*
X188309333Y-21918380D02*
X187690285Y-21918380D01*
X188023619Y-22299333D01*
X187880761Y-22299333D01*
X187785523Y-22346952D01*
X187737904Y-22394571D01*
X187690285Y-22489809D01*
X187690285Y-22727904D01*
X187737904Y-22823142D01*
X187785523Y-22870761D01*
X187880761Y-22918380D01*
X188166476Y-22918380D01*
X188261714Y-22870761D01*
X188309333Y-22823142D01*
%TO.C,Q12*%
X188277428Y-50191619D02*
X188372666Y-50144000D01*
X188467904Y-50048761D01*
X188610761Y-49905904D01*
X188706000Y-49858285D01*
X188801238Y-49858285D01*
X188753619Y-50096380D02*
X188848857Y-50048761D01*
X188944095Y-49953523D01*
X188991714Y-49763047D01*
X188991714Y-49429714D01*
X188944095Y-49239238D01*
X188848857Y-49144000D01*
X188753619Y-49096380D01*
X188563142Y-49096380D01*
X188467904Y-49144000D01*
X188372666Y-49239238D01*
X188325047Y-49429714D01*
X188325047Y-49763047D01*
X188372666Y-49953523D01*
X188467904Y-50048761D01*
X188563142Y-50096380D01*
X188753619Y-50096380D01*
X187372666Y-50096380D02*
X187944095Y-50096380D01*
X187658380Y-50096380D02*
X187658380Y-49096380D01*
X187753619Y-49239238D01*
X187848857Y-49334476D01*
X187944095Y-49382095D01*
X186991714Y-49191619D02*
X186944095Y-49144000D01*
X186848857Y-49096380D01*
X186610761Y-49096380D01*
X186515523Y-49144000D01*
X186467904Y-49191619D01*
X186420285Y-49286857D01*
X186420285Y-49382095D01*
X186467904Y-49524952D01*
X187039333Y-50096380D01*
X186420285Y-50096380D01*
%TO.C,Q11*%
X197167428Y-21743619D02*
X197262666Y-21696000D01*
X197357904Y-21600761D01*
X197500761Y-21457904D01*
X197596000Y-21410285D01*
X197691238Y-21410285D01*
X197643619Y-21648380D02*
X197738857Y-21600761D01*
X197834095Y-21505523D01*
X197881714Y-21315047D01*
X197881714Y-20981714D01*
X197834095Y-20791238D01*
X197738857Y-20696000D01*
X197643619Y-20648380D01*
X197453142Y-20648380D01*
X197357904Y-20696000D01*
X197262666Y-20791238D01*
X197215047Y-20981714D01*
X197215047Y-21315047D01*
X197262666Y-21505523D01*
X197357904Y-21600761D01*
X197453142Y-21648380D01*
X197643619Y-21648380D01*
X196262666Y-21648380D02*
X196834095Y-21648380D01*
X196548380Y-21648380D02*
X196548380Y-20648380D01*
X196643619Y-20791238D01*
X196738857Y-20886476D01*
X196834095Y-20934095D01*
X195310285Y-21648380D02*
X195881714Y-21648380D01*
X195596000Y-21648380D02*
X195596000Y-20648380D01*
X195691238Y-20791238D01*
X195786476Y-20886476D01*
X195881714Y-20934095D01*
%TO.C,Q10*%
X220625619Y-45910571D02*
X220578000Y-45815333D01*
X220482761Y-45720095D01*
X220339904Y-45577238D01*
X220292285Y-45482000D01*
X220292285Y-45386761D01*
X220530380Y-45434380D02*
X220482761Y-45339142D01*
X220387523Y-45243904D01*
X220197047Y-45196285D01*
X219863714Y-45196285D01*
X219673238Y-45243904D01*
X219578000Y-45339142D01*
X219530380Y-45434380D01*
X219530380Y-45624857D01*
X219578000Y-45720095D01*
X219673238Y-45815333D01*
X219863714Y-45862952D01*
X220197047Y-45862952D01*
X220387523Y-45815333D01*
X220482761Y-45720095D01*
X220530380Y-45624857D01*
X220530380Y-45434380D01*
X220530380Y-46815333D02*
X220530380Y-46243904D01*
X220530380Y-46529619D02*
X219530380Y-46529619D01*
X219673238Y-46434380D01*
X219768476Y-46339142D01*
X219816095Y-46243904D01*
X219530380Y-47434380D02*
X219530380Y-47529619D01*
X219578000Y-47624857D01*
X219625619Y-47672476D01*
X219720857Y-47720095D01*
X219911333Y-47767714D01*
X220149428Y-47767714D01*
X220339904Y-47720095D01*
X220435142Y-47672476D01*
X220482761Y-47624857D01*
X220530380Y-47529619D01*
X220530380Y-47434380D01*
X220482761Y-47339142D01*
X220435142Y-47291523D01*
X220339904Y-47243904D01*
X220149428Y-47196285D01*
X219911333Y-47196285D01*
X219720857Y-47243904D01*
X219625619Y-47291523D01*
X219578000Y-47339142D01*
X219530380Y-47434380D01*
%TO.C,Q9*%
X196437238Y-35205619D02*
X196532476Y-35158000D01*
X196627714Y-35062761D01*
X196770571Y-34919904D01*
X196865809Y-34872285D01*
X196961047Y-34872285D01*
X196913428Y-35110380D02*
X197008666Y-35062761D01*
X197103904Y-34967523D01*
X197151523Y-34777047D01*
X197151523Y-34443714D01*
X197103904Y-34253238D01*
X197008666Y-34158000D01*
X196913428Y-34110380D01*
X196722952Y-34110380D01*
X196627714Y-34158000D01*
X196532476Y-34253238D01*
X196484857Y-34443714D01*
X196484857Y-34777047D01*
X196532476Y-34967523D01*
X196627714Y-35062761D01*
X196722952Y-35110380D01*
X196913428Y-35110380D01*
X196008666Y-35110380D02*
X195818190Y-35110380D01*
X195722952Y-35062761D01*
X195675333Y-35015142D01*
X195580095Y-34872285D01*
X195532476Y-34681809D01*
X195532476Y-34300857D01*
X195580095Y-34205619D01*
X195627714Y-34158000D01*
X195722952Y-34110380D01*
X195913428Y-34110380D01*
X196008666Y-34158000D01*
X196056285Y-34205619D01*
X196103904Y-34300857D01*
X196103904Y-34538952D01*
X196056285Y-34634190D01*
X196008666Y-34681809D01*
X195913428Y-34729428D01*
X195722952Y-34729428D01*
X195627714Y-34681809D01*
X195580095Y-34634190D01*
X195532476Y-34538952D01*
%TO.C,Q8*%
X196515738Y-30887619D02*
X196610976Y-30840000D01*
X196706214Y-30744761D01*
X196849071Y-30601904D01*
X196944309Y-30554285D01*
X197039547Y-30554285D01*
X196991928Y-30792380D02*
X197087166Y-30744761D01*
X197182404Y-30649523D01*
X197230023Y-30459047D01*
X197230023Y-30125714D01*
X197182404Y-29935238D01*
X197087166Y-29840000D01*
X196991928Y-29792380D01*
X196801452Y-29792380D01*
X196706214Y-29840000D01*
X196610976Y-29935238D01*
X196563357Y-30125714D01*
X196563357Y-30459047D01*
X196610976Y-30649523D01*
X196706214Y-30744761D01*
X196801452Y-30792380D01*
X196991928Y-30792380D01*
X195991928Y-30220952D02*
X196087166Y-30173333D01*
X196134785Y-30125714D01*
X196182404Y-30030476D01*
X196182404Y-29982857D01*
X196134785Y-29887619D01*
X196087166Y-29840000D01*
X195991928Y-29792380D01*
X195801452Y-29792380D01*
X195706214Y-29840000D01*
X195658595Y-29887619D01*
X195610976Y-29982857D01*
X195610976Y-30030476D01*
X195658595Y-30125714D01*
X195706214Y-30173333D01*
X195801452Y-30220952D01*
X195991928Y-30220952D01*
X196087166Y-30268571D01*
X196134785Y-30316190D01*
X196182404Y-30411428D01*
X196182404Y-30601904D01*
X196134785Y-30697142D01*
X196087166Y-30744761D01*
X195991928Y-30792380D01*
X195801452Y-30792380D01*
X195706214Y-30744761D01*
X195658595Y-30697142D01*
X195610976Y-30601904D01*
X195610976Y-30411428D01*
X195658595Y-30316190D01*
X195706214Y-30268571D01*
X195801452Y-30220952D01*
%TO.C,Q7*%
X192627238Y-50191619D02*
X192722476Y-50144000D01*
X192817714Y-50048761D01*
X192960571Y-49905904D01*
X193055809Y-49858285D01*
X193151047Y-49858285D01*
X193103428Y-50096380D02*
X193198666Y-50048761D01*
X193293904Y-49953523D01*
X193341523Y-49763047D01*
X193341523Y-49429714D01*
X193293904Y-49239238D01*
X193198666Y-49144000D01*
X193103428Y-49096380D01*
X192912952Y-49096380D01*
X192817714Y-49144000D01*
X192722476Y-49239238D01*
X192674857Y-49429714D01*
X192674857Y-49763047D01*
X192722476Y-49953523D01*
X192817714Y-50048761D01*
X192912952Y-50096380D01*
X193103428Y-50096380D01*
X192341523Y-49096380D02*
X191674857Y-49096380D01*
X192103428Y-50096380D01*
%TO.C,Q6*%
X188817238Y-33173619D02*
X188912476Y-33126000D01*
X189007714Y-33030761D01*
X189150571Y-32887904D01*
X189245809Y-32840285D01*
X189341047Y-32840285D01*
X189293428Y-33078380D02*
X189388666Y-33030761D01*
X189483904Y-32935523D01*
X189531523Y-32745047D01*
X189531523Y-32411714D01*
X189483904Y-32221238D01*
X189388666Y-32126000D01*
X189293428Y-32078380D01*
X189102952Y-32078380D01*
X189007714Y-32126000D01*
X188912476Y-32221238D01*
X188864857Y-32411714D01*
X188864857Y-32745047D01*
X188912476Y-32935523D01*
X189007714Y-33030761D01*
X189102952Y-33078380D01*
X189293428Y-33078380D01*
X188007714Y-32078380D02*
X188198190Y-32078380D01*
X188293428Y-32126000D01*
X188341047Y-32173619D01*
X188436285Y-32316476D01*
X188483904Y-32506952D01*
X188483904Y-32887904D01*
X188436285Y-32983142D01*
X188388666Y-33030761D01*
X188293428Y-33078380D01*
X188102952Y-33078380D01*
X188007714Y-33030761D01*
X187960095Y-32983142D01*
X187912476Y-32887904D01*
X187912476Y-32649809D01*
X187960095Y-32554571D01*
X188007714Y-32506952D01*
X188102952Y-32459333D01*
X188293428Y-32459333D01*
X188388666Y-32506952D01*
X188436285Y-32554571D01*
X188483904Y-32649809D01*
%TO.C,Q5*%
X188817238Y-18187619D02*
X188912476Y-18140000D01*
X189007714Y-18044761D01*
X189150571Y-17901904D01*
X189245809Y-17854285D01*
X189341047Y-17854285D01*
X189293428Y-18092380D02*
X189388666Y-18044761D01*
X189483904Y-17949523D01*
X189531523Y-17759047D01*
X189531523Y-17425714D01*
X189483904Y-17235238D01*
X189388666Y-17140000D01*
X189293428Y-17092380D01*
X189102952Y-17092380D01*
X189007714Y-17140000D01*
X188912476Y-17235238D01*
X188864857Y-17425714D01*
X188864857Y-17759047D01*
X188912476Y-17949523D01*
X189007714Y-18044761D01*
X189102952Y-18092380D01*
X189293428Y-18092380D01*
X187960095Y-17092380D02*
X188436285Y-17092380D01*
X188483904Y-17568571D01*
X188436285Y-17520952D01*
X188341047Y-17473333D01*
X188102952Y-17473333D01*
X188007714Y-17520952D01*
X187960095Y-17568571D01*
X187912476Y-17663809D01*
X187912476Y-17901904D01*
X187960095Y-17997142D01*
X188007714Y-18044761D01*
X188102952Y-18092380D01*
X188341047Y-18092380D01*
X188436285Y-18044761D01*
X188483904Y-17997142D01*
%TO.C,Q4*%
X217069619Y-46386761D02*
X217022000Y-46291523D01*
X216926761Y-46196285D01*
X216783904Y-46053428D01*
X216736285Y-45958190D01*
X216736285Y-45862952D01*
X216974380Y-45910571D02*
X216926761Y-45815333D01*
X216831523Y-45720095D01*
X216641047Y-45672476D01*
X216307714Y-45672476D01*
X216117238Y-45720095D01*
X216022000Y-45815333D01*
X215974380Y-45910571D01*
X215974380Y-46101047D01*
X216022000Y-46196285D01*
X216117238Y-46291523D01*
X216307714Y-46339142D01*
X216641047Y-46339142D01*
X216831523Y-46291523D01*
X216926761Y-46196285D01*
X216974380Y-46101047D01*
X216974380Y-45910571D01*
X216307714Y-47196285D02*
X216974380Y-47196285D01*
X215926761Y-46958190D02*
X216641047Y-46720095D01*
X216641047Y-47339142D01*
%TO.C,Q3*%
X196691238Y-18187619D02*
X196786476Y-18140000D01*
X196881714Y-18044761D01*
X197024571Y-17901904D01*
X197119809Y-17854285D01*
X197215047Y-17854285D01*
X197167428Y-18092380D02*
X197262666Y-18044761D01*
X197357904Y-17949523D01*
X197405523Y-17759047D01*
X197405523Y-17425714D01*
X197357904Y-17235238D01*
X197262666Y-17140000D01*
X197167428Y-17092380D01*
X196976952Y-17092380D01*
X196881714Y-17140000D01*
X196786476Y-17235238D01*
X196738857Y-17425714D01*
X196738857Y-17759047D01*
X196786476Y-17949523D01*
X196881714Y-18044761D01*
X196976952Y-18092380D01*
X197167428Y-18092380D01*
X196405523Y-17092380D02*
X195786476Y-17092380D01*
X196119809Y-17473333D01*
X195976952Y-17473333D01*
X195881714Y-17520952D01*
X195834095Y-17568571D01*
X195786476Y-17663809D01*
X195786476Y-17901904D01*
X195834095Y-17997142D01*
X195881714Y-18044761D01*
X195976952Y-18092380D01*
X196262666Y-18092380D01*
X196357904Y-18044761D01*
X196405523Y-17997142D01*
%TO.C,Q2*%
X197199238Y-50191619D02*
X197294476Y-50144000D01*
X197389714Y-50048761D01*
X197532571Y-49905904D01*
X197627809Y-49858285D01*
X197723047Y-49858285D01*
X197675428Y-50096380D02*
X197770666Y-50048761D01*
X197865904Y-49953523D01*
X197913523Y-49763047D01*
X197913523Y-49429714D01*
X197865904Y-49239238D01*
X197770666Y-49144000D01*
X197675428Y-49096380D01*
X197484952Y-49096380D01*
X197389714Y-49144000D01*
X197294476Y-49239238D01*
X197246857Y-49429714D01*
X197246857Y-49763047D01*
X197294476Y-49953523D01*
X197389714Y-50048761D01*
X197484952Y-50096380D01*
X197675428Y-50096380D01*
X196865904Y-49191619D02*
X196818285Y-49144000D01*
X196723047Y-49096380D01*
X196484952Y-49096380D01*
X196389714Y-49144000D01*
X196342095Y-49191619D01*
X196294476Y-49286857D01*
X196294476Y-49382095D01*
X196342095Y-49524952D01*
X196913523Y-50096380D01*
X196294476Y-50096380D01*
%TO.C,Q1*%
X213325619Y-46465261D02*
X213278000Y-46370023D01*
X213182761Y-46274785D01*
X213039904Y-46131928D01*
X212992285Y-46036690D01*
X212992285Y-45941452D01*
X213230380Y-45989071D02*
X213182761Y-45893833D01*
X213087523Y-45798595D01*
X212897047Y-45750976D01*
X212563714Y-45750976D01*
X212373238Y-45798595D01*
X212278000Y-45893833D01*
X212230380Y-45989071D01*
X212230380Y-46179547D01*
X212278000Y-46274785D01*
X212373238Y-46370023D01*
X212563714Y-46417642D01*
X212897047Y-46417642D01*
X213087523Y-46370023D01*
X213182761Y-46274785D01*
X213230380Y-46179547D01*
X213230380Y-45989071D01*
X213230380Y-47370023D02*
X213230380Y-46798595D01*
X213230380Y-47084309D02*
X212230380Y-47084309D01*
X212373238Y-46989071D01*
X212468476Y-46893833D01*
X212516095Y-46798595D01*
%TO.C,U6*%
X245041904Y-12732380D02*
X245041904Y-13541904D01*
X244994285Y-13637142D01*
X244946666Y-13684761D01*
X244851428Y-13732380D01*
X244660952Y-13732380D01*
X244565714Y-13684761D01*
X244518095Y-13637142D01*
X244470476Y-13541904D01*
X244470476Y-12732380D01*
X243565714Y-12732380D02*
X243756190Y-12732380D01*
X243851428Y-12780000D01*
X243899047Y-12827619D01*
X243994285Y-12970476D01*
X244041904Y-13160952D01*
X244041904Y-13541904D01*
X243994285Y-13637142D01*
X243946666Y-13684761D01*
X243851428Y-13732380D01*
X243660952Y-13732380D01*
X243565714Y-13684761D01*
X243518095Y-13637142D01*
X243470476Y-13541904D01*
X243470476Y-13303809D01*
X243518095Y-13208571D01*
X243565714Y-13160952D01*
X243660952Y-13113333D01*
X243851428Y-13113333D01*
X243946666Y-13160952D01*
X243994285Y-13208571D01*
X244041904Y-13303809D01*
%TO.C,U4*%
X260671904Y-12478380D02*
X260671904Y-13287904D01*
X260624285Y-13383142D01*
X260576666Y-13430761D01*
X260481428Y-13478380D01*
X260290952Y-13478380D01*
X260195714Y-13430761D01*
X260148095Y-13383142D01*
X260100476Y-13287904D01*
X260100476Y-12478380D01*
X259195714Y-12811714D02*
X259195714Y-13478380D01*
X259433809Y-12430761D02*
X259671904Y-13145047D01*
X259052857Y-13145047D01*
%TO.C,U2*%
X260349904Y-64206380D02*
X260349904Y-65015904D01*
X260302285Y-65111142D01*
X260254666Y-65158761D01*
X260159428Y-65206380D01*
X259968952Y-65206380D01*
X259873714Y-65158761D01*
X259826095Y-65111142D01*
X259778476Y-65015904D01*
X259778476Y-64206380D01*
X259349904Y-64301619D02*
X259302285Y-64254000D01*
X259207047Y-64206380D01*
X258968952Y-64206380D01*
X258873714Y-64254000D01*
X258826095Y-64301619D01*
X258778476Y-64396857D01*
X258778476Y-64492095D01*
X258826095Y-64634952D01*
X259397523Y-65206380D01*
X258778476Y-65206380D01*
D11*
%TO.C,U3*%
X229054500Y-76664000D02*
G75*
G03*
X229054500Y-76664000I-100000J0D01*
G01*
D12*
X238394500Y-70414000D02*
X238104500Y-70414000D01*
X238394500Y-77414000D02*
X238104500Y-77414000D01*
X231394500Y-70414000D02*
X231684500Y-70414000D01*
X231394500Y-77414000D02*
X231684500Y-77414000D01*
X238394500Y-70414000D02*
X238394500Y-70704000D01*
X238394500Y-77414000D02*
X238394500Y-77124000D01*
X231394500Y-70414000D02*
X231394500Y-70704000D01*
X231394500Y-77414000D02*
X231394500Y-77124000D01*
D13*
%TO.C,R39*%
X224552742Y-30211500D02*
X225027258Y-30211500D01*
X224552742Y-31256500D02*
X225027258Y-31256500D01*
%TO.C,R38*%
X224552742Y-14971500D02*
X225027258Y-14971500D01*
X224552742Y-16016500D02*
X225027258Y-16016500D01*
%TO.C,R37*%
X224552742Y-20051500D02*
X225027258Y-20051500D01*
X224552742Y-21096500D02*
X225027258Y-21096500D01*
%TO.C,R36*%
X224552742Y-25131500D02*
X225027258Y-25131500D01*
X224552742Y-26176500D02*
X225027258Y-26176500D01*
D11*
%TO.C,Y1*%
X251814000Y-63314000D02*
G75*
G03*
X251814000Y-63314000I-100000J0D01*
G01*
D12*
X251064000Y-62934000D02*
X252364000Y-62934000D01*
X251064000Y-59494000D02*
X252364000Y-59494000D01*
D13*
%TO.C,R35*%
X224804500Y-74946742D02*
X224804500Y-75421258D01*
X223759500Y-74946742D02*
X223759500Y-75421258D01*
%TO.C,R34*%
X179970988Y-42437742D02*
X179970988Y-42912258D01*
X178925988Y-42437742D02*
X178925988Y-42912258D01*
%TO.C,R33*%
X171813988Y-42912258D02*
X171813988Y-42437742D01*
X172858988Y-42912258D02*
X172858988Y-42437742D01*
%TO.C,R32*%
X180458250Y-48467742D02*
X180458250Y-48942258D01*
X179413250Y-48467742D02*
X179413250Y-48942258D01*
%TO.C,R31*%
X171793250Y-49704258D02*
X171793250Y-49229742D01*
X172838250Y-49704258D02*
X172838250Y-49229742D01*
%TO.C,R30*%
X253158258Y-34304500D02*
X252683742Y-34304500D01*
X253158258Y-33259500D02*
X252683742Y-33259500D01*
%TO.C,R29*%
X251951258Y-58688500D02*
X251476742Y-58688500D01*
X251951258Y-57643500D02*
X251476742Y-57643500D01*
%TO.C,R28*%
X245347258Y-34241500D02*
X244872742Y-34241500D01*
X245347258Y-33196500D02*
X244872742Y-33196500D01*
%TO.C,Q26*%
X176204250Y-41115000D02*
X175554250Y-41115000D01*
X176204250Y-44235000D02*
X175554250Y-44235000D01*
X176204250Y-41115000D02*
X177879250Y-41115000D01*
X176204250Y-44235000D02*
X176854250Y-44235000D01*
%TO.C,Q25*%
X175617750Y-47145000D02*
X174967750Y-47145000D01*
X175617750Y-50265000D02*
X174967750Y-50265000D01*
X175617750Y-47145000D02*
X177292750Y-47145000D01*
X175617750Y-50265000D02*
X176267750Y-50265000D01*
%TO.C,C5*%
X259701420Y-65022000D02*
X259982580Y-65022000D01*
X259701420Y-66042000D02*
X259982580Y-66042000D01*
%TO.C,C4*%
X223772000Y-72263580D02*
X223772000Y-71982420D01*
X224792000Y-72263580D02*
X224792000Y-71982420D01*
%TO.C,C3*%
X251712000Y-19698580D02*
X251712000Y-19417420D01*
X252732000Y-19698580D02*
X252732000Y-19417420D01*
%TO.C,C2*%
X267714000Y-19190580D02*
X267714000Y-18909420D01*
X268734000Y-19190580D02*
X268734000Y-18909420D01*
%TO.C,C1*%
X252732000Y-15848420D02*
X252732000Y-16129580D01*
X251712000Y-15848420D02*
X251712000Y-16129580D01*
D14*
%TO.C,SW1*%
X174083550Y-69310631D02*
G75*
G03*
X174083550Y-69310631I-381000J0D01*
G01*
D13*
%TO.C,R27*%
X232363742Y-16038300D02*
X232838258Y-16038300D01*
X232363742Y-17083300D02*
X232838258Y-17083300D01*
%TO.C,R26*%
X236205500Y-50783258D02*
X236205500Y-50308742D01*
X237250500Y-50783258D02*
X237250500Y-50308742D01*
%TO.C,R25*%
X236490742Y-43165500D02*
X236965258Y-43165500D01*
X236490742Y-44210500D02*
X236965258Y-44210500D01*
%TO.C,R24*%
X232461500Y-50720258D02*
X232461500Y-50245742D01*
X233506500Y-50720258D02*
X233506500Y-50245742D01*
%TO.C,R23*%
X232617742Y-43165500D02*
X233092258Y-43165500D01*
X232617742Y-44210500D02*
X233092258Y-44210500D01*
%TO.C,R22*%
X228905500Y-50720258D02*
X228905500Y-50245742D01*
X229950500Y-50720258D02*
X229950500Y-50245742D01*
%TO.C,R21*%
X228870742Y-43165500D02*
X229345258Y-43165500D01*
X228870742Y-44210500D02*
X229345258Y-44210500D01*
%TO.C,R20*%
X225283500Y-50529258D02*
X225283500Y-50054742D01*
X226328500Y-50529258D02*
X226328500Y-50054742D01*
%TO.C,R19*%
X225568742Y-43165500D02*
X226043258Y-43165500D01*
X225568742Y-44210500D02*
X226043258Y-44210500D01*
%TO.C,R18*%
X208802500Y-27194742D02*
X208802500Y-27669258D01*
X207757500Y-27194742D02*
X207757500Y-27669258D01*
%TO.C,R17*%
X213882500Y-27194742D02*
X213882500Y-27669258D01*
X212837500Y-27194742D02*
X212837500Y-27669258D01*
%TO.C,R16*%
X207757500Y-18525258D02*
X207757500Y-18050742D01*
X208802500Y-18525258D02*
X208802500Y-18050742D01*
%TO.C,R15*%
X203722500Y-27194742D02*
X203722500Y-27669258D01*
X202677500Y-27194742D02*
X202677500Y-27669258D01*
%TO.C,R14*%
X206262500Y-27194742D02*
X206262500Y-27669258D01*
X205217500Y-27194742D02*
X205217500Y-27669258D01*
%TO.C,R13*%
X211342500Y-27194742D02*
X211342500Y-27669258D01*
X210297500Y-27194742D02*
X210297500Y-27669258D01*
%TO.C,R12*%
X215377500Y-18525258D02*
X215377500Y-18050742D01*
X216422500Y-18525258D02*
X216422500Y-18050742D01*
%TO.C,R11*%
X205217500Y-18525258D02*
X205217500Y-18050742D01*
X206262500Y-18525258D02*
X206262500Y-18050742D01*
%TO.C,R10*%
X221727500Y-50529258D02*
X221727500Y-50054742D01*
X222772500Y-50529258D02*
X222772500Y-50054742D01*
%TO.C,R9*%
X221758742Y-43165500D02*
X222233258Y-43165500D01*
X221758742Y-44210500D02*
X222233258Y-44210500D01*
%TO.C,R8*%
X218171500Y-50529258D02*
X218171500Y-50054742D01*
X219216500Y-50529258D02*
X219216500Y-50054742D01*
%TO.C,R7*%
X218456742Y-43165500D02*
X218931258Y-43165500D01*
X218456742Y-44210500D02*
X218931258Y-44210500D01*
%TO.C,R6*%
X214615500Y-50529258D02*
X214615500Y-50054742D01*
X215660500Y-50529258D02*
X215660500Y-50054742D01*
%TO.C,R5*%
X214646742Y-43165500D02*
X215121258Y-43165500D01*
X214646742Y-44210500D02*
X215121258Y-44210500D01*
%TO.C,R4*%
X210805500Y-50529258D02*
X210805500Y-50054742D01*
X211850500Y-50529258D02*
X211850500Y-50054742D01*
%TO.C,R3*%
X210773742Y-43165500D02*
X211248258Y-43165500D01*
X210773742Y-44210500D02*
X211248258Y-44210500D01*
%TO.C,R2*%
X177531500Y-73643258D02*
X177531500Y-73168742D01*
X178576500Y-73643258D02*
X178576500Y-73168742D01*
%TO.C,R1*%
X177531500Y-70278258D02*
X177531500Y-69803742D01*
X178576500Y-70278258D02*
X178576500Y-69803742D01*
%TO.C,Q24*%
X228854000Y-15966000D02*
X228204000Y-15966000D01*
X228854000Y-19086000D02*
X228204000Y-19086000D01*
X228854000Y-15966000D02*
X230529000Y-15966000D01*
X228854000Y-19086000D02*
X229504000Y-19086000D01*
%TO.C,Q23*%
X237272000Y-46482000D02*
X237272000Y-45832000D01*
X234152000Y-46482000D02*
X234152000Y-45832000D01*
X237272000Y-46482000D02*
X237272000Y-48157000D01*
X234152000Y-46482000D02*
X234152000Y-47132000D01*
%TO.C,Q22*%
X219710000Y-30190000D02*
X219060000Y-30190000D01*
X219710000Y-33310000D02*
X219060000Y-33310000D01*
X219710000Y-30190000D02*
X221385000Y-30190000D01*
X219710000Y-33310000D02*
X220360000Y-33310000D01*
%TO.C,Q21*%
X219710000Y-14950000D02*
X219060000Y-14950000D01*
X219710000Y-18070000D02*
X219060000Y-18070000D01*
X219710000Y-14950000D02*
X221385000Y-14950000D01*
X219710000Y-18070000D02*
X220360000Y-18070000D01*
%TO.C,Q20*%
X219710000Y-20030000D02*
X219060000Y-20030000D01*
X219710000Y-23150000D02*
X219060000Y-23150000D01*
X219710000Y-20030000D02*
X221385000Y-20030000D01*
X219710000Y-23150000D02*
X220360000Y-23150000D01*
%TO.C,Q19*%
X219710000Y-25110000D02*
X219060000Y-25110000D01*
X219710000Y-28230000D02*
X219060000Y-28230000D01*
X219710000Y-25110000D02*
X221385000Y-25110000D01*
X219710000Y-28230000D02*
X220360000Y-28230000D01*
%TO.C,Q18*%
X233528000Y-46482000D02*
X233528000Y-45832000D01*
X230408000Y-46482000D02*
X230408000Y-45832000D01*
X233528000Y-46482000D02*
X233528000Y-48157000D01*
X230408000Y-46482000D02*
X230408000Y-47132000D01*
%TO.C,Q17*%
X229972000Y-46482000D02*
X229972000Y-45832000D01*
X226852000Y-46482000D02*
X226852000Y-45832000D01*
X229972000Y-46482000D02*
X229972000Y-48157000D01*
X226852000Y-46482000D02*
X226852000Y-47132000D01*
%TO.C,Q16*%
X226350000Y-46482000D02*
X226350000Y-45832000D01*
X223230000Y-46482000D02*
X223230000Y-45832000D01*
X226350000Y-46482000D02*
X226350000Y-48157000D01*
X223230000Y-46482000D02*
X223230000Y-47132000D01*
%TO.C,Q15*%
X188976000Y-26706000D02*
X189626000Y-26706000D01*
X188976000Y-23586000D02*
X189626000Y-23586000D01*
X188976000Y-26706000D02*
X187301000Y-26706000D01*
X188976000Y-23586000D02*
X188326000Y-23586000D01*
%TO.C,Q14*%
X222794000Y-46482000D02*
X222794000Y-45832000D01*
X219674000Y-46482000D02*
X219674000Y-45832000D01*
X222794000Y-46482000D02*
X222794000Y-48157000D01*
X219674000Y-46482000D02*
X219674000Y-47132000D01*
%TO.C,Q13*%
X188976000Y-21626000D02*
X189626000Y-21626000D01*
X188976000Y-18506000D02*
X189626000Y-18506000D01*
X188976000Y-21626000D02*
X187301000Y-21626000D01*
X188976000Y-18506000D02*
X188326000Y-18506000D01*
%TO.C,Q12*%
X187706000Y-48804000D02*
X188356000Y-48804000D01*
X187706000Y-45684000D02*
X188356000Y-45684000D01*
X187706000Y-48804000D02*
X186031000Y-48804000D01*
X187706000Y-45684000D02*
X187056000Y-45684000D01*
%TO.C,Q11*%
X196596000Y-20356000D02*
X197246000Y-20356000D01*
X196596000Y-17236000D02*
X197246000Y-17236000D01*
X196596000Y-20356000D02*
X194921000Y-20356000D01*
X196596000Y-17236000D02*
X195946000Y-17236000D01*
%TO.C,Q10*%
X219238000Y-46482000D02*
X219238000Y-45832000D01*
X216118000Y-46482000D02*
X216118000Y-45832000D01*
X219238000Y-46482000D02*
X219238000Y-48157000D01*
X216118000Y-46482000D02*
X216118000Y-47132000D01*
%TO.C,Q9*%
X196342000Y-33818000D02*
X196992000Y-33818000D01*
X196342000Y-30698000D02*
X196992000Y-30698000D01*
X196342000Y-33818000D02*
X194667000Y-33818000D01*
X196342000Y-30698000D02*
X195692000Y-30698000D01*
%TO.C,Q8*%
X196420500Y-29500000D02*
X197070500Y-29500000D01*
X196420500Y-26380000D02*
X197070500Y-26380000D01*
X196420500Y-29500000D02*
X194745500Y-29500000D01*
X196420500Y-26380000D02*
X195770500Y-26380000D01*
%TO.C,Q7*%
X192532000Y-48804000D02*
X193182000Y-48804000D01*
X192532000Y-45684000D02*
X193182000Y-45684000D01*
X192532000Y-48804000D02*
X190857000Y-48804000D01*
X192532000Y-45684000D02*
X191882000Y-45684000D01*
%TO.C,Q6*%
X188722000Y-31786000D02*
X189372000Y-31786000D01*
X188722000Y-28666000D02*
X189372000Y-28666000D01*
X188722000Y-31786000D02*
X187047000Y-31786000D01*
X188722000Y-28666000D02*
X188072000Y-28666000D01*
%TO.C,Q5*%
X188722000Y-16800000D02*
X189372000Y-16800000D01*
X188722000Y-13680000D02*
X189372000Y-13680000D01*
X188722000Y-16800000D02*
X187047000Y-16800000D01*
X188722000Y-13680000D02*
X188072000Y-13680000D01*
%TO.C,Q4*%
X215682000Y-46482000D02*
X215682000Y-45832000D01*
X212562000Y-46482000D02*
X212562000Y-45832000D01*
X215682000Y-46482000D02*
X215682000Y-48157000D01*
X212562000Y-46482000D02*
X212562000Y-47132000D01*
%TO.C,Q3*%
X196596000Y-16800000D02*
X197246000Y-16800000D01*
X196596000Y-13680000D02*
X197246000Y-13680000D01*
X196596000Y-16800000D02*
X194921000Y-16800000D01*
X196596000Y-13680000D02*
X195946000Y-13680000D01*
%TO.C,Q2*%
X197104000Y-48804000D02*
X197754000Y-48804000D01*
X197104000Y-45684000D02*
X197754000Y-45684000D01*
X197104000Y-48804000D02*
X195429000Y-48804000D01*
X197104000Y-45684000D02*
X196454000Y-45684000D01*
%TO.C,Q1*%
X211938000Y-46560500D02*
X211938000Y-45910500D01*
X208818000Y-46560500D02*
X208818000Y-45910500D01*
X211938000Y-46560500D02*
X211938000Y-48235500D01*
X208818000Y-46560500D02*
X208818000Y-47210500D01*
%TO.C,J15*%
X161822600Y-65862200D02*
G75*
G03*
X161822600Y-65862200I-381000J0D01*
G01*
%TO.C,J10*%
X161822600Y-58242200D02*
G75*
G03*
X161822600Y-58242200I-381000J0D01*
G01*
%TO.C,U6*%
X246750000Y-21230000D02*
X246750000Y-20960000D01*
X246750000Y-14330000D02*
X246750000Y-14600000D01*
X245250000Y-21230000D02*
X246750000Y-21230000D01*
X246750000Y-20960000D02*
X247850000Y-20960000D01*
X246750000Y-14600000D02*
X249580000Y-14600000D01*
X245250000Y-14330000D02*
X246750000Y-14330000D01*
%TO.C,U4*%
X262380000Y-20976000D02*
X262380000Y-20706000D01*
X262380000Y-14076000D02*
X262380000Y-14346000D01*
X260880000Y-20976000D02*
X262380000Y-20976000D01*
X262380000Y-20706000D02*
X263480000Y-20706000D01*
X262380000Y-14346000D02*
X265210000Y-14346000D01*
X260880000Y-14076000D02*
X262380000Y-14076000D01*
%TO.C,U2*%
X259588000Y-63914000D02*
X255728000Y-63914000D01*
X259588000Y-50894000D02*
X255728000Y-50894000D01*
X259588000Y-50894000D02*
X263448000Y-50894000D01*
X255728000Y-50894000D02*
X255728000Y-51129000D01*
X255728000Y-63679000D02*
X253913000Y-63679000D01*
X255728000Y-63914000D02*
X255728000Y-63679000D01*
X263448000Y-50894000D02*
X263448000Y-51129000D01*
X263448000Y-63914000D02*
X263448000Y-63679000D01*
X259588000Y-63914000D02*
X263448000Y-63914000D01*
%TD*%
M02*
