%TF.GenerationSoftware,KiCad,Pcbnew,(6.0.1)*%
%TF.CreationDate,2023-03-04T22:59:05-07:00*%
%TF.ProjectId,DevBoard2.0,44657642-6f61-4726-9432-2e302e6b6963,rev?*%
%TF.SameCoordinates,Original*%
%TF.FileFunction,Soldermask,Bot*%
%TF.FilePolarity,Negative*%
%FSLAX46Y46*%
G04 Gerber Fmt 4.6, Leading zero omitted, Abs format (unit mm)*
G04 Created by KiCad (PCBNEW (6.0.1)) date 2023-03-04 22:59:05*
%MOMM*%
%LPD*%
G01*
G04 APERTURE LIST*
G04 Aperture macros list*
%AMRoundRect*
0 Rectangle with rounded corners*
0 $1 Rounding radius*
0 $2 $3 $4 $5 $6 $7 $8 $9 X,Y pos of 4 corners*
0 Add a 4 corners polygon primitive as box body*
4,1,4,$2,$3,$4,$5,$6,$7,$8,$9,$2,$3,0*
0 Add four circle primitives for the rounded corners*
1,1,$1+$1,$2,$3*
1,1,$1+$1,$4,$5*
1,1,$1+$1,$6,$7*
1,1,$1+$1,$8,$9*
0 Add four rect primitives between the rounded corners*
20,1,$1+$1,$2,$3,$4,$5,0*
20,1,$1+$1,$4,$5,$6,$7,0*
20,1,$1+$1,$6,$7,$8,$9,0*
20,1,$1+$1,$8,$9,$2,$3,0*%
G04 Aperture macros list end*
%ADD10RoundRect,0.011200X-0.128800X0.768800X-0.128800X-0.768800X0.128800X-0.768800X0.128800X0.768800X0*%
%ADD11RoundRect,0.011200X-0.768800X-0.128800X0.768800X-0.128800X0.768800X0.128800X-0.768800X0.128800X0*%
%ADD12C,1.650000*%
%ADD13R,1.650000X1.650000*%
%ADD14C,2.400000*%
%ADD15C,1.950000*%
%ADD16R,1.700000X1.700000*%
%ADD17O,1.700000X1.700000*%
%ADD18C,3.200000*%
%ADD19O,1.143000X1.397000*%
%ADD20RoundRect,0.200000X-0.200000X-0.275000X0.200000X-0.275000X0.200000X0.275000X-0.200000X0.275000X0*%
%ADD21R,1.900000X0.400000*%
%ADD22RoundRect,0.200000X-0.275000X0.200000X-0.275000X-0.200000X0.275000X-0.200000X0.275000X0.200000X0*%
%ADD23RoundRect,0.200000X0.275000X-0.200000X0.275000X0.200000X-0.275000X0.200000X-0.275000X-0.200000X0*%
%ADD24RoundRect,0.200000X0.200000X0.275000X-0.200000X0.275000X-0.200000X-0.275000X0.200000X-0.275000X0*%
%ADD25RoundRect,0.150000X0.587500X0.150000X-0.587500X0.150000X-0.587500X-0.150000X0.587500X-0.150000X0*%
%ADD26R,1.800000X1.800000*%
%ADD27C,1.800000*%
%ADD28RoundRect,0.225000X-0.225000X-0.250000X0.225000X-0.250000X0.225000X0.250000X-0.225000X0.250000X0*%
%ADD29RoundRect,0.225000X0.250000X-0.225000X0.250000X0.225000X-0.250000X0.225000X-0.250000X-0.225000X0*%
%ADD30RoundRect,0.225000X-0.250000X0.225000X-0.250000X-0.225000X0.250000X-0.225000X0.250000X0.225000X0*%
%ADD31C,1.701800*%
%ADD32C,3.048000*%
%ADD33RoundRect,0.150000X0.150000X-0.587500X0.150000X0.587500X-0.150000X0.587500X-0.150000X-0.587500X0*%
%ADD34RoundRect,0.150000X-0.587500X-0.150000X0.587500X-0.150000X0.587500X0.150000X-0.587500X0.150000X0*%
%ADD35R,1.100000X1.100000*%
%ADD36C,1.100000*%
%ADD37O,1.100000X2.400000*%
%ADD38R,2.200000X1.200000*%
%ADD39R,6.400000X5.800000*%
%ADD40C,1.500000*%
%ADD41R,1.500000X1.500000*%
%ADD42RoundRect,0.875000X0.875000X0.875000X-0.875000X0.875000X-0.875000X-0.875000X0.875000X-0.875000X0*%
%ADD43RoundRect,0.750000X0.750000X1.000000X-0.750000X1.000000X-0.750000X-1.000000X0.750000X-1.000000X0*%
%ADD44R,3.500000X3.500000*%
%ADD45RoundRect,0.150000X-0.875000X-0.150000X0.875000X-0.150000X0.875000X0.150000X-0.875000X0.150000X0*%
G04 APERTURE END LIST*
D10*
%TO.C,U3*%
X232144500Y-69734000D03*
X232644500Y-69734000D03*
X233144500Y-69734000D03*
X233644500Y-69734000D03*
X234144500Y-69734000D03*
X234644500Y-69734000D03*
X235144500Y-69734000D03*
X235644500Y-69734000D03*
X236144500Y-69734000D03*
X236644500Y-69734000D03*
X237144500Y-69734000D03*
X237644500Y-69734000D03*
X237644500Y-78094000D03*
X237144500Y-78094000D03*
X236644500Y-78094000D03*
X236144500Y-78094000D03*
X235644500Y-78094000D03*
X235144500Y-78094000D03*
X234644500Y-78094000D03*
X234144500Y-78094000D03*
X233644500Y-78094000D03*
X233144500Y-78094000D03*
X232644500Y-78094000D03*
X232144500Y-78094000D03*
D11*
X230714500Y-76664000D03*
X230714500Y-76164000D03*
X230714500Y-75664000D03*
X230714500Y-75164000D03*
X230714500Y-74664000D03*
X230714500Y-74164000D03*
X230714500Y-73664000D03*
X230714500Y-73164000D03*
X230714500Y-72664000D03*
X230714500Y-72164000D03*
X230714500Y-71664000D03*
X230714500Y-71164000D03*
X239074500Y-71164000D03*
X239074500Y-71664000D03*
X239074500Y-72164000D03*
X239074500Y-72664000D03*
X239074500Y-73164000D03*
X239074500Y-73664000D03*
X239074500Y-74164000D03*
X239074500Y-74664000D03*
X239074500Y-75164000D03*
X239074500Y-75664000D03*
X239074500Y-76164000D03*
X239074500Y-76664000D03*
%TD*%
D12*
%TO.C,U1*%
X263812000Y-73192000D03*
X263812000Y-75692000D03*
X263812000Y-78192000D03*
D13*
X275042000Y-66962000D03*
D12*
X272542000Y-66962000D03*
X270042000Y-66962000D03*
D14*
X267542000Y-69367000D03*
X267542000Y-82017000D03*
X277542000Y-82017000D03*
X277542000Y-69367000D03*
D15*
X278292000Y-78942000D03*
X282792000Y-78942000D03*
X278292000Y-72442000D03*
X282792000Y-72442000D03*
%TD*%
D16*
%TO.C,J26*%
X176657000Y-58039000D03*
D17*
X176657000Y-60579000D03*
X176657000Y-63119000D03*
X176657000Y-65659000D03*
%TD*%
D18*
%TO.C,REF\u002A\u002A*%
X278000000Y-16000000D03*
%TD*%
%TO.C,REF\u002A\u002A*%
X278000000Y-61000000D03*
%TD*%
%TO.C,REF\u002A\u002A*%
X170000000Y-61000000D03*
%TD*%
%TO.C,REF\u002A\u002A*%
X170000000Y-16000000D03*
%TD*%
D19*
%TO.C,LED2*%
X189863100Y-60706000D03*
X192403100Y-60706000D03*
X191133100Y-60706000D03*
X193673100Y-60706000D03*
%TD*%
D16*
%TO.C,J19*%
X164416000Y-38618000D03*
D17*
X164416000Y-41158000D03*
X164416000Y-43698000D03*
X164416000Y-46238000D03*
%TD*%
D16*
%TO.C,J16*%
X159766000Y-38618000D03*
D17*
X159766000Y-41158000D03*
X159766000Y-43698000D03*
X159766000Y-46238000D03*
%TD*%
D20*
%TO.C,R39*%
X223965000Y-30734000D03*
X225615000Y-30734000D03*
%TD*%
%TO.C,R38*%
X223965000Y-15494000D03*
X225615000Y-15494000D03*
%TD*%
%TO.C,R37*%
X223965000Y-20574000D03*
X225615000Y-20574000D03*
%TD*%
%TO.C,R36*%
X223965000Y-25654000D03*
X225615000Y-25654000D03*
%TD*%
D16*
%TO.C,J12*%
X201676000Y-37338000D03*
D17*
X199136000Y-37338000D03*
X196596000Y-37338000D03*
X194056000Y-37338000D03*
X191516000Y-37338000D03*
X188976000Y-37338000D03*
X186436000Y-37338000D03*
X183896000Y-37338000D03*
%TD*%
D16*
%TO.C,J18*%
X230872900Y-54864000D03*
D17*
X228332900Y-54864000D03*
X225792900Y-54864000D03*
X223252900Y-54864000D03*
X220712900Y-54864000D03*
X218172900Y-54864000D03*
X215632900Y-54864000D03*
X213092900Y-54864000D03*
%TD*%
%TO.C,J17*%
X215392000Y-72888000D03*
X217932000Y-72888000D03*
X215392000Y-75428000D03*
X217932000Y-75428000D03*
X215392000Y-77968000D03*
X217932000Y-77968000D03*
X215392000Y-80508000D03*
D16*
X217932000Y-80508000D03*
%TD*%
D21*
%TO.C,Y1*%
X251714000Y-61214000D03*
X251714000Y-62414000D03*
X251714000Y-60014000D03*
%TD*%
D22*
%TO.C,R35*%
X224282000Y-74359000D03*
X224282000Y-76009000D03*
%TD*%
%TO.C,R34*%
X179448488Y-41850000D03*
X179448488Y-43500000D03*
%TD*%
D23*
%TO.C,R33*%
X172336488Y-43500000D03*
X172336488Y-41850000D03*
%TD*%
D22*
%TO.C,R32*%
X179935750Y-47880000D03*
X179935750Y-49530000D03*
%TD*%
D23*
%TO.C,R31*%
X172315750Y-50292000D03*
X172315750Y-48642000D03*
%TD*%
D24*
%TO.C,R30*%
X253746000Y-33782000D03*
X252096000Y-33782000D03*
%TD*%
%TO.C,R29*%
X252539000Y-58166000D03*
X250889000Y-58166000D03*
%TD*%
%TO.C,R28*%
X245935000Y-33719000D03*
X244285000Y-33719000D03*
%TD*%
D25*
%TO.C,Q26*%
X177141750Y-41725000D03*
X177141750Y-43625000D03*
X175266750Y-42675000D03*
%TD*%
%TO.C,Q25*%
X176555250Y-47755000D03*
X176555250Y-49655000D03*
X174680250Y-48705000D03*
%TD*%
D16*
%TO.C,J25*%
X221488000Y-37846000D03*
D17*
X224028000Y-37846000D03*
X226568000Y-37846000D03*
X229108000Y-37846000D03*
X231648000Y-37846000D03*
X234188000Y-37846000D03*
%TD*%
D16*
%TO.C,J14*%
X181610000Y-69860000D03*
D17*
X181610000Y-72400000D03*
X181610000Y-74940000D03*
X181610000Y-77480000D03*
%TD*%
D16*
%TO.C,J13*%
X257556000Y-72400000D03*
D17*
X257556000Y-74940000D03*
X257556000Y-77480000D03*
X257556000Y-80020000D03*
%TD*%
D16*
%TO.C,J11*%
X196851900Y-54610000D03*
D17*
X194311900Y-54610000D03*
X191771900Y-54610000D03*
X189231900Y-54610000D03*
%TD*%
D16*
%TO.C,J6*%
X255778000Y-47244000D03*
D17*
X258318000Y-47244000D03*
X260858000Y-47244000D03*
X263398000Y-47244000D03*
%TD*%
D26*
%TO.C,D2*%
X251709000Y-38354000D03*
D27*
X254249000Y-38354000D03*
%TD*%
D26*
%TO.C,D1*%
X244343000Y-38354000D03*
D27*
X246883000Y-38354000D03*
%TD*%
D28*
%TO.C,C5*%
X259067000Y-65532000D03*
X260617000Y-65532000D03*
%TD*%
D29*
%TO.C,C4*%
X224282000Y-72898000D03*
X224282000Y-71348000D03*
%TD*%
%TO.C,C3*%
X252222000Y-20333000D03*
X252222000Y-18783000D03*
%TD*%
%TO.C,C2*%
X268224000Y-19825000D03*
X268224000Y-18275000D03*
%TD*%
D30*
%TO.C,C1*%
X252222000Y-15214000D03*
X252222000Y-16764000D03*
%TD*%
D31*
%TO.C,SW1*%
X173702550Y-73770231D03*
X173702550Y-78770231D03*
X159202551Y-73770231D03*
X159202551Y-78770231D03*
D32*
X166702551Y-70670293D03*
X166702551Y-81870169D03*
%TD*%
D20*
%TO.C,R27*%
X231776000Y-16560800D03*
X233426000Y-16560800D03*
%TD*%
D23*
%TO.C,R26*%
X236728000Y-51371000D03*
X236728000Y-49721000D03*
%TD*%
D20*
%TO.C,R25*%
X235903000Y-43688000D03*
X237553000Y-43688000D03*
%TD*%
D23*
%TO.C,R24*%
X232984000Y-51308000D03*
X232984000Y-49658000D03*
%TD*%
D20*
%TO.C,R23*%
X232030000Y-43688000D03*
X233680000Y-43688000D03*
%TD*%
D23*
%TO.C,R22*%
X229428000Y-51308000D03*
X229428000Y-49658000D03*
%TD*%
D20*
%TO.C,R21*%
X228283000Y-43688000D03*
X229933000Y-43688000D03*
%TD*%
D23*
%TO.C,R20*%
X225806000Y-51117000D03*
X225806000Y-49467000D03*
%TD*%
D20*
%TO.C,R19*%
X224981000Y-43688000D03*
X226631000Y-43688000D03*
%TD*%
D22*
%TO.C,R18*%
X208280000Y-26607000D03*
X208280000Y-28257000D03*
%TD*%
%TO.C,R17*%
X213360000Y-26607000D03*
X213360000Y-28257000D03*
%TD*%
D23*
%TO.C,R16*%
X208280000Y-19113000D03*
X208280000Y-17463000D03*
%TD*%
D22*
%TO.C,R15*%
X203200000Y-26607000D03*
X203200000Y-28257000D03*
%TD*%
%TO.C,R14*%
X205740000Y-26607000D03*
X205740000Y-28257000D03*
%TD*%
%TO.C,R13*%
X210820000Y-26607000D03*
X210820000Y-28257000D03*
%TD*%
D23*
%TO.C,R12*%
X215900000Y-19113000D03*
X215900000Y-17463000D03*
%TD*%
%TO.C,R11*%
X205740000Y-19113000D03*
X205740000Y-17463000D03*
%TD*%
%TO.C,R10*%
X222250000Y-51117000D03*
X222250000Y-49467000D03*
%TD*%
D20*
%TO.C,R9*%
X221171000Y-43688000D03*
X222821000Y-43688000D03*
%TD*%
D23*
%TO.C,R8*%
X218694000Y-51117000D03*
X218694000Y-49467000D03*
%TD*%
D20*
%TO.C,R7*%
X217869000Y-43688000D03*
X219519000Y-43688000D03*
%TD*%
D23*
%TO.C,R6*%
X215138000Y-51117000D03*
X215138000Y-49467000D03*
%TD*%
D20*
%TO.C,R5*%
X214059000Y-43688000D03*
X215709000Y-43688000D03*
%TD*%
D23*
%TO.C,R4*%
X211328000Y-51117000D03*
X211328000Y-49467000D03*
%TD*%
D20*
%TO.C,R3*%
X210186000Y-43688000D03*
X211836000Y-43688000D03*
%TD*%
D23*
%TO.C,R2*%
X178054000Y-74231000D03*
X178054000Y-72581000D03*
%TD*%
%TO.C,R1*%
X178054000Y-70866000D03*
X178054000Y-69216000D03*
%TD*%
D25*
%TO.C,Q24*%
X229791500Y-16576000D03*
X229791500Y-18476000D03*
X227916500Y-17526000D03*
%TD*%
D33*
%TO.C,Q23*%
X236662000Y-47419500D03*
X234762000Y-47419500D03*
X235712000Y-45544500D03*
%TD*%
D25*
%TO.C,Q22*%
X220647500Y-30800000D03*
X220647500Y-32700000D03*
X218772500Y-31750000D03*
%TD*%
%TO.C,Q21*%
X220647500Y-15560000D03*
X220647500Y-17460000D03*
X218772500Y-16510000D03*
%TD*%
%TO.C,Q20*%
X220647500Y-20640000D03*
X220647500Y-22540000D03*
X218772500Y-21590000D03*
%TD*%
%TO.C,Q19*%
X220647500Y-25720000D03*
X220647500Y-27620000D03*
X218772500Y-26670000D03*
%TD*%
D33*
%TO.C,Q18*%
X232918000Y-47419500D03*
X231018000Y-47419500D03*
X231968000Y-45544500D03*
%TD*%
%TO.C,Q17*%
X229362000Y-47419500D03*
X227462000Y-47419500D03*
X228412000Y-45544500D03*
%TD*%
%TO.C,Q16*%
X225740000Y-47419500D03*
X223840000Y-47419500D03*
X224790000Y-45544500D03*
%TD*%
D34*
%TO.C,Q15*%
X188038500Y-26096000D03*
X188038500Y-24196000D03*
X189913500Y-25146000D03*
%TD*%
D33*
%TO.C,Q14*%
X222184000Y-47419500D03*
X220284000Y-47419500D03*
X221234000Y-45544500D03*
%TD*%
D34*
%TO.C,Q13*%
X188038500Y-21016000D03*
X188038500Y-19116000D03*
X189913500Y-20066000D03*
%TD*%
%TO.C,Q12*%
X186768500Y-48194000D03*
X186768500Y-46294000D03*
X188643500Y-47244000D03*
%TD*%
%TO.C,Q11*%
X195658500Y-19746000D03*
X195658500Y-17846000D03*
X197533500Y-18796000D03*
%TD*%
D33*
%TO.C,Q10*%
X218628000Y-47419500D03*
X216728000Y-47419500D03*
X217678000Y-45544500D03*
%TD*%
D34*
%TO.C,Q9*%
X195404500Y-33208000D03*
X195404500Y-31308000D03*
X197279500Y-32258000D03*
%TD*%
%TO.C,Q8*%
X195483000Y-28890000D03*
X195483000Y-26990000D03*
X197358000Y-27940000D03*
%TD*%
%TO.C,Q7*%
X191594500Y-48194000D03*
X191594500Y-46294000D03*
X193469500Y-47244000D03*
%TD*%
%TO.C,Q6*%
X187784500Y-31176000D03*
X187784500Y-29276000D03*
X189659500Y-30226000D03*
%TD*%
%TO.C,Q5*%
X187784500Y-16190000D03*
X187784500Y-14290000D03*
X189659500Y-15240000D03*
%TD*%
D33*
%TO.C,Q4*%
X215072000Y-47419500D03*
X213172000Y-47419500D03*
X214122000Y-45544500D03*
%TD*%
D34*
%TO.C,Q3*%
X195658500Y-16190000D03*
X195658500Y-14290000D03*
X197533500Y-15240000D03*
%TD*%
%TO.C,Q2*%
X196166500Y-48194000D03*
X196166500Y-46294000D03*
X198041500Y-47244000D03*
%TD*%
D33*
%TO.C,Q1*%
X211328000Y-47498000D03*
X209428000Y-47498000D03*
X210378000Y-45623000D03*
%TD*%
D16*
%TO.C,J1*%
X207757000Y-74111000D03*
D17*
X205217000Y-74111000D03*
X202677000Y-74111000D03*
X200137000Y-74111000D03*
X197597000Y-74111000D03*
X195057000Y-74111000D03*
X192517000Y-74111000D03*
X189977000Y-74111000D03*
%TD*%
D19*
%TO.C,LED8*%
X235583100Y-60706000D03*
X238123100Y-60706000D03*
X236853100Y-60706000D03*
X239393100Y-60706000D03*
%TD*%
%TO.C,LED7*%
X227963100Y-60706000D03*
X230503100Y-60706000D03*
X229233100Y-60706000D03*
X231773100Y-60706000D03*
%TD*%
%TO.C,LED6*%
X220343100Y-60706000D03*
X222883100Y-60706000D03*
X221613100Y-60706000D03*
X224153100Y-60706000D03*
%TD*%
%TO.C,LED5*%
X212723100Y-60706000D03*
X215263100Y-60706000D03*
X213993100Y-60706000D03*
X216533100Y-60706000D03*
%TD*%
%TO.C,LED4*%
X205103100Y-60706000D03*
X207643100Y-60706000D03*
X206373100Y-60706000D03*
X208913100Y-60706000D03*
%TD*%
%TO.C,LED3*%
X197483100Y-60706000D03*
X200023100Y-60706000D03*
X198753100Y-60706000D03*
X201293100Y-60706000D03*
%TD*%
%TO.C,LED1*%
X182243100Y-60706000D03*
X184783100Y-60706000D03*
X183513100Y-60706000D03*
X186053100Y-60706000D03*
%TD*%
D35*
%TO.C,J20*%
X277876000Y-53848000D03*
D36*
X278676000Y-52098000D03*
X279476000Y-53848000D03*
X280276000Y-52098000D03*
X281076000Y-53848000D03*
D37*
X283126000Y-52973000D03*
X275826000Y-52973000D03*
%TD*%
D38*
%TO.C,U6*%
X248480000Y-20060000D03*
D39*
X242180000Y-17780000D03*
D38*
X248480000Y-15500000D03*
%TD*%
D40*
%TO.C,U5*%
X203200000Y-15097500D03*
X205740000Y-15097500D03*
X208280000Y-15097500D03*
X210820000Y-15097500D03*
X213360000Y-15097500D03*
X215900000Y-15097500D03*
X215900000Y-30337500D03*
X213360000Y-30337500D03*
X210820000Y-30337500D03*
X208280000Y-30337500D03*
X205740000Y-30337500D03*
D41*
X203200000Y-30337500D03*
%TD*%
D38*
%TO.C,U4*%
X264110000Y-19806000D03*
D39*
X257810000Y-17526000D03*
D38*
X264110000Y-15246000D03*
%TD*%
D17*
%TO.C,J24*%
X261620000Y-30480000D03*
X259080000Y-30480000D03*
X261620000Y-27940000D03*
X259080000Y-27940000D03*
X261620000Y-25400000D03*
D16*
X259080000Y-25400000D03*
%TD*%
D17*
%TO.C,J23*%
X246380000Y-30480000D03*
X243840000Y-30480000D03*
X246380000Y-27940000D03*
X243840000Y-27940000D03*
X246380000Y-25400000D03*
D16*
X243840000Y-25400000D03*
%TD*%
D17*
%TO.C,J22*%
X254000000Y-30480000D03*
X251460000Y-30480000D03*
X254000000Y-27940000D03*
X251460000Y-27940000D03*
X254000000Y-25400000D03*
D16*
X251460000Y-25400000D03*
%TD*%
%TO.C,J21*%
X272034000Y-45466000D03*
D17*
X272034000Y-42926000D03*
X272034000Y-40386000D03*
X272034000Y-37846000D03*
%TD*%
%TO.C,J9*%
X189977000Y-76651000D03*
X192517000Y-76651000D03*
X195057000Y-76651000D03*
X197597000Y-76651000D03*
X200137000Y-76651000D03*
X202677000Y-76651000D03*
X205217000Y-76651000D03*
D16*
X207757000Y-76651000D03*
%TD*%
D17*
%TO.C,J8*%
X173990000Y-33020000D03*
X171450000Y-33020000D03*
X168910000Y-33020000D03*
X166370000Y-33020000D03*
D16*
X163830000Y-33020000D03*
%TD*%
D42*
%TO.C,J7*%
X274368000Y-22165500D03*
D43*
X277368000Y-26865500D03*
D44*
X271368000Y-26865500D03*
%TD*%
D45*
%TO.C,U2*%
X254938000Y-63119000D03*
X254938000Y-61849000D03*
X254938000Y-60579000D03*
X254938000Y-59309000D03*
X254938000Y-58039000D03*
X254938000Y-56769000D03*
X254938000Y-55499000D03*
X254938000Y-54229000D03*
X254938000Y-52959000D03*
X254938000Y-51689000D03*
X264238000Y-51689000D03*
X264238000Y-52959000D03*
X264238000Y-54229000D03*
X264238000Y-55499000D03*
X264238000Y-56769000D03*
X264238000Y-58039000D03*
X264238000Y-59309000D03*
X264238000Y-60579000D03*
X264238000Y-61849000D03*
X264238000Y-63119000D03*
%TD*%
D17*
%TO.C,J5*%
X282194000Y-37846000D03*
X282194000Y-40386000D03*
X279654000Y-37846000D03*
X279654000Y-40386000D03*
X277114000Y-37846000D03*
D16*
X277114000Y-40386000D03*
%TD*%
D17*
%TO.C,J4*%
X282194000Y-42926000D03*
X282194000Y-45466000D03*
X279654000Y-42926000D03*
X279654000Y-45466000D03*
X277114000Y-42926000D03*
D16*
X277114000Y-45466000D03*
%TD*%
%TO.C,J3*%
X176525000Y-16520000D03*
D17*
X176525000Y-19060000D03*
X176525000Y-21600000D03*
X176525000Y-24140000D03*
%TD*%
D16*
%TO.C,J2*%
X161285000Y-16520000D03*
D17*
X161285000Y-19060000D03*
X161285000Y-21600000D03*
X161285000Y-24140000D03*
%TD*%
M02*
