M48
; DRILL file {KiCad (6.0.1)} date Sat Mar  4 22:58:58 2023
; FORMAT={-:-/ absolute / inch / decimal}
; #@! TF.CreationDate,2023-03-04T22:58:58-07:00
; #@! TF.GenerationSoftware,Kicad,Pcbnew,(6.0.1)
; #@! TF.FileFunction,Plated,1,2,PTH
FMAT,2
INCH
; #@! TA.AperFunction,Plated,PTH,ViaDrill
T1C0.0157
; #@! TA.AperFunction,Plated,PTH,ComponentDrill
T2C0.0276
; #@! TA.AperFunction,Plated,PTH,ComponentDrill
T3C0.0350
; #@! TA.AperFunction,Plated,PTH,ComponentDrill
T4C0.0354
; #@! TA.AperFunction,Plated,PTH,ComponentDrill
T5C0.0394
; #@! TA.AperFunction,Plated,PTH,ComponentDrill
T6C0.0433
; #@! TA.AperFunction,Plated,PTH,ComponentDrill
T7C0.0470
; #@! TA.AperFunction,Plated,PTH,ComponentDrill
T8C0.0512
; #@! TA.AperFunction,Plated,PTH,ComponentDrill
T9C0.0630
%
G90
G05
T1
X6.425Y-2.04
X6.4491Y-2.3409
X6.49Y-2.08
X6.49Y-2.385
X6.63Y-1.79
X6.73Y-1.71
X6.73Y-1.98
X6.95Y-2.16
X6.97Y-2.825
X7.1Y-2.34
X7.1341Y-1.7175
X7.2Y-1.58
X7.27Y-1.03
X7.295Y-2.835
X7.32Y-0.83
X7.365Y-2.825
X7.43Y-1.94
X7.48Y-0.64
X7.48Y-2.52
X7.57Y-2.4885
X7.62Y-1.3
X7.62Y-1.95
X7.65Y-0.64
X7.65Y-0.78
X7.78Y-2.52
X7.84Y-1.14
X7.85Y-1.86
X7.87Y-2.49
X8.0079Y-2.7593
X8.0079Y-2.8
X8.01Y-2.72
X8.03Y-1.69
X8.08Y-1.64
X8.08Y-2.52
X8.12Y-1.59
X8.17Y-2.49
X8.22Y-1.64
X8.22Y-1.69
X8.24Y-1.59
X8.25Y-1.94
X8.35Y-3.17
X8.38Y-2.52
X8.39Y-1.94
X8.47Y-2.49
X8.53Y-1.94
X8.68Y-1.94
X8.68Y-2.52
X8.72Y-3.06
X8.7575Y-1.2875
X8.76Y-0.775
X8.76Y-0.895
X8.76Y-1.09
X8.765Y-2.88
X8.77Y-2.49
X8.82Y-1.94
X8.91Y-0.56
X8.94Y-2.84
X8.9411Y-1.1089
X8.95Y-0.85
X8.96Y-1.94
X8.96Y-2.69
X8.9678Y-2.8678
X8.98Y-2.52
X9.0Y-2.68
X9.01Y-2.8716
X9.02Y-1.19
X9.03Y-2.65
X9.0673Y-2.6318
X9.07Y-2.49
X9.1Y-1.94
X9.1Y-2.61
X9.1426Y-2.5885
X9.1598Y-3.0098
X9.18Y-2.83
X9.1819Y-2.58
X9.1915Y-1.24
X9.1935Y-2.8815
X9.2Y-3.01
X9.2213Y-2.58
X9.2328Y-2.8815
X9.25Y-1.94
X9.2606Y-2.58
X9.28Y-2.52
X9.3Y-2.58
X9.32Y-2.8851
X9.32Y-2.9244
X9.32Y-2.9638
X9.34Y-2.58
X9.3602Y-2.6202
X9.37Y-2.49
X9.3902Y-2.6802
X9.42Y-1.62
X9.42Y-1.75
X9.42Y-2.61
X9.43Y-2.66
X9.4615Y-1.6515
X9.4615Y-1.8
X9.47Y-2.63
X9.47Y-2.9701
X9.49Y-1.76
X9.5Y-1.69
X9.51Y-2.97
X9.52Y-2.66
X9.5215Y-2.8
X9.5378Y-2.9415
X9.5491Y-2.8913
X9.5785Y-2.86
X9.58Y-2.99
X9.6646Y-2.93
X9.69Y-2.97
X9.755Y-2.29
X9.78Y-3.1031
X9.82Y-3.05
X9.82Y-3.11
X9.85Y-3.0
X9.86Y-3.12
X9.9Y-3.13
X9.94Y-3.14
X9.98Y-3.14
X9.99Y-2.85
X10.03Y-2.81
X10.09Y-2.58
X10.09Y-2.7
X10.375Y-0.89
X10.52Y-2.235
T2
X10.94Y-2.12
X10.9715Y-2.0511
X11.003Y-2.12
X11.0345Y-2.0511
X11.066Y-2.12
T3
X7.1749Y-2.39
X7.2249Y-2.39
X7.2749Y-2.39
X7.3249Y-2.39
X7.4749Y-2.39
X7.5249Y-2.39
X7.5749Y-2.39
X7.6249Y-2.39
X7.7749Y-2.39
X7.8249Y-2.39
X7.8749Y-2.39
X7.9249Y-2.39
X8.0749Y-2.39
X8.1249Y-2.39
X8.1749Y-2.39
X8.2249Y-2.39
X8.3749Y-2.39
X8.4249Y-2.39
X8.4749Y-2.39
X8.5249Y-2.39
X8.6749Y-2.39
X8.7249Y-2.39
X8.7749Y-2.39
X8.8249Y-2.39
X8.9749Y-2.39
X9.0249Y-2.39
X9.0749Y-2.39
X9.1249Y-2.39
X9.2749Y-2.39
X9.3249Y-2.39
X9.3749Y-2.39
X9.4249Y-2.39
T4
X9.6198Y-1.51
X9.7198Y-1.51
X9.9098Y-1.51
X10.0098Y-1.51
T5
X6.29Y-1.5204
X6.29Y-1.6204
X6.29Y-1.7204
X6.29Y-1.8204
X6.3498Y-0.6504
X6.3498Y-0.7504
X6.3498Y-0.8504
X6.3498Y-0.9504
X6.45Y-1.3
X6.4731Y-1.5204
X6.4731Y-1.6204
X6.4731Y-1.7204
X6.4731Y-1.8204
X6.55Y-1.3
X6.65Y-1.3
X6.75Y-1.3
X6.85Y-1.3
X6.9498Y-0.6504
X6.9498Y-0.7504
X6.9498Y-0.8504
X6.9498Y-0.9504
X6.955Y-2.285
X6.955Y-2.385
X6.955Y-2.485
X6.955Y-2.585
X7.15Y-2.7504
X7.15Y-2.8504
X7.15Y-2.9504
X7.15Y-3.0504
X7.24Y-1.47
X7.34Y-1.47
X7.44Y-1.47
X7.4501Y-2.15
X7.4794Y-2.9178
X7.4794Y-3.0178
X7.54Y-1.47
X7.5501Y-2.15
X7.5794Y-2.9178
X7.5794Y-3.0178
X7.64Y-1.47
X7.6501Y-2.15
X7.6794Y-2.9178
X7.6794Y-3.0178
X7.74Y-1.47
X7.7501Y-2.15
X7.7794Y-2.9178
X7.7794Y-3.0178
X7.84Y-1.47
X7.8794Y-2.9178
X7.8794Y-3.0178
X7.94Y-1.47
X7.9794Y-2.9178
X7.9794Y-3.0178
X8.0Y-0.5944
X8.0Y-1.1944
X8.0794Y-2.9178
X8.0794Y-3.0178
X8.1Y-0.5944
X8.1Y-1.1944
X8.1794Y-2.9178
X8.1794Y-3.0178
X8.2Y-0.5944
X8.2Y-1.1944
X8.3Y-0.5944
X8.3Y-1.1944
X8.3895Y-2.16
X8.4Y-0.5944
X8.4Y-1.1944
X8.48Y-2.8696
X8.48Y-2.9696
X8.48Y-3.0696
X8.48Y-3.1696
X8.4895Y-2.16
X8.5Y-0.5944
X8.5Y-1.1944
X8.58Y-2.8696
X8.58Y-2.9696
X8.58Y-3.0696
X8.58Y-3.1696
X8.5895Y-2.16
X8.6895Y-2.16
X8.72Y-1.49
X8.7895Y-2.16
X8.82Y-1.49
X8.8895Y-2.16
X8.92Y-1.49
X8.9895Y-2.16
X9.02Y-1.49
X9.0895Y-2.16
X9.12Y-1.49
X9.22Y-1.49
X9.6Y-1.0
X9.6Y-1.1
X9.6Y-1.2
X9.7Y-1.0
X9.7Y-1.1
X9.7Y-1.2
X9.9Y-1.0
X9.9Y-1.1
X9.9Y-1.2
X10.0Y-1.0
X10.0Y-1.1
X10.0Y-1.2
X10.07Y-1.86
X10.14Y-2.8504
X10.14Y-2.9504
X10.14Y-3.0504
X10.14Y-3.1504
X10.17Y-1.86
X10.2Y-1.0
X10.2Y-1.1
X10.2Y-1.2
X10.27Y-1.86
X10.3Y-1.0
X10.3Y-1.1
X10.3Y-1.2
X10.37Y-1.86
X10.71Y-1.49
X10.71Y-1.59
X10.71Y-1.69
X10.71Y-1.79
X10.91Y-1.49
X10.91Y-1.59
X10.91Y-1.69
X10.91Y-1.79
X11.01Y-1.49
X11.01Y-1.59
X11.01Y-1.69
X11.01Y-1.79
X11.11Y-1.49
X11.11Y-1.59
X11.11Y-1.69
X11.11Y-1.79
T6
X10.3863Y-2.8816
X10.3863Y-2.98
X10.3863Y-3.0784
X10.6316Y-2.6363
X10.73Y-2.6363
X10.8284Y-2.6363
T7
X6.2678Y-2.9043
X6.2678Y-3.1012
X6.8387Y-2.9043
X6.8387Y-3.1012
T8
X10.9564Y-2.852
X10.9564Y-3.108
X11.1335Y-2.852
X11.1335Y-3.108
T9
X10.5331Y-2.731
X10.5331Y-3.229
X10.9269Y-2.731
X10.9269Y-3.229
T2
G00X10.8593Y-2.06
M15
G01X10.8593Y-2.1111
M16
G05
G00X11.1467Y-2.06
M15
G01X11.1467Y-2.1111
M16
G05
T5
G00X10.6838Y-1.0971
M15
G01X10.6838Y-1.0183
M16
G05
G00X10.8413Y-0.8727
M15
G01X10.7625Y-0.8727
M16
G05
G00X10.92Y-1.0971
M15
G01X10.92Y-1.0183
M16
G05
T0
M30
